<?xml version="1.0" encoding="utf-8"?>
<!-- Generator: Adobe Illustrator 16.0.0, SVG Export Plug-In . SVG Version: 6.00 Build 0)  -->
<!DOCTYPE svg PUBLIC "-//W3C//DTD SVG 1.1//EN" "http://www.w3.org/Graphics/SVG/1.1/DTD/svg11.dtd">
<svg version="1.1" id="Capa_1" xmlns="http://www.w3.org/2000/svg" xmlns:xlink="http://www.w3.org/1999/xlink" x="0px" y="0px"
	 width="701.587px" height="90.047px" viewBox="0 0 701.587 90.047" enable-background="new 0 0 701.587 90.047"
	 xml:space="preserve">
<g>
	<path fill="#FFC72C" d="M28.366,15.452v18.13h0.009c8.676,0,15.713-7.019,15.747-15.688v-2.442H28.366z"/>
	<path fill="#FFC72C" d="M44.122,52.772V34.645h-0.01c-8.679,0-15.714,7.019-15.747,15.688v2.439H44.122z"/>
	<path fill="#E26811" d="M22.976,52.772c-8.699-1.754-15.25-9.442-15.25-18.657c0-9.219,6.551-16.904,15.25-18.664V52.772z"/>
	<path fill="#FFFFFF" d="M70.94,49.223c-5.195,0-9.349-1.593-12.335-4.733c-2.692-2.812-4.057-6.348-4.057-10.513
		c0-4.399,1.479-8.191,4.399-11.267c3.282-3.464,7.728-5.221,13.215-5.221c3.334,0,6.333,0.654,8.913,1.95
		c0.112,0.056,0.183,0.168,0.183,0.295v6.453c0,0.157-0.111,0.292-0.268,0.325c-0.022,0.004-0.047,0.009-0.07,0.009
		c-0.134,0-0.25-0.081-0.3-0.209c-1.557-3.877-4.627-5.76-9.389-5.76c-3.666,0-6.612,1.308-8.755,3.887
		c-1.964,2.332-2.961,5.243-2.961,8.648c0,3.466,1.028,6.453,3.056,8.869c2.241,2.669,5.321,4.021,9.151,4.021
		c3.638,0,6.924-1.523,9.75-4.525c0.059-0.065,0.152-0.102,0.245-0.102c0.04,0,0.079,0.006,0.115,0.021
		c0.127,0.051,0.209,0.17,0.209,0.307v2.894c0,0.086-0.032,0.167-0.089,0.229C79.123,47.736,75.418,49.223,70.94,49.223"/>
	<path fill="#FFFFFF" d="M133.126,20.503c-4.364,0-7.994,1.404-10.786,4.175c-2.792,2.769-4.208,6.286-4.208,10.455
		c0,4.063,1.328,7.449,3.943,10.072c2.617,2.628,6.073,3.96,10.264,3.96c4.4,0,8.045-1.437,10.834-4.274
		c2.704-2.731,4.073-6.215,4.073-10.353c0-4.062-1.311-7.45-3.896-10.075C140.76,21.835,137.321,20.503,133.126,20.503
		 M142.826,35.451c0,3.157-0.902,5.745-2.68,7.693c-1.771,1.934-4.101,2.915-6.93,2.915c-3.146,0-5.718-1.125-7.644-3.344
		c-1.947-2.238-2.933-5.178-2.933-8.737c0-3.104,0.895-5.636,2.655-7.53c1.757-1.883,4.098-2.836,6.957-2.836
		c3.176,0,5.756,1.112,7.67,3.305C141.849,29.127,142.826,31.998,142.826,35.451"/>
	<path fill="#FFFFFF" d="M157.966,24.01c0.003-0.07,0.009-0.142,0.023-0.214c0.139-0.87,0.809-1.568,1.672-1.742
		c0.019-0.005,0.03-0.011,0.05-0.014c0.216-0.058,0.358-0.258,0.339-0.479c-0.02-0.235-0.219-0.42-0.455-0.42h-7.707
		c-0.235,0-0.436,0.185-0.457,0.42c-0.018,0.221,0.126,0.421,0.369,0.483c0.005,0.001,0.015,0.006,0.02,0.01
		c0.972,0.193,1.703,1.051,1.709,2.079v0.154c0,0.008,0.001,0.015,0.001,0.021v21.055c0,0.013-0.001,0.023-0.001,0.037v0.196
		c-0.006,1.029-0.744,1.886-1.715,2.077c-0.006,0.004-0.011,0.008-0.017,0.01c-0.07,0-0.139,0.031-0.193,0.095
		c-0.086,0.091-0.139,0.234-0.129,0.361c0.016,0.237,0.218,0.428,0.457,0.428h7.665h0.007c0.252,0,0.457-0.207,0.457-0.46
		c0-0.201-0.12-0.394-0.319-0.417c-0.02-0.006-0.031-0.013-0.047-0.015c-0.986-0.181-1.736-1.041-1.742-2.081v-0.235
		c0-0.003-0.003-0.014-0.003-0.019V24.184c0-0.006,0.003-0.012,0.003-0.021v-0.03C157.952,24.09,157.963,24.051,157.966,24.01"/>
	<path fill="#FFFFFF" d="M188.855,41.874c-0.172-0.071-0.376-0.024-0.501,0.11c-2.496,2.648-5.389,3.994-8.599,3.994
		c-3.373,0-6.084-1.189-8.054-3.536c-1.789-2.138-2.697-4.768-2.697-7.826c0-3.006,0.877-5.572,2.61-7.629
		c1.884-2.267,4.478-3.417,7.704-3.417c4.18,0,6.877,1.652,8.244,5.047c0.083,0.202,0.286,0.325,0.512,0.28
		c0.216-0.045,0.371-0.233,0.371-0.451v-5.771c0-0.172-0.098-0.33-0.251-0.409c-2.331-1.169-5.038-1.761-8.042-1.761
		c-4.953,0-8.968,1.589-11.936,4.72c-2.642,2.781-3.98,6.208-3.98,10.187c0,3.768,1.237,6.966,3.675,9.509
		c2.703,2.843,6.455,4.283,11.145,4.283c4.053,0,7.402-1.347,9.961-4.002c0.084-0.084,0.13-0.197,0.13-0.315v-2.59
		C189.146,42.109,189.032,41.939,188.855,41.874"/>
	<path fill="#FFFFFF" d="M214.859,41.579c-0.221-0.068-0.461,0.054-0.549,0.264c-0.025,0.064-0.055,0.115-0.086,0.177
		c-0.773,2.089-2.775,3.582-5.132,3.593h-0.411c-0.07,0.003-0.134,0.009-0.211,0.009h-8.236v-9.633h8.212
		c1.713,0,2.627,0.488,2.789,1.487c0.037,0.221,0.226,0.385,0.454,0.385l0.035-0.003c0.236-0.017,0.422-0.219,0.422-0.453v-5.696
		c0-0.234-0.176-0.428-0.41-0.453c-0.24-0.031-0.45,0.134-0.496,0.359c-0.214,1.016-1.142,1.509-2.837,1.509h-8.168V23.76h8.711
		h0.024h0.527c1.875,0.009,3.432,1.353,3.775,3.127c0.006,0.021,0.015,0.036,0.021,0.058c0.063,0.202,0.232,0.359,0.441,0.359
		c0.021,0,0.04,0,0.056-0.003c0.232-0.025,0.409-0.222,0.409-0.457V21.6c0-0.253-0.208-0.459-0.458-0.459h-19.79
		c-0.238,0-0.439,0.188-0.456,0.429c-0.014,0.235,0.156,0.451,0.384,0.48l0.039,0.007c0.008,0.002,0.016,0.006,0.023,0.008
		c1.027,0.149,1.819,1.024,1.824,2.089v21.409c-0.004,1.009-0.709,1.849-1.656,2.065l-0.006,0.004
		c-0.019,0.004-0.037,0.012-0.054,0.016c-0.01,0.004-0.021,0.008-0.033,0.008c-0.236,0.036-0.407,0.252-0.39,0.489
		c0.019,0.234,0.22,0.424,0.458,0.424h19.642c0.226,0,0.417-0.163,0.454-0.383l1.008-6.09
		C215.224,41.862,215.083,41.642,214.859,41.579"/>
	<path fill="#FFFFFF" d="M112.433,24.132c0.001-1.022,0.725-1.871,1.687-2.076c0.008-0.002,0.016-0.011,0.025-0.016
		c0.22-0.054,0.366-0.252,0.35-0.477c-0.018-0.238-0.218-0.423-0.459-0.423h-7.706c-0.236,0-0.438,0.185-0.457,0.423
		c-0.015,0.219,0.128,0.414,0.369,0.477c0.006,0.005,0.011,0.008,0.017,0.014c0.97,0.195,1.669,1.05,1.672,2.078v8.991H92.91v-8.896
		v-0.002v-0.092c0.006-1.043,0.762-1.904,1.751-2.084l0.018-0.016c0.211-0.06,0.348-0.25,0.332-0.469
		c-0.017-0.238-0.219-0.423-0.457-0.423h-7.75c-0.238,0-0.44,0.185-0.457,0.423c-0.017,0.219,0.12,0.412,0.333,0.47
		c0,0,0.08,0.021,0.198,0.063c0.808,0.223,1.418,0.903,1.534,1.75c0.012,0.067,0.018,0.137,0.023,0.209
		c0,0.026,0.01,0.051,0.01,0.076v0.05v0.053v21.183v0.004v0.131c-0.006,1.003-0.706,1.842-1.643,2.059L86.8,47.619l-0.173,0.073
		c-0.18,0.077-0.295,0.257-0.28,0.446c0.014,0.24,0.217,0.43,0.457,0.43h7.75c0.24,0,0.443-0.19,0.457-0.428
		c0.014-0.197-0.103-0.375-0.289-0.452L94.55,47.63l-0.005-0.017c-0.933-0.226-1.629-1.056-1.635-2.059v-0.221V45.31v-9.243h15.021
		c0,0-0.003,9.087-0.003,9.255c0,0.547-0.043,0.85-0.104,0.958c-0.244,0.661-0.807,1.174-1.508,1.336l-0.175,0.081
		c-0.175,0.082-0.281,0.254-0.269,0.442c0.016,0.238,0.219,0.428,0.457,0.428h7.709h0.008c0.25,0,0.457-0.207,0.457-0.459
		c0-0.174-0.097-0.33-0.255-0.409l-0.181-0.087c-0.936-0.221-1.635-1.056-1.636-2.059V24.132z"/>
	<polygon fill="#E26811" points="67.353,59.675 68.866,59.675 68.866,63.255 72.976,63.255 72.976,59.675 74.489,59.675 
		74.489,68.288 72.976,68.288 72.976,64.658 68.866,64.658 68.866,68.288 67.353,68.288 	"/>
	<path fill="#E26811" d="M79.402,64.006v-0.024c0-2.424,1.869-4.454,4.515-4.454c2.646,0,4.49,2.005,4.49,4.429v0.025
		c0,2.424-1.869,4.454-4.515,4.454S79.402,66.43,79.402,64.006 M86.82,64.006v-0.024c0-1.674-1.218-3.063-2.928-3.063
		c-1.711,0-2.904,1.365-2.904,3.039v0.025c0,1.673,1.217,3.051,2.928,3.051C85.627,67.032,86.82,65.679,86.82,64.006"/>
	<polygon fill="#E26811" points="94.969,61.077 92.237,61.077 92.237,59.675 99.226,59.675 99.226,61.077 96.494,61.077 
		96.494,68.288 94.969,68.288 	"/>
	<polygon fill="#E26811" points="103.905,59.675 110.29,59.675 110.29,61.028 105.418,61.028 105.418,63.267 109.737,63.267 
		109.737,64.621 105.418,64.621 105.418,66.933 110.352,66.933 110.352,68.288 103.905,68.288 	"/>
	<polygon fill="#E26811" points="115.227,59.675 116.739,59.675 116.739,66.909 121.268,66.909 121.268,68.288 115.227,68.288 	"/>
	<path fill="#E26811" d="M125.343,67.032l0.911-1.083c0.825,0.713,1.662,1.12,2.719,1.12c0.936,0,1.526-0.443,1.526-1.083v-0.024
		c0-0.615-0.346-0.948-1.945-1.317c-1.833-0.442-2.867-0.984-2.867-2.571v-0.025c0-1.476,1.231-2.498,2.941-2.498
		c1.255,0,2.253,0.382,3.125,1.083l-0.812,1.145c-0.775-0.578-1.549-0.886-2.337-0.886c-0.886,0-1.403,0.455-1.403,1.021v0.024
		c0,0.664,0.394,0.96,2.056,1.353c1.82,0.443,2.755,1.095,2.755,2.521v0.025c0,1.612-1.267,2.571-3.076,2.571
		C127.62,68.41,126.377,67.955,125.343,67.032"/>
	<polygon fill="#FFFFFF" points="140.567,59.675 142.178,59.675 144.799,63.748 147.419,59.675 149.032,59.675 149.032,68.288 
		147.518,68.288 147.518,62.111 144.799,66.171 144.75,66.171 142.056,62.136 142.056,68.288 140.567,68.288 	"/>
	<polygon fill="#FFFFFF" points="154.326,59.675 160.711,59.675 160.711,61.028 155.839,61.028 155.839,63.267 160.158,63.267 
		160.158,64.621 155.839,64.621 155.839,66.933 160.773,66.933 160.773,68.288 154.326,68.288 	"/>
	<polygon fill="#FFFFFF" points="172.931,59.675 169.929,63.882 173.054,68.288 171.271,68.288 168.994,65.001 166.73,68.288 
		164.996,68.288 168.107,63.907 165.119,59.675 166.903,59.675 169.043,62.8 171.196,59.675 	"/>
	<rect x="177.783" y="59.675" fill="#FFFFFF" width="1.513" height="8.613"/>
	<path fill="#FFFFFF" d="M184.293,64.006v-0.024c0-2.449,1.833-4.454,4.44-4.454c1.587,0,2.548,0.554,3.372,1.341l-0.972,1.12
		c-0.688-0.64-1.427-1.07-2.411-1.07c-1.637,0-2.842,1.354-2.842,3.039v0.025c0,1.685,1.194,3.051,2.842,3.051
		c1.058,0,1.734-0.418,2.472-1.107l0.973,0.984c-0.899,0.935-1.883,1.526-3.495,1.526C186.164,68.435,184.293,66.479,184.293,64.006
		"/>
	<path fill="#FFFFFF" d="M196.207,64.006v-0.024c0-2.424,1.87-4.454,4.516-4.454c2.645,0,4.49,2.005,4.49,4.429v0.025
		c0,2.424-1.87,4.454-4.515,4.454C198.052,68.435,196.207,66.43,196.207,64.006 M203.625,64.006v-0.024
		c0-1.674-1.218-3.063-2.928-3.063c-1.71,0-2.904,1.365-2.904,3.039v0.025c0,1.673,1.219,3.051,2.929,3.051
		C202.432,67.032,203.625,65.679,203.625,64.006"/>
</g>
<g>
	<path fill="#AEABA2" d="M209.232,59.763h-1.498v-0.592h3.627v0.592h-1.498v4.061h-0.631V59.763z"/>
	<path fill="#AEABA2" d="M211.983,59.171h0.94l1.479,3.521h0.025l1.467-3.521h0.939v4.652h-0.631V60h-0.014l-1.57,3.824h-0.421
		L212.627,60h-0.013v3.824h-0.632V59.171z"/>
</g>
<g>
	<path fill-rule="evenodd" clip-rule="evenodd" fill="#006BB6" d="M501.113,63.383c0.004,3.731-3.045,6.833-6.777,6.837h-40.856
		c-3.731,0.004-6.784-3.044-6.784-6.775V22.647c0-3.73,3.053-6.784,6.784-6.784h40.796c3.732,0,6.787,3.054,6.793,6.784
		L501.113,63.383z"/>
</g>
<g>
	<g>
		<path fill="#FFE600" d="M473.176,30.979c5.011,2.072,8.838,2.69,12.478-0.507c0.27-0.24,0.506-0.51,0.74-0.779
			c-2.189-4.889-7.023-8.012-12.38-8.012c-5.618,0-10.441,3.198-12.452,8.416C464.05,28.102,467.662,28.715,473.176,30.979z"/>
		<path fill="#ED1C24" d="M471.971,45.375c-5.122-2.199-7.991-1.854-8.542-1.371c2.545,3.683,6.211,5.448,10.686,5.448
			c4.029,0,7.709-1.388,10.279-4.463C480.826,47.303,476.649,47.388,471.971,45.375z"/>
		<path fill="#F58220" d="M486.617,38.876c-4.088,3.446-9.116,3.107-14.74,0.7c-4.943-2.137-7.376-2.955-10.971-1.265
			c0.268,1.838,0.679,3.003,1.65,4.586c2.732-1.114,5.811-0.749,10.637,0.941c4.98,1.76,8.8,2.254,12.447-0.735
			c1.062-1.703,1.735-3.38,1.961-5.377C487.279,38.07,487.001,38.553,486.617,38.876z"/>
		<path fill="#F0AF13" d="M485.995,31.721c-3.796,3.316-8.529,3.527-13.95,1.191c-4.856-2.121-8.021-3.271-10.902-1.36
			c-0.426,1.334-0.643,2.718-0.643,4.117c0,0.462,0,0.812,0.049,1.299c3.328-1.817,6.806-1.283,12.627,1.092
			c5.207,2.142,9.223,2.647,13.16-0.402c0.516-0.4,0.957-0.957,1.327-1.435c0.002-0.077,0.02-0.554,0.02-0.554
			c0-1.737-0.265-3.271-0.903-4.875C486.535,31.074,486.273,31.472,485.995,31.721z"/>
	</g>
	<g>
		<g>
			<path fill="#FFFFFF" stroke="#FFFFFF" stroke-width="0.0527" d="M459.083,60.39c-1.303,0.358-2.564,0.388-2.719,0.388
				c-2.69,0-4.716-1.871-4.716-4.479c0-3.01,2.428-4.449,5.01-4.449c0.567,0,1.093,0.066,1.704,0.304
				c0.152,0.055,0.43,0.152,0.568,0.152s0.25-0.055,0.375-0.11l0.179,0.056c-0.054,0.264-0.345,1.58-0.401,1.884l-0.223-0.053
				c-0.068-0.586-0.084-0.766-0.275-0.958c-0.194-0.224-1.013-0.79-2.221-0.79c-3.078,0-3.078,3.177-3.078,3.895
				c0,3.801,2.747,4.079,3.286,4.079c1.222,0,2.247-0.638,2.636-1.829l0.32,0.042c-0.015,0.19-0.015,0.304-0.113,0.648
				c-0.027,0.097-0.166,0.57-0.18,0.654L459.083,60.39z"/>
			<path fill="#FFFFFF" stroke="#FFFFFF" stroke-width="0.0527" d="M463.191,55.524c1.565,0,2.761,1.052,2.761,2.591
				c0,1.498-1.234,2.704-2.915,2.704c-1.635,0-2.758-1.136-2.758-2.521C460.279,56.506,461.763,55.524,463.191,55.524
				 M463.318,60.418c0.787,0,1.244-0.79,1.244-1.708c0-0.47-0.166-2.771-1.607-2.771c-0.498,0-1.275,0.344-1.275,1.646
				C461.679,59.125,462.319,60.418,463.318,60.418z"/>
			<path fill="#FFFFFF" stroke="#FFFFFF" stroke-width="0.0527" d="M480.269,51.431c-0.915,0-2.206,0.819-2.707,1.624
				c-0.346,0.539-0.471,1.329-0.524,2.633h-0.848v0.568h0.528c0.332,0,0.332,0.1,0.332,1.014c0,0.446-0.056,2.26-0.084,2.566
				c-0.031,0.365-0.549,0.435-0.83,0.433c-0.301,0.002-0.858-0.14-0.866-0.405c-0.009-0.269-0.009-1.403-0.009-1.469
				c-0.012-1.638-0.012-1.651-0.15-1.972c-0.195-0.471-0.611-0.693-1.141-0.693c-0.708,0-1.375,0.264-2.177,0.626
				c-0.169-0.375-0.474-0.78-1.098-0.78c-0.623,0-1.304,0.279-2.177,0.78c-0.014-0.265-0.014-0.723,0-0.846l-0.167-0.068
				c-0.651,0.261-1.331,0.511-2.024,0.637v0.33c0.764,0.028,0.958,0.044,0.958,1.986c0,1.331-0.126,1.814-0.958,1.927v0.358
				c0.526-0.042,0.832-0.042,2.426-0.042c0.18,0,0.293,0.017,0.568,0.042v-0.358c-0.761-0.127-0.803-0.196-0.816-0.874
				c-0.012-0.183-0.012-0.68-0.012-1.192v-1.456c0.343-0.195,0.858-0.474,1.342-0.474c0.764,0,0.847,0.805,0.847,2.372
				c0,1.331-0.097,1.456-0.872,1.624l0.068,0.358c0.292,0,1.707-0.053,2.039-0.053c0.249,0,0.432,0.011,0.775,0.053v-0.358
				c-0.193-0.015-0.58-0.029-0.651-0.112c-0.124-0.097-0.124-2.177-0.124-2.73c0-0.335-0.042-0.596-0.056-0.764
				c0.263-0.111,0.665-0.278,1.179-0.278c0.748,0,1.029,0.544,1.029,1.901c0,1.844-0.24,1.9-0.877,1.983l0.084,0.358
				c0.777-0.073,4.112-0.115,6.285-0.011v-0.377h-0.682c-0.484,0-0.525-0.083-0.541-0.524c-0.039-1.286-0.041-1.43-0.041-1.806
				c0-0.232,0.027-1.428,0.027-1.706h1.928v-0.568h-1.928c0.029-2.219,0.043-3.535,1.152-3.535c0.195,0,0.429,0.014,1.178,0.418
				c0.281,0.136,0.416,0.205,0.556,0.205c0.249,0,0.583-0.568,0.583-0.749C481.794,51.679,480.769,51.431,480.269,51.431z"/>
			<path fill="#FFFFFF" stroke="#FFFFFF" stroke-width="0.0527" d="M483.083,55.524c1.568,0,2.763,1.052,2.763,2.591
				c0,1.498-1.237,2.704-2.916,2.704c-1.636,0-2.757-1.136-2.757-2.521C480.173,56.506,481.656,55.524,483.083,55.524
				 M483.208,60.418c0.791,0,1.248-0.79,1.248-1.708c0-0.47-0.166-2.771-1.607-2.771c-0.498,0-1.273,0.344-1.273,1.646
				C481.576,59.125,482.211,60.418,483.208,60.418z"/>
			<path fill="#FFFFFF" stroke="#FFFFFF" stroke-width="0.0527" d="M495.652,60.004c-0.678,0.484-1.482,0.773-2.312,0.773
				c-1.236,0-1.236-0.927-1.236-1.704c0-0.265,0.055-2.304,0.055-2.734c-0.332-0.041-0.416-0.056-0.709-0.056v-0.303
				c0.85-0.457,1.195-0.777,2.138-1.818l-0.096,1.442c0.247,0,1.386,0.028,1.608,0.028c0.096,0,0.18,0,0.363-0.028v0.585
				c-0.154,0.01-0.363,0.038-0.711,0.026L493.85,56.2c-0.304-0.01-0.345,0.041-0.376,0.099c-0.041,0.11-0.068,1.804-0.068,2.399
				c0,0.543,0,1.404,0.861,1.404c0.457,0,0.859-0.171,1.275-0.334L495.652,60.004z"/>
			<path fill="#FFFFFF" stroke="#FFFFFF" stroke-width="0.0527" d="M486.123,56.161c0.322-0.069,1.485-0.32,2.081-0.817h0.11
				c0,0.148,0.014,0.885,0,1.038c0.195-0.098,1.442-0.819,1.721-0.939c0.069,0.05,0.096,0.068,0.235,0.134
				c0.249,0.112,0.415,0.293,0.415,0.567c0,0.377-0.401,0.712-1.068,0.767c-0.025-0.194-0.068-0.516-0.375-0.516
				c-0.359,0-0.69,0.308-0.928,0.624c-0.029,0.86-0.029,1.502-0.029,1.777c0,0.665,0.018,1.25,0.211,1.399
				c0.096,0.058,0.234,0.058,0.375,0.058h0.886v0.375c-0.804,0.027-2.356,0.053-3.55,0.083v-0.307
				c0.816-0.069,0.848-0.32,0.848-2.565c0-1.068-0.057-1.318-0.585-1.318c-0.126,0-0.208,0.015-0.347,0.028V56.161z"/>
		</g>
	</g>
</g>
<g>
	<path fill="#AEABA2" d="M501.308,67.871c0-0.359,0.069-0.696,0.207-1.011c0.138-0.315,0.324-0.59,0.561-0.826
		c0.235-0.236,0.511-0.422,0.826-0.56c0.314-0.138,0.651-0.207,1.011-0.207s0.696,0.069,1.012,0.207s0.591,0.324,0.826,0.56
		s0.422,0.511,0.56,0.826c0.138,0.315,0.207,0.652,0.207,1.011s-0.069,0.696-0.207,1.012c-0.138,0.315-0.324,0.59-0.56,0.826
		c-0.235,0.236-0.511,0.422-0.826,0.56s-0.652,0.207-1.012,0.207s-0.696-0.069-1.011-0.207c-0.315-0.138-0.591-0.324-0.826-0.56
		c-0.236-0.235-0.423-0.511-0.561-0.826C501.377,68.567,501.308,68.23,501.308,67.871z M501.771,67.871
		c0,0.294,0.056,0.572,0.168,0.833c0.111,0.261,0.265,0.489,0.459,0.683c0.193,0.194,0.42,0.346,0.682,0.458
		c0.262,0.112,0.539,0.168,0.833,0.168s0.571-0.056,0.833-0.168c0.262-0.112,0.488-0.265,0.683-0.458s0.347-0.421,0.458-0.683
		c0.113-0.261,0.168-0.539,0.168-0.833s-0.055-0.572-0.168-0.833c-0.111-0.261-0.264-0.489-0.458-0.683
		c-0.194-0.193-0.421-0.346-0.683-0.458c-0.262-0.112-0.539-0.168-0.833-0.168s-0.571,0.056-0.833,0.168
		c-0.262,0.112-0.488,0.265-0.682,0.458c-0.194,0.194-0.348,0.421-0.459,0.683C501.827,67.299,501.771,67.577,501.771,67.871z
		 M502.912,66.366h1.148c0.359,0,0.624,0.077,0.795,0.231c0.17,0.154,0.255,0.375,0.255,0.665c0,0.261-0.067,0.458-0.201,0.588
		c-0.134,0.131-0.303,0.208-0.506,0.231l0.771,1.26h-0.574l-0.742-1.218h-0.398v1.218h-0.547V66.366z M503.458,67.661h0.398
		c0.084,0,0.168-0.003,0.252-0.011c0.084-0.007,0.16-0.024,0.228-0.052s0.122-0.07,0.165-0.126c0.041-0.056,0.062-0.133,0.062-0.231
		s-0.021-0.175-0.062-0.231c-0.043-0.056-0.098-0.098-0.165-0.126c-0.067-0.028-0.144-0.044-0.228-0.049
		c-0.084-0.004-0.168-0.007-0.252-0.007h-0.398V67.661z"/>
</g>
<g>
	<g>
		<defs>
			<polygon id="SVGID_1_" points="437.462,70.159 382.828,70.22 382.767,15.587 437.462,15.587 			"/>
		</defs>
		<clipPath id="SVGID_2_">
			<use xlink:href="#SVGID_1_"  overflow="visible"/>
		</clipPath>
		<g clip-path="url(#SVGID_2_)">
			<path fill-rule="evenodd" clip-rule="evenodd" fill="#007663" d="M437.462,63.341c0,3.749-3.068,6.82-6.818,6.825l-40.998,0.046
				c-3.75,0.004-6.821-3.061-6.826-6.81l-0.045-40.998c-0.005-3.75,3.06-6.817,6.81-6.817h41.06c3.75,0,6.818,3.067,6.818,6.817
				V63.341z"/>
			<path fill-rule="evenodd" clip-rule="evenodd" fill="#231F20" d="M397.802,31.235c3.689,3.52,8.535,8.806,13,11.49
				c5.906,3.55,14.254,2.232,14.248-3.625c-0.002-0.97-0.346-1.86-0.875-2.471c-0.273-0.322-0.615-0.057-0.365,0.241
				c1.182,1.397,0.152,5.68-4.375,5.669c-1.58,0.002-3.604-0.531-6.031-2.1c-4.687-3.026-9.918-8.999-13.148-11.677
				c-4.253-3.524-8.898-4.656-12.801-4.652c-1.912,0.003-3.436,0.214-4.66,0.547l0.001,1.456c0.986-0.268,2.048-0.37,3.153-0.371
				C392.439,25.735,396.734,30.217,397.802,31.235L397.802,31.235z"/>
			<path fill-rule="evenodd" clip-rule="evenodd" fill="#231F20" d="M427.736,31.27c-0.322-0.26-0.867,0.017-0.346,0.658
				c0.557,0.688,1.426,1.908,1.43,4.353c0.006,6.013-4.799,9.892-10.518,9.897c-7.987,0.01-12.25-4.873-21.527-13.888
				c-5.615-5.449-10.627-6.333-13.979-5.61v0.946c3.49,0.005,7.084,2.68,9.463,5.334c1.132,1.267,4.307,4.863,8.093,8.295
				c-9.565,0.45-14.16-3.722-17.548-6.901l0.009,7.475c8.081,4.902,18.331,3.096,20.482,1.938c0.114,0.085,0.222,0.172,0.333,0.258
				c3.542,2.767,8.086,4.502,12.748,4.496C431.503,48.503,431.58,34.374,427.736,31.27L427.736,31.27z"/>
			<path fill-rule="evenodd" clip-rule="evenodd" fill="#FFE989" d="M382.796,26.679c3.793-0.598,7.873,2.342,10.486,5.256
				c1.446,1.618,6.23,7.047,11.367,11.064c3.542,2.768,8.083,4.502,12.75,4.497c15.125-0.017,15.205-14.15,11.357-17.252
				c-0.32-0.258-0.867,0.017-0.346,0.658c0.561,0.688,1.426,1.908,1.43,4.354c0.006,6.013-4.801,9.891-10.518,9.897
				c-7.987,0.009-12.241-4.875-21.529-13.887c-6.215-6.036-11.697-6.472-15-5.322L382.796,26.679L382.796,26.679z"/>
			<path fill-rule="evenodd" clip-rule="evenodd" fill="#FFE989" d="M386.967,24.719c6.493-0.007,10.794,4.474,11.856,5.49
				c3.689,3.52,8.531,8.807,13.002,11.491c5.904,3.551,14.256,2.231,14.248-3.626c0-0.969-0.348-1.859-0.875-2.471
				c-0.271-0.319-0.617-0.055-0.371,0.24c1.188,1.397,0.156,5.68-4.373,5.675c-1.578-0.003-3.602-0.534-6.029-2.104
				c-4.687-3.03-9.912-8.997-13.146-11.675c-4.255-3.528-8.898-4.659-12.801-4.655c-2.488,0.003-4.319,0.475-5.686,0.995
				l0.002,1.359C384.054,24.91,385.474,24.721,386.967,24.719L386.967,24.719z"/>
			<path fill-rule="evenodd" clip-rule="evenodd" fill="#E49F15" d="M425.462,35.953c1.232,2.374,0.205,7.185-6.309,7.191
				c-2.252,0.003-4.691-0.678-6.816-1.957c-4.467-2.686-9.309-7.97-13.002-11.487c-1.068-1.02-5.359-5.502-11.855-5.495
				c-2.021,0.002-3.732,0.421-4.686,0.874v0.361c1.26-0.53,2.68-0.719,4.173-0.721c6.493-0.007,10.794,4.474,11.856,5.49
				c3.689,3.52,8.531,8.807,13.002,11.491c5.904,3.551,14.256,2.231,14.248-3.626C426.074,37.276,425.837,36.532,425.462,35.953
				L425.462,35.953z"/>
			<path fill-rule="evenodd" clip-rule="evenodd" fill="#FFFFFF" d="M425.046,36.186c0.803,1.649-0.385,5.338-4.592,5.333
				c-1.578-0.003-3.602-0.534-6.029-2.104c-4.687-3.03-9.912-8.997-13.146-11.675c-4.255-3.528-8.898-4.659-12.801-4.655
				c-2.488,0.003-4.319,0.475-5.686,0.995l0.001,0.37c1.446-0.543,2.986-0.847,5.173-0.85c3.902-0.004,8.549,1.125,12.798,4.65
				c3.234,2.679,8.462,8.646,13.149,11.677c2.426,1.567,4.453,2.104,6.033,2.102C425.47,42.024,425.988,37.209,425.046,36.186
				L425.046,36.186z"/>
			<path fill-rule="evenodd" clip-rule="evenodd" fill="#FFFFFF" d="M382.795,26.235c3.341-0.932,8.583-0.188,14.492,5.543
				c9.28,9.016,13.534,13.898,21.524,13.89c10.969-0.013,13.061-10.542,9.898-14.371c0.527,0.737,1.127,1.924,1.131,3.961
				c0.006,6.013-4.801,9.891-10.518,9.897c-7.987,0.009-12.241-4.875-21.529-13.887c-6.215-6.036-11.697-6.472-15-5.322
				L382.795,26.235L382.795,26.235z"/>
			<path fill-rule="evenodd" clip-rule="evenodd" fill="#E49F15" d="M382.796,26.679c3.793-0.598,7.873,2.342,10.486,5.256
				c1.446,1.618,6.23,7.047,11.367,11.064c3.542,2.768,8.083,4.502,12.75,4.497c14.295-0.016,15.15-12.638,11.953-16.645
				c0.986,1.272,1.318,3.376,1.32,4.995c0.006,6.356-4.91,11.129-12.762,11.138c-4.664,0.005-9.211-1.73-12.752-4.498
				c-5.141-4.017-9.922-9.445-11.367-11.065c-1.424-1.586-3.279-3.183-5.293-4.206c-1.475-0.757-3.715-1.266-5.704-0.847
				L382.796,26.679L382.796,26.679z"/>
			<path fill-rule="evenodd" clip-rule="evenodd" fill="#E49F15" d="M402.783,43.305c-0.966-0.791-1.912-1.621-2.816-2.452
				c-7.006-0.199-13.564-4.444-17.164-8.606l0.009,7.912C389.265,44.631,398.248,44.525,402.783,43.305L402.783,43.305z"/>
			<path fill-rule="evenodd" clip-rule="evenodd" fill="#FFE989" d="M382.804,33.547c3.26,3.632,10.34,8.113,17.572,7.676
				l-0.41-0.37c-7.006-0.199-13.564-4.444-17.164-8.606L382.804,33.547L382.804,33.547z"/>
			<path fill-rule="evenodd" clip-rule="evenodd" fill="#231F20" d="M410.56,10.667c3.889,4.84,9.188,17.194,0.477,26.227
				c0.657,0.556,1.314,1.078,1.963,1.557c7.299-6.731,8.785-20.181,4.514-27.791L410.56,10.667L410.56,10.667z"/>
			<path fill-rule="evenodd" clip-rule="evenodd" fill="#E49F15" d="M412.285,10.665c4.176,5.703,7.574,17.133-0.229,25.203
				c0.66,0.558,1.317,1.079,1.966,1.557c6.777-6.01,8.551-18.152,5.127-26.768L412.285,10.665L412.285,10.665z"/>
			<path fill-rule="evenodd" clip-rule="evenodd" fill="#FFE989" d="M418.376,10.658c3.17,7.667,2.787,19.639-4.552,26.617
				l0.196,0.149c6.777-6.01,8.551-18.152,5.127-26.768L418.376,10.658L418.376,10.658z"/>
			<g>
				<path fill="#FFFFFF" stroke="#FFFFFF" stroke-width="0.1964" d="M395.237,54.526l0.001,0.428
					c0.481,0.056,0.642,0.038,0.733,0.766c0.095,0.727,0.015,4.684,0.015,4.858c0.004,2.302,1.489,2.786,2.734,2.784
					c0.817,0,2.262-0.195,2.728-1.481c0.333-0.934,0.439-3.324,0.45-4.589c-0.002-0.825,0.008-1.319,0.024-1.614
					c0.031-0.567,0.093-0.645,0.68-0.658l-0.001-0.502c-0.68,0.089-1.651,0.002-2.32,0.003l0.057,0.473
					c0.713,0.039,0.908,0.097,0.911,2.3c0.002,2.054-0.093,3.386-0.296,4.067c-0.35,1.17-1.512,1.263-1.857,1.263
					c-1.065,0.001-1.644-0.566-1.808-1.73c-0.146-1.005-0.101-4.035-0.069-4.56c0.065-1.229,0.295-1.303,1.078-1.376l-0.088-0.435
					C397.24,54.576,396.377,54.558,395.237,54.526z"/>
				<path fill="#FFFFFF" stroke="#FFFFFF" stroke-width="0.1964" d="M405.273,56.838c0.332,0.895,0.617,1.891,0.873,2.782
					c-0.471,0.074-1.177,0.032-1.716-0.066L405.273,56.838z M405.521,54.35c-0.369,1.422-2.238,7.241-2.609,8.009
					c-0.193,0.411-0.484,0.479-0.648,0.521v0.384c0.585-0.056,1.541,0.014,2.197,0.034v-0.422c-0.854-0.157-0.88-0.425-0.752-0.9
					c0.137-0.519,0.454-1.527,0.497-1.658c1.28-0.184,2.118-0.06,2.118-0.06c0.102,0.358,0.395,1.375,0.518,1.877
					c0.062,0.27,0.175,0.606-0.484,0.738l0.001,0.43c1.097-0.14,2.01-0.116,2.562-0.044v-0.388c-0.295-0.057-0.512-0.1-0.818-0.955
					c-0.118-0.324-1.691-5.427-2.212-7.567L405.521,54.35z"/>
				<path fill="#FFFFFF" stroke="#FFFFFF" stroke-width="0.1964" d="M412.744,54.449c-0.396,0.028-2.225,0.073-2.797,0.019v0.443
					c0.588,0.053,0.647,0.246,0.682,0.755c0.017,0.315,0.014,5.021,0.002,5.816c-0.016,1.003-0.167,1.168-0.764,1.261l0.029,0.452
					l2.821-0.003c0.681-0.001,1.602,0.016,2.175,0.176c0,0,0.389-1.611,0.431-2.057l-0.353-0.057
					c-0.142,0.62-0.328,1.267-2.422,1.269c-0.691,0.001-0.674-0.2-0.699-0.772c-0.02-0.399-0.031-5.267,0.094-6.161
					c0.079-0.547,0.264-0.581,0.801-0.669V54.449z"/>
				<path fill="#FFFFFF" stroke="#FFFFFF" stroke-width="0.1964" d="M416.085,54.91c1.021-0.001,0.996,0.352,1.037,0.812
					c0.082,0.898,0.119,5.03-0.012,6.154c-0.078,0.683-0.18,0.764-1.102,0.902v0.458c0.635-0.082,2.277-0.056,3.377-0.008
					l0.025-0.456c-1.064-0.069-0.949-0.39-0.971-0.808c-0.043-0.769-0.08-5.343,0.08-6.384c0.072-0.464,0.076-0.656,0.84-0.605
					v-0.547c-0.713,0.074-2.178,0.076-3.262-0.008L416.085,54.91z"/>
				<path fill="#FFFFFF" stroke="#FFFFFF" stroke-width="0.1964" d="M420.554,54.262c-0.072,0.311-0.219,0.938-0.455,1.689
					l0.375,0.116c0.127-0.411,0.205-0.672,0.791-0.776c0.486-0.09,1.285-0.052,1.645-0.021c0.145,0.829,0.084,5.835,0.074,6.364
					c-0.016,0.73-0.082,0.79-0.434,0.961c-0.178,0.075-0.508,0.201-0.74,0.275l0.125,0.468c1.08-0.222,1.951-0.223,3.389-0.064
					l0.043-0.446c-0.199-0.026-0.576-0.11-0.576-0.11c-0.332-0.086-0.5-0.244-0.512-0.817c-0.068-2.737,0.014-5.476,0.053-6.648
					c0.955-0.064,1.551-0.021,1.912,0.308c-0.006,0.05-0.045,0.571-0.045,0.571l0.434-0.096c0.037-0.479,0.209-1.16,0.314-1.523
					l-0.229-0.176c-0.076,0.06-0.105,0.088-0.252,0.101c-0.842,0.052-4.525,0.107-5.246-0.007c-0.129-0.015-0.312-0.061-0.418-0.168
					H420.554z"/>
				<path fill="#FFFFFF" stroke="#FFFFFF" stroke-width="0.1964" d="M427.863,54.45l0.061,0.447c0.557-0.001,0.705,0.4,1.178,1.135
					c1.111,1.908,1.398,2.501,1.725,3.182c0.008,0.236-0.004,2.57-0.025,2.897c-0.02,0.345,0.004,0.655-0.861,0.747l-0.014,0.426
					c1.256-0.185,2.025-0.097,3.031,0.004l0.029-0.431c-0.625-0.108-0.895-0.242-0.912-0.682c-0.02-0.452-0.029-1.515-0.031-3.079
					c0.33-0.815,1.234-2.611,1.623-3.242c0.5-0.776,0.799-0.821,1.232-0.828l0.012-0.559c-0.779,0.021-1.436,0.059-2.344-0.022
					l-0.045,0.512c0.354,0.016,0.676,0.054,0.676,0.374c0,0.285-0.055,0.405-1.367,3.059c-0.598-0.948-1.479-2.517-1.709-3.068
					c-0.098-0.229-0.113-0.373,0.504-0.373l0.055-0.489C429.419,54.53,429.064,54.476,427.863,54.45z"/>
				<path fill="#FFFFFF" stroke="#FFFFFF" stroke-width="0.1964" d="M391.274,62.525c0.979-0.829,1.504-2.534,1.501-4.724
					c-0.003-3.175-1.112-5.305-2.763-5.303c-1.835,0.002-2.962,2.109-2.958,5.31c0.002,0.945,0.091,1.787,0.262,2.504
					c0.163-0.034,0.333-0.051,0.512-0.051c2.529-0.003,2.998,3.888,5.278,3.885c1.038-0.001,1.602-1.067,1.278-1.79
					c-0.113-0.252,0.097-0.432,0.322-0.179c0.478,0.534,0.346,2.817-1.951,2.819c-2.791,0.004-3.424-4.109-5.278-4.107
					c0.399,1.2,0.989,1.945,1.862,2.131l0.313,0.455c-0.831,0.066-2.305-0.43-3.278-2.047c-0.357,0.437-0.491,1.067-0.272,1.624
					c0.125,0.315-0.231,0.56-0.394,0.13c-0.346-0.848-0.135-1.678,0.41-2.234c-0.371-0.794-0.612-1.812-0.614-3.092
					c-0.003-3.196,2.019-5.74,4.433-5.743c2.257-0.002,4.363,2.021,4.367,5.523c0.002,2.224-1.057,4.329-2.689,5.292L391.274,62.525
					z"/>
			</g>
		</g>
	</g>
</g>
<g>
	<path fill="#AEABA2" d="M437.658,67.871c0-0.359,0.068-0.696,0.207-1.011c0.137-0.315,0.324-0.59,0.56-0.826
		s0.511-0.422,0.826-0.56s0.651-0.207,1.011-0.207s0.697,0.069,1.012,0.207c0.315,0.138,0.591,0.324,0.826,0.56
		c0.236,0.236,0.422,0.511,0.561,0.826c0.137,0.315,0.206,0.652,0.206,1.011s-0.069,0.696-0.206,1.012
		c-0.139,0.315-0.324,0.59-0.561,0.826c-0.235,0.236-0.511,0.422-0.826,0.56c-0.314,0.138-0.652,0.207-1.012,0.207
		s-0.695-0.069-1.011-0.207s-0.591-0.324-0.826-0.56c-0.235-0.235-0.423-0.511-0.56-0.826
		C437.726,68.567,437.658,68.23,437.658,67.871z M438.121,67.871c0,0.294,0.055,0.572,0.168,0.833
		c0.111,0.261,0.264,0.489,0.458,0.683c0.193,0.194,0.421,0.346,0.683,0.458c0.262,0.112,0.539,0.168,0.832,0.168
		c0.295,0,0.572-0.056,0.834-0.168c0.262-0.112,0.488-0.265,0.682-0.458c0.194-0.194,0.348-0.421,0.459-0.683
		c0.112-0.261,0.168-0.539,0.168-0.833s-0.056-0.572-0.168-0.833c-0.111-0.261-0.265-0.489-0.459-0.683
		c-0.193-0.193-0.42-0.346-0.682-0.458c-0.262-0.112-0.539-0.168-0.834-0.168c-0.293,0-0.57,0.056-0.832,0.168
		c-0.262,0.112-0.489,0.265-0.683,0.458c-0.194,0.194-0.347,0.421-0.458,0.683C438.175,67.299,438.121,67.577,438.121,67.871z
		 M439.261,66.366h1.147c0.359,0,0.624,0.077,0.795,0.231c0.17,0.154,0.255,0.375,0.255,0.665c0,0.261-0.066,0.458-0.201,0.588
		c-0.133,0.131-0.303,0.208-0.506,0.231l0.771,1.26h-0.574l-0.741-1.218h-0.399v1.218h-0.546V66.366z M439.807,67.661h0.399
		c0.084,0,0.168-0.003,0.252-0.011c0.084-0.007,0.159-0.024,0.227-0.052c0.068-0.028,0.123-0.07,0.165-0.126
		s0.063-0.133,0.063-0.231s-0.021-0.175-0.063-0.231c-0.042-0.056-0.097-0.098-0.165-0.126c-0.067-0.028-0.143-0.044-0.227-0.049
		c-0.084-0.004-0.168-0.007-0.252-0.007h-0.399V67.661z"/>
</g>
<g>
	<path fill-rule="evenodd" clip-rule="evenodd" fill="#910028" d="M374.501,63.341c0.004,3.75-3.061,6.875-6.811,6.879h-41.062
		c-3.75,0.004-6.818-3.067-6.818-6.817V22.406c0-3.75,3.068-6.813,6.818-6.818h41.002c3.748-0.004,6.82,3.007,6.824,6.757
		L374.501,63.341z"/>
	<path fill="#FFFFFF" d="M333.365,53.165l0.504-3.22l-3.727-0.032c-1.119,0.109-2.566-0.143-3.758,1.269
		c-1.156,1.776-1.48,3.333-1.115,5.463c0.328,1.592,1.414,2.097,3.256,2.094l4.014-0.004l0.465-2.964H332.5
		c-0.721,2.207-2.309,3.472-4.084,2.211c-1.736-1.339-0.225-7.379,1.836-7.743c1.59-0.291,2.785,0.685,2.643,2.928L333.365,53.165z"
		/>
	<path fill="#FFFFFF" d="M334.048,49.476l0.072-0.183l3.182-0.004l-1.221,8.067c-0.072,0.723-0.143,0.651,0.832,0.793l-0.074,0.361
		l-2.383,0.257c-0.652-0.072-0.652-0.541-0.58-1.086l1.223-7.521C335.132,49.584,334.626,49.62,334.048,49.476z"/>
	<path fill="#FFFFFF" d="M351.119,52.672l-0.035-0.18l3.145-0.003l-1.15,4.991c-0.074,0.687,0.18,0.687,0.613,0.686l-0.072,0.254
		l-2.277,0.292c-0.686-0.073-0.541-0.505-0.469-1.05l1.189-4.52C352.06,52.746,351.589,52.782,351.119,52.672z"/>
	<path fill="#FFFFFF" d="M343.494,57.565l0.18-1.012l0.432-2.715c0.395-2.096-4.736-1.403-5.277-1.152
		c-1.846,1.089-0.219,2.896,0.939,1.737c0.287-0.362,0.324-0.615,0.395-1.052c0.074-0.504,1.555-0.579,1.773,0.107
		c0.072,0.614-0.182,1.122-0.432,1.232c-2.023,0.832-2.531,0.182-3.725,0.979c-0.215,0.145-0.434,0.47-0.541,0.87
		c-0.18,0.505-0.217,1.084,0.041,1.518c0.686,1.228,2.857,1.369,4.193-0.005c0,0.36,0.035,0.832,0.758,0.831l1.953-0.365
		l0.035-0.324C343.748,58.178,343.496,58.035,343.494,57.565z M341.47,57.061c-0.107,0.326-0.182,0.434-0.543,0.759
		c-0.396,0.326-1.045,0.4-1.338,0.292c-0.396-0.144-0.506-0.905-0.256-1.554c0.111-0.254,0.291-0.509,0.508-0.655
		c0.434-0.215,1.408-0.795,1.951-0.94l-0.252,1.594L341.47,57.061z"/>
	<path fill="#FFFFFF" d="M344.904,58.719l1.99-0.002l0.826-5.1c0.541-0.613,1.121-0.396,1.305,0.396
		c0.18,0.435,0.867,0.544,1.301,0.325c0.576-0.327,0.723-1.41,0.105-1.735c-0.76-0.326-1.846-0.395-2.604,0.437l0.074-0.543
		l-2.859,0.003l-0.072,0.18c0.51,0.109,0.938,0.036,0.83,0.507L344.904,58.719z"/>
	<path fill="#FFFFFF" d="M360.919,52.952c-1.016-0.648-4.234-0.971-5.314,0.188c-0.58,0.615-0.975,1.52-1.086,2.425
		c-0.143,1.229,0.258,2.458,1.414,2.926c1.193,0.435,2.857,0.36,3.762-0.076c0.902-0.398,1.479-1.629,1.695-2.857
		C361.609,54.399,361.46,53.28,360.919,52.952z M358.283,57.8c-0.504,0.437-0.938,0.508-1.373-0.034
		c-0.182-0.253-0.219-1.121-0.002-2.17c0.146-0.688,0.357-1.482,0.721-2.205c0.359-0.544,1.336-0.617,1.594-0.075
		c0.178,0.434,0.145,1.337-0.035,2.243C359.005,56.571,358.644,57.582,358.283,57.8z"/>
	<path fill="#FFFFFF" d="M368.876,58.224c-0.32-0.036-0.756,0.001-0.756-0.544l0.574-3.796c0.357-1.592-3.004-1.517-3.871-0.647
		l0.143-0.76l-3.182,0.004v0.18c0.328,0.109,1.012,0.035,0.941,0.507l-0.861,5.533l2.098-0.003l0.684-4.558
		c0.178-0.938,2.168-1.194,1.986,0.18l-0.572,3.689c-0.035,0.36,0.18,0.687,0.613,0.686l2.17-0.22L368.876,58.224z"/>
	<path fill="#FFFFFF" d="M353.324,51.624c0.65-0.001,1.191-0.507,1.189-1.123c0-0.651-0.543-1.154-1.191-1.154
		c-0.688,0.001-1.193,0.506-1.191,1.156C352.13,51.12,352.636,51.624,353.324,51.624z"/>
	<path fill="#FEC558" d="M348.658,24.354c3.602,0.429,7.205,3.158,8.475,6.64c0.168,0.534,0.402,1.065,0.418,1.648l-6.363,1.776
		c-2.115,0.634-4.299,1.286-6.715,1.106c-0.332-0.052-0.734-0.167-0.85-0.516c0.15-0.983,1.297-1.401,1.965-1.985
		c2.012-1.12,4.131-1.955,6.361-2.524c0.066-0.617,0.182-1.267,0.131-1.883c-0.314-0.101-0.547,0.183-0.848,0.116l-8.715,2.195
		c-0.467,0.149-1,0.166-1.432,0.384c-1.268,0.235-2.467,0.635-3.734,0.871c0.682-3.501,3.91-6.771,7.406-7.575
		c1.236-0.284,2.602-0.402,3.9-0.287V24.354z"/>
	<path fill="#FEC558" d="M344.75,31.325c-2.215,1.22-4.76,2.988-5.225,5.623c-0.082,0.832,0.234,1.549,0.836,2.113
		c2.352,1.865,5.951,0.96,8.602,0.457c2.814-0.635,5.629-1.322,8.459-1.893c-0.213,1.018-0.711,2.019-1.295,2.919
		c-2.428,3.604-6.58,5.143-10.777,4.328c-3.516-0.694-6.787-3.592-7.822-7.04c-0.484-1.451-0.604-3.032-0.373-4.616
		C339.669,32.529,342.22,31.943,344.75,31.325z"/>
</g>
<g>
	<path fill="#AEABA2" d="M374.673,67.871c0-0.359,0.069-0.696,0.207-1.011c0.138-0.315,0.324-0.59,0.561-0.826
		c0.235-0.236,0.511-0.422,0.826-0.56c0.314-0.138,0.651-0.207,1.011-0.207s0.696,0.069,1.012,0.207s0.591,0.324,0.826,0.56
		s0.422,0.511,0.56,0.826c0.138,0.315,0.207,0.652,0.207,1.011s-0.069,0.696-0.207,1.012c-0.138,0.315-0.324,0.59-0.56,0.826
		c-0.235,0.236-0.511,0.422-0.826,0.56s-0.652,0.207-1.012,0.207s-0.696-0.069-1.011-0.207c-0.315-0.138-0.591-0.324-0.826-0.56
		c-0.236-0.235-0.423-0.511-0.561-0.826C374.743,68.567,374.673,68.23,374.673,67.871z M375.136,67.871
		c0,0.294,0.056,0.572,0.168,0.833c0.111,0.261,0.265,0.489,0.459,0.683c0.193,0.194,0.42,0.346,0.682,0.458
		c0.262,0.112,0.539,0.168,0.833,0.168s0.571-0.056,0.833-0.168c0.262-0.112,0.488-0.265,0.683-0.458s0.347-0.421,0.458-0.683
		c0.113-0.261,0.168-0.539,0.168-0.833s-0.055-0.572-0.168-0.833c-0.111-0.261-0.264-0.489-0.458-0.683
		c-0.194-0.193-0.421-0.346-0.683-0.458c-0.262-0.112-0.539-0.168-0.833-0.168s-0.571,0.056-0.833,0.168
		c-0.262,0.112-0.488,0.265-0.682,0.458c-0.194,0.194-0.348,0.421-0.459,0.683C375.192,67.299,375.136,67.577,375.136,67.871z
		 M376.277,66.366h1.148c0.359,0,0.624,0.077,0.795,0.231c0.17,0.154,0.255,0.375,0.255,0.665c0,0.261-0.067,0.458-0.201,0.588
		c-0.134,0.131-0.303,0.208-0.506,0.231l0.771,1.26h-0.574l-0.742-1.218h-0.398v1.218h-0.547V66.366z M376.824,67.661h0.398
		c0.084,0,0.168-0.003,0.252-0.011c0.084-0.007,0.16-0.024,0.228-0.052s0.122-0.07,0.165-0.126c0.041-0.056,0.062-0.133,0.062-0.231
		s-0.021-0.175-0.062-0.231c-0.043-0.056-0.098-0.098-0.165-0.126c-0.067-0.028-0.144-0.044-0.228-0.049
		c-0.084-0.004-0.168-0.007-0.252-0.007h-0.398V67.661z"/>
</g>
<path fill-rule="evenodd" clip-rule="evenodd" fill="#25358E" d="M564.355,63.341c0,3.75-3.068,6.875-6.818,6.879h-40.998
	c-3.75,0.005-6.816-3.067-6.816-6.817V22.406c0-3.75,3.066-6.817,6.816-6.817h40.998c3.75,0,6.818,3.067,6.818,6.817V63.341z"/>
<g>
	<path fill-rule="evenodd" clip-rule="evenodd" fill="#F6D809" d="M550.921,37.442c-0.66-5.216-2.43-9.051-7.168-12.959
		c-3.91-3.222-8.848-4.532-13.779-3.846c-4.93,0.688-9.244,3.413-12.268,7.547c-0.016,0.029-0.148,0.283-0.148,0.283l0.293,0.181
		l1.088-1.113l1.193-1.007l1.283-0.887l1.371-0.751l1.453-0.614l1.529-0.467l1.598-0.309l1.615-0.14l1.59,0.032l1.553,0.194
		l1.514,0.353l1.457,0.5l1.402,0.646l1.33,0.778l1.252,0.904l1.164,1.028l1.064,1.143l0.959,1.249l0.84,1.345l0.73,1.441
		l0.543,1.613l0.453,1.894l0.482,2.46l0.182-0.005l5.572-0.006L550.921,37.442L550.921,37.442z"/>
	<g>
		<defs>
			<path id="SVGID_3_" d="M550.921,37.442c-0.66-5.216-2.43-9.051-7.168-12.959c-3.91-3.222-8.848-4.532-13.779-3.846
				c-4.93,0.688-9.244,3.413-12.268,7.547c-0.016,0.029-0.148,0.283-0.148,0.283l0.293,0.181l1.088-1.113l1.193-1.007l1.283-0.887
				l1.371-0.751l1.453-0.614l1.529-0.467l1.598-0.309l1.615-0.14l1.59,0.032l1.553,0.194l1.514,0.353l1.457,0.5l1.402,0.646
				l1.33,0.778l1.252,0.904l1.164,1.028l1.064,1.143l0.959,1.249l0.84,1.345l0.73,1.441l0.543,1.613l0.453,1.894l0.482,2.46
				l0.182-0.005l5.572-0.006L550.921,37.442L550.921,37.442z"/>
		</defs>
		<clipPath id="SVGID_4_">
			<use xlink:href="#SVGID_3_"  overflow="visible"/>
		</clipPath>
		<g clip-path="url(#SVGID_4_)">
			<defs>
				
					<rect id="SVGID_5_" x="524.808" y="12.703" transform="matrix(0.0011 1 -1 0.0011 563.1577 -504.8894)" width="19.003" height="33.5"/>
			</defs>
			<clipPath id="SVGID_6_">
				<use xlink:href="#SVGID_5_"  overflow="visible"/>
			</clipPath>
			<g transform="matrix(1 0 0 1 0 0)" clip-path="url(#SVGID_6_)">
				
					<image overflow="visible" width="232" height="132" xlink:href="432C23BAAA125B2D.png"  transform="matrix(0.1485 -1.670000e-04 -1.670000e-04 -0.1485 517.1733 39.4058)">
				</image>
			</g>
		</g>
		<g clip-path="url(#SVGID_4_)">
			<defs>
				
					<rect id="SVGID_7_" x="524.808" y="12.703" transform="matrix(0.0011 1 -1 0.0011 563.1577 -504.8894)" width="19.003" height="33.5"/>
			</defs>
			<clipPath id="SVGID_8_">
				<use xlink:href="#SVGID_7_"  overflow="visible"/>
			</clipPath>
			<g transform="matrix(1 0 0 1 0 0)" clip-path="url(#SVGID_8_)">
				
					<image overflow="visible" width="232" height="132" xlink:href="432C23BAAA125B2F.png"  transform="matrix(0.1485 -1.670000e-04 -1.670000e-04 -0.1485 517.1733 39.4058)">
				</image>
			</g>
		</g>
	</g>
	<path fill-rule="evenodd" clip-rule="evenodd" fill="#FFFFFF" d="M525.566,48.006c0.004,3.018-2.203,5.291-5.131,5.295
		c-0.918,0.001-2.008-0.365-2.729-0.611c-0.357-0.123-0.643-0.213-0.75-0.213c-0.195,0-0.369,0.121-0.482,0.327l-0.004,0.01h-0.506
		l-0.537-4.72l0.564-0.001v0.016c0.51,2.627,2.166,4.316,4.219,4.313c1.707-0.002,3.436-1.241,3.432-3.609
		c-0.002-2.097-1.811-3.495-3.723-4.978c-2.129-1.647-4.328-3.353-4.332-6.188c-0.002-2.555,1.922-4.486,4.48-4.489
		c1.279-0.002,1.934,0.276,2.463,0.504c0.338,0.146,0.604,0.262,0.941,0.262c0.197-0.001,0.291-0.065,0.43-0.298l0.01-0.015
		l0.479-0.001l0.436,3.956l-0.514,0.001l-0.006-0.015c-0.695-2.198-2.275-3.615-4.018-3.613c-1.637,0.002-2.783,1.185-2.781,2.872
		c0.004,2.038,1.766,3.378,3.629,4.8C523.312,43.271,525.562,44.988,525.566,48.006L525.566,48.006z"/>
	<path fill-rule="evenodd" clip-rule="evenodd" fill="#FFFFFF" d="M533.365,47.348l-0.008,0.013
		c-0.809,1.676-1.199,1.822-2.816,1.824c-0.35,0-0.822,0-1.137-0.164c-0.137-0.065-0.137-0.074-0.137-0.633l-0.008-7.156
		c-0.002-1.307,0.047-1.343,1.66-1.374h0.025l-0.002-0.522l-4.885,0.006l0.002,0.522h0.021c0.795-0.012,1.162,0.056,1.355,0.254
		c0.223,0.222,0.225,0.64,0.225,1.329l0.008,6.514c0,1.093-0.145,1.369-1.518,1.371h-0.02v0.525l6.889-0.008l0.818-2.501H533.365
		L533.365,47.348z"/>
	<path fill-rule="evenodd" clip-rule="evenodd" fill="#FFFFFF" d="M549.927,47.251c-0.402,1.773-0.879,1.855-1.838,1.857
		l-1.664,0.002c-0.373,0-0.576,0-0.686-0.105c-0.107-0.11-0.115-0.345-0.115-0.85c0,0-0.004-3.31-0.004-3.355
		c0.041,0,2.068-0.002,2.068-0.002c1.057-0.002,1.258,0.044,1.297,1.331l0.006,0.021l0.488-0.001l-0.004-3.273l-0.488,0.001V42.9
		c-0.08,1.219-0.346,1.211-1.037,1.212h-0.111c0,0-2.178,0.003-2.219,0.003c0-0.045-0.006-4.097-0.006-4.138
		c0.041,0,2.207-0.003,2.207-0.003c1.031-0.001,1.369,0.069,1.602,1.656l0.006,0.016h0.453l-0.096-2.332l-7.289,0.009l0.002,0.522
		h0.023c0.59-0.012,0.996,0.027,1.227,0.254c0.193,0.193,0.266,0.518,0.268,1.116l0.008,6.748c0,0.53-0.041,0.879-0.266,1.098
		c-0.215,0.218-0.592,0.302-1.227,0.276h-0.023v0.501l7.697-0.009l0.191-2.595l-0.469,0.001L549.927,47.251L549.927,47.251z"/>
	<path fill-rule="evenodd" clip-rule="evenodd" fill="#FFFFFF" d="M541.371,47.261c-0.396,1.773-0.879,1.855-1.842,1.857
		l-1.656,0.001c-0.377,0.001-0.582,0.001-0.688-0.104c-0.107-0.11-0.119-0.345-0.119-0.85c0,0-0.004-3.31-0.004-3.355
		c0.039,0,2.072-0.003,2.072-0.003c1.051-0.001,1.252,0.045,1.297,1.331v0.021h0.488l-0.004-3.273l-0.488,0.001v0.022
		c-0.08,1.219-0.342,1.211-1.035,1.212h-0.113c0,0-2.178,0.003-2.219,0.003c0-0.045-0.004-4.097-0.004-4.138
		c0.041,0,2.205-0.003,2.205-0.003c1.033-0.001,1.369,0.068,1.607,1.656l0.002,0.016h0.449l-0.09-2.332l-7.291,0.008v0.523h0.021
		c0.59-0.012,1.002,0.027,1.232,0.254c0.189,0.193,0.268,0.518,0.27,1.116l0.006,6.748c0.002,0.53-0.041,0.879-0.264,1.097
		c-0.221,0.219-0.596,0.303-1.234,0.277h-0.021l0.002,0.501l7.693-0.009l0.199-2.595l-0.473,0.001V47.261L541.371,47.261z"/>
	<path fill-rule="evenodd" clip-rule="evenodd" fill="#FFFFFF" d="M554.24,45.281c0,0.062,0.002,2.693,0.002,2.693
		c0.002,1.184,0.121,1.269,1.797,1.312l0.025,0.004v0.533l-4.959,0.006v-0.525h0.023c0.645,0.023,1.021-0.058,1.234-0.271
		c0.221-0.215,0.262-0.57,0.262-1.101l-0.008-6.866c0-0.523-0.002-1.175-0.922-1.174c-0.238,0-0.541,0.021-0.658,0.044l-0.029,0.007
		v-0.509h0.021c0.676-0.083,2.369-0.244,3.93-0.246c2.625-0.003,3.961,1.031,3.963,3.075c0.002,1.865-1.377,3.275-3.209,3.277
		C555.15,45.542,554.636,45.405,554.24,45.281L554.24,45.281z M555.328,44.969c1.811-0.002,1.939-2.033,1.938-2.652
		c0-0.617-0.156-2.609-2.201-2.606c-0.314,0-0.641,0.023-0.832,0.044c0,0.044,0.006,5.019,0.006,5.056
		C554.572,44.908,554.886,44.97,555.328,44.969L555.328,44.969z"/>
	<path fill-rule="evenodd" clip-rule="evenodd" fill="#FFFFFF" d="M528.023,60.012l-0.006-5.307c-0.002-1.24-0.002-1.262,1.211-1.32
		l0.195-0.002v-0.539l-4.355,0.005v0.534l0.197,0.006h0.01c1.049,0.078,1.273,0.089,1.275,1.338l0.006,5.24
		c0.002,1.374-0.186,1.38-1.227,1.419l-0.178,0.002h-0.02v0.549l4.367-0.005v-0.549l-0.189-0.002
		C528.226,61.304,528.025,61.25,528.023,60.012L528.023,60.012z"/>
	<path fill-rule="evenodd" clip-rule="evenodd" fill="#FFFFFF" d="M537.037,52.835v0.541h0.197c0.105-0.001,0.637,0.025,0.764,0.05
		c0.518,0.051,0.518,0.521,0.52,1.055c0,0,0.004,4.679,0.006,4.802c-0.039-0.045-0.09-0.108-0.09-0.108
		c-0.256-0.319-0.93-1.188-5.021-6.324l-0.01-0.011l-2.541,0.003v0.54l0.197,0.001c0.729,0.036,1.176,0.056,1.178,1.163l0.006,5.716
		c0,0.431-0.035,0.715-0.201,0.884c-0.182,0.176-0.512,0.26-0.988,0.249l-0.201-0.009v0.544l3.783-0.004V61.39l-0.199,0.001
		c-1.246-0.022-1.406-0.078-1.408-1.374c0,0-0.006-5.085-0.006-5.213c0.074,0.1,5.693,7.178,5.693,7.178l0.596-0.001l-0.008-7.501
		c0-0.434,0.033-0.722,0.201-0.883c0.164-0.173,0.484-0.241,0.986-0.225h0.203v-0.541L537.037,52.835L537.037,52.835z"/>
	<path fill-rule="evenodd" clip-rule="evenodd" fill="#FFFFFF" d="M551.566,52.819l-3.631,0.004v0.541h0.197
		c0.105,0,0.637,0.026,0.762,0.05c0.521,0.051,0.521,0.521,0.523,1.055c0,0,0.006,4.68,0.006,4.802
		c-0.039-0.041-0.084-0.1-0.084-0.1c-0.25-0.318-0.912-1.165-5.027-6.332l-0.008-0.011l-2.545,0.003v0.539l0.197,0.001
		c0.734,0.037,1.174,0.057,1.174,1.164l0.008,5.715c0,0.431-0.033,0.716-0.201,0.885c-0.178,0.176-0.51,0.26-0.984,0.248
		l-0.203-0.008v0.544l3.783-0.005v-0.535h-0.201c-1.244-0.022-1.402-0.078-1.404-1.374c0,0-0.006-5.085-0.006-5.212
		c0.074,0.099,5.691,7.177,5.691,7.177l0.596-0.001l-0.008-7.501c0-0.434,0.033-0.722,0.197-0.883
		c0.172-0.173,0.488-0.24,0.99-0.225h0.203v-0.541H551.566L551.566,52.819z"/>
</g>
<g>
	<path fill="#AEABA2" d="M564.55,67.871c0-0.359,0.069-0.696,0.207-1.011c0.138-0.315,0.324-0.59,0.561-0.826
		c0.235-0.236,0.511-0.422,0.826-0.56c0.314-0.138,0.651-0.207,1.011-0.207s0.696,0.069,1.012,0.207s0.591,0.324,0.826,0.56
		s0.422,0.511,0.56,0.826c0.138,0.315,0.207,0.652,0.207,1.011s-0.069,0.696-0.207,1.012c-0.138,0.315-0.324,0.59-0.56,0.826
		c-0.235,0.236-0.511,0.422-0.826,0.56s-0.652,0.207-1.012,0.207s-0.696-0.069-1.011-0.207c-0.315-0.138-0.591-0.324-0.826-0.56
		c-0.236-0.235-0.423-0.511-0.561-0.826C564.62,68.567,564.55,68.23,564.55,67.871z M565.013,67.871
		c0,0.294,0.056,0.572,0.168,0.833c0.111,0.261,0.265,0.489,0.459,0.683c0.193,0.194,0.42,0.346,0.682,0.458
		c0.262,0.112,0.539,0.168,0.833,0.168s0.571-0.056,0.833-0.168c0.262-0.112,0.488-0.265,0.683-0.458s0.347-0.421,0.458-0.683
		c0.113-0.261,0.168-0.539,0.168-0.833s-0.055-0.572-0.168-0.833c-0.111-0.261-0.264-0.489-0.458-0.683
		c-0.194-0.193-0.421-0.346-0.683-0.458c-0.262-0.112-0.539-0.168-0.833-0.168s-0.571,0.056-0.833,0.168
		c-0.262,0.112-0.488,0.265-0.682,0.458c-0.194,0.194-0.348,0.421-0.459,0.683C565.069,67.299,565.013,67.577,565.013,67.871z
		 M566.154,66.366h1.148c0.359,0,0.624,0.077,0.795,0.231c0.17,0.154,0.255,0.375,0.255,0.665c0,0.261-0.067,0.458-0.201,0.588
		c-0.134,0.131-0.303,0.208-0.506,0.231l0.771,1.26h-0.574l-0.742-1.218h-0.398v1.218h-0.547V66.366z M566.701,67.661h0.398
		c0.084,0,0.168-0.003,0.252-0.011c0.084-0.007,0.16-0.024,0.228-0.052s0.122-0.07,0.165-0.126c0.041-0.056,0.062-0.133,0.062-0.231
		s-0.021-0.175-0.062-0.231c-0.043-0.056-0.098-0.098-0.165-0.126c-0.067-0.028-0.144-0.044-0.228-0.049
		c-0.084-0.004-0.168-0.007-0.252-0.007h-0.398V67.661z"/>
</g>
<path fill="#6E6858" d="M311.749,63.318c0,3.796-3.133,6.902-6.963,6.902h-62.465c-3.83,0-6.963-3.106-6.963-6.902V22.49
	c0-3.797,3.133-6.902,6.963-6.902h62.465c3.83,0,6.963,3.105,6.963,6.902V63.318z"/>
<g>
	<path fill-rule="evenodd" clip-rule="evenodd" fill="#FFFFFF" d="M270.325,27.175c-2.179,0-3.376,2.289-6.511,6.87
		c-1.429,2.09-3.631,5.683-6.026,5.683c-1.008,0-2.604-0.991-2.604-2.914c0-2.049,0.821-2.619,1.118-2.619
		c0.469,0,0.486,0.88,1.067,0.88c0.218,0,0.7-0.254,0.7-0.849c0-0.782-0.61-1.079-1.078-1.079c-1.693,0-2.32,2.348-2.32,3.768
		s0.668,3.903,2.99,3.903c2.324,0,3.859-2.541,5.217-4.408c0.223-0.301,0.477-0.658,0.746-1.041h2.732
		c-0.625,1.346-1.342,3.002-1.342,4.103c0,0.679,0.256,1.208,1.064,1.208c0.695,0,1.351-1.05,1.351-1.05s-0.188-0.182-0.3-0.283
		c-0.107,0.131-0.494,0.7-0.723,0.7c-0.363,0,0.024-1.21,0.332-2.194c0.303-0.981,1.529-3.869,2.32-5.733
		c0.502-1.184,1.615-3.484,2.273-4.42C271.638,27.265,271.099,27.175,270.325,27.175z M270.468,27.954
		c-1.203,1.523-3.285,5.618-3.578,6.264c-0.08,0.174-0.17,0.367-0.265,0.57h-2.597c1.322-1.902,2.914-4.274,3.601-5.244
		C268.978,27.64,270.866,27.452,270.468,27.954z"/>
	<path fill-rule="evenodd" clip-rule="evenodd" fill="#FFFFFF" d="M268.583,36.714c0.257,0.129-0.07,1.871,0.858,1.871
		c0.737,0,1.06-0.818,1.06-1.208c0-0.862-0.918-1.83-0.918-2.699c0-0.864,0.996-2.323,2.301-2.323c1.062,0,1.302,0.427,1.302,0.589
		c0,0.235-0.483,1.258-0.749,1.258c-0.217,0-0.082-1.501-0.854-1.501c-0.678,0-0.905,0.806-0.905,1.134
		c0,0.74,0.905,1.706,0.905,2.784s-1.031,2.324-2.406,2.324c-1.004,0-1.322-0.434-1.322-0.757
		C267.855,37.999,268.199,36.521,268.583,36.714z"/>
	<path fill-rule="evenodd" clip-rule="evenodd" fill="#FFFFFF" d="M276.464,34.265c0.41,0,0.861-0.398,0.861-1.007
		c0-0.735-0.481-0.856-1.113-0.856c-1.83,0-4.305,2.738-4.305,5.134c0,1.131,0.482,1.407,1.314,1.407
		c1.353,0,2.376-1.589,2.878-2.422c-0.054-0.032-0.104-0.088-0.169-0.146c-0.25,0.319-1.103,1.818-2.19,1.818
		c-0.774,0-0.712-0.565-0.712-0.71c0-1.074,1.668-4.718,2.879-4.718c0.328,0,0.32,0.249,0.275,0.45
		C276.138,33.422,275.843,34.265,276.464,34.265z"/>
	<path fill="#FFFFFF" d="M277.607,36.142c3.709-0.147,3.976-2.069,3.976-2.675c0-0.732-0.453-1.034-1.088-1.034
		c-1.828,0-4.385,2.699-4.385,5.098c0,1.129,0.438,1.403,1.351,1.403c1.352,0,2.374-1.589,2.877-2.419
		c-0.053-0.034-0.105-0.09-0.171-0.147c-0.251,0.319-1.103,1.815-2.19,1.815c-0.775,0-0.711-0.561-0.711-0.708
		C277.265,37.181,277.396,36.689,277.607,36.142z M280.285,32.824c0.796,0,0.235,2.763-2.571,3.054
		C278.299,34.481,279.365,32.824,280.285,32.824z"/>
	<path fill-rule="evenodd" clip-rule="evenodd" fill="#FFFFFF" d="M283.265,38.557c0,0.321,0.066,0.446,0.373,0.446
		c1.141,0,2.145-1.549,2.646-2.379c-0.05-0.035-0.104-0.088-0.168-0.146c-0.253,0.32-1.188,1.663-1.555,1.663
		c-0.595,0,2.233-4.068,2.233-5.079c0-0.526-0.45-0.578-0.675-0.578c-1.136,0-2.948,2.733-3.092,2.733
		c-0.18,0,0.886-1.547,0.886-2.17c0-0.384-0.058-0.579-0.354-0.579c-0.836,0-1.924,1.45-2.376,1.985l-0.119,0.431
		c0.251-0.206,1.735-2.129,1.735-1.354c0,0.5-2.275,4.61-2.56,5.326c0.368,0,0.69,0,0.938,0c0.333-0.676,3.111-5.646,4.344-5.646
		C286.537,33.21,283.265,37.342,283.265,38.557z"/>
	<path fill-rule="evenodd" clip-rule="evenodd" fill="#FFFFFF" d="M289.732,38.229c-0.381,0,4.085-8.491,4.16-8.823
		c0.05-0.206-0.323,0.136-0.859,0.249c-0.392,0.08-1.578,0.156-1.143,0.32c0.209,0.079,0.596,0.065,0.471,0.428
		c-0.152,0.452-0.99,2.346-1.121,2.346c-0.135,0-0.283-0.19-0.611-0.19c-2.166,0-4.811,3.746-4.811,5.78
		c0,0.519,0.252,0.749,0.586,0.749c1.291,0,2.777-2.5,3.051-2.609c0.143-0.058-0.881,1.548-0.881,2.203
		c0,0.382,0.246,0.414,0.397,0.414c0.944,0,1.9-1.641,2.402-2.471c-0.052-0.035-0.104-0.088-0.169-0.146
		C290.952,36.798,290.098,38.229,289.732,38.229z M287.21,38.188c-0.515,0-0.166-1.478,1.07-3.212
		c1.471-2.068,2.185-2.182,2.581-1.978c0.46,0.232-0.972,2.321-1.291,2.76C289.466,35.901,287.867,38.188,287.21,38.188z"/>
	<path fill="#FFFFFF" d="M267.089,48.028c-1.031,0-2.072-0.336-2.415-1.134c-0.254-0.595-0.108-1.485,0.387-2.007
		c0.515-0.543,1.114-0.775,1.872-0.785c-0.002-0.021-0.002-0.041-0.002-0.061c0.007-1.047,0.457-2.009,2.615-2.073
		c1.998-0.061,4.127,1.297,6.648,2.432c1.158-0.236,2.199-0.392,2.674-0.371c1.426,0.056,1.9,0.442,1.943,1.556
		c1.725-0.335,2.007-1.453,1.914-2.128c-0.105-0.751-0.877-1.173-1.758-1.173c-1.695,0-2.234,0.94-2.238,0.951
		c-0.022,0.037-0.067,0.051-0.103,0.033c-0.036-0.023-0.05-0.067-0.03-0.104c0.023-0.046,0.592-1.05,2.377-1.05
		c0.965,0,1.914,0.57,2.132,1.378c0.198,0.729-0.109,2.099-2.294,2.475c0.006,0.068,0,0.126,0,0.174
		c0,0.551-0.334,1.774-2.567,1.793c-0.01,0-0.021,0-0.032,0c-1.613,0-3.705-0.906-5.676-1.809c-0.355-0.161-0.707-0.289-1.061-0.447
		c-1.057,0.254-1.436,0.418-2.353,0.437c-1.507,0.026-2.116-0.899-2.175-1.708c-0.721,0.012-1.1,0.232-1.585,0.74
		c-0.448,0.474-0.507,1.095-0.28,1.629c0.321,0.746,1.031,1.102,2.006,1.102c1.681,0,2.228-0.938,2.232-0.946
		c0.021-0.036,0.066-0.05,0.102-0.029c0.039,0.022,0.051,0.067,0.031,0.101C269.431,47.046,268.865,48.028,267.089,48.028z
		 M271.844,45.558c0.292,0.129,0.605,0.264,0.899,0.397c1.953,0.892,3.895,1.77,5.478,1.77c0.011,0,0.022,0,0.032,0
		c1.482-0.063,2.227-0.75,2.227-1.59c0-0.051,0.005-0.094,0-0.155c-0.018,0-0.035,0-0.055,0c-1.215,0-2.588-0.621-4.126-1.28
		C275.623,44.837,272.591,45.405,271.844,45.558z M267.382,44.396c0.171,1.922,2.633,1.243,3.625,1.05
		C269.746,44.824,268.566,44.422,267.382,44.396z M276.734,44.618c1.453,0.611,2.525,1.009,3.66,1.009c0.014,0,0.085,0,0.098,0
		c0.019-0.879-0.41-1.335-1.642-1.35C278.439,44.274,277.778,44.406,276.734,44.618z M267.376,44.107
		c1.266,0.027,2.502,0.541,4.045,1.227c0.801-0.161,3.799-0.725,4.404-0.851c-2.41-1.205-4.503-2.386-6.279-2.315
		c-1.93,0.077-2.17,1.021-2.17,1.877C267.376,44.067,267.376,44.088,267.376,44.107z"/>
	<g>
		<path fill="#FFFFFF" d="M254.242,52.129h0.482v1.14h1.27v-1.14h0.482v2.858h-0.482v-1.259h-1.27v1.259h-0.482V52.129z"/>
		<path fill="#FFFFFF" d="M258.597,52.058c0.846-0.019,1.444,0.578,1.444,1.496c0,0.891-0.599,1.489-1.444,1.506
			c-0.834,0-1.432-0.596-1.432-1.487C257.166,52.654,257.763,52.058,258.597,52.058z M258.602,54.6c0.563,0,0.934-0.451,0.934-1.061
			c0-0.569-0.37-1.021-0.934-1.021c-0.562,0-0.931,0.451-0.931,1.021C257.671,54.148,258.041,54.6,258.602,54.6z"/>
		<path fill="#FFFFFF" d="M261.251,52.589h-0.833v-0.46h2.146v0.46h-0.832v2.398h-0.48V52.589z"/>
		<path fill="#FFFFFF" d="M263.125,52.129h1.797v0.46h-1.315v0.703h1.243v0.46h-1.243v0.775h1.384v0.46h-1.865V52.129z"/>
		<path fill="#FFFFFF" d="M265.695,52.129h0.482v2.398h1.152v0.46h-1.635V52.129z"/>
		<path fill="#FFFFFF" d="M271.139,52.799c-0.198-0.222-0.382-0.28-0.571-0.28c-0.557,0-0.932,0.451-0.932,1.021
			c0,0.609,0.375,1.061,0.932,1.061c0.219,0,0.432-0.104,0.61-0.345l0.396,0.296c-0.242,0.356-0.611,0.509-1.01,0.509
			c-0.834,0-1.432-0.596-1.432-1.487c0-0.918,0.598-1.515,1.432-1.515c0.367,0,0.682,0.124,0.951,0.452L271.139,52.799z"/>
		<path fill="#FFFFFF" d="M273.418,52.058c0.847-0.019,1.445,0.578,1.445,1.496c0,0.891-0.599,1.489-1.445,1.506
			c-0.834,0-1.433-0.596-1.433-1.487C271.986,52.654,272.584,52.058,273.418,52.058z M273.423,54.6c0.562,0,0.935-0.451,0.935-1.061
			c0-0.569-0.372-1.021-0.935-1.021c-0.559,0-0.93,0.451-0.93,1.021C272.494,54.148,272.865,54.6,273.423,54.6z"/>
		<path fill="#FFFFFF" d="M275.553,52.129h0.483v2.398h1.154v0.46h-1.638V52.129z"/>
		<path fill="#FFFFFF" d="M277.773,52.129h0.482v2.398h1.152v0.46h-1.635V52.129z"/>
		<path fill="#FFFFFF" d="M279.992,52.129h1.795v0.46h-1.312v0.703h1.244v0.46h-1.244v0.775h1.382v0.46h-1.864V52.129z"/>
		<path fill="#FFFFFF" d="M284.423,52.799c-0.199-0.222-0.384-0.28-0.571-0.28c-0.56,0-0.93,0.451-0.93,1.021
			c0,0.609,0.37,1.061,0.93,1.061c0.22,0,0.427-0.104,0.61-0.345l0.398,0.296c-0.246,0.356-0.612,0.509-1.014,0.509
			c-0.832,0-1.431-0.596-1.431-1.487c0-0.918,0.599-1.515,1.431-1.515c0.369,0,0.684,0.124,0.951,0.452L284.423,52.799z"/>
		<path fill="#FFFFFF" d="M285.971,52.589h-0.829v-0.46h2.143v0.46h-0.83v2.398h-0.483V52.589z"/>
		<path fill="#FFFFFF" d="M287.833,52.129h0.484v2.858h-0.484V52.129z"/>
		<path fill="#FFFFFF" d="M290.429,52.058c0.845-0.019,1.441,0.578,1.441,1.496c0,0.891-0.597,1.489-1.441,1.506
			c-0.836,0-1.432-0.596-1.432-1.487C288.998,52.654,289.593,52.058,290.429,52.058z M290.433,54.6c0.563,0,0.934-0.451,0.934-1.061
			c0-0.569-0.37-1.021-0.934-1.021c-0.56,0-0.931,0.451-0.931,1.021C289.502,54.148,289.874,54.6,290.433,54.6z"/>
		<path fill="#FFFFFF" d="M292.564,52.129h0.638l1.315,2.126l0.008,0.007h-0.008l0.008-0.007v-2.126h0.48v2.858h-0.612l-1.341-2.191
			h-0.008v2.191h-0.48V52.129z"/>
	</g>
</g>
<g>
	<path fill="#AEABA2" d="M311.749,67.871c0-0.359,0.069-0.696,0.206-1.011c0.139-0.315,0.324-0.59,0.561-0.826
		s0.512-0.422,0.826-0.56s0.652-0.207,1.012-0.207s0.696,0.069,1.012,0.207c0.314,0.138,0.59,0.324,0.826,0.56
		c0.234,0.236,0.422,0.511,0.559,0.826c0.139,0.315,0.207,0.652,0.207,1.011s-0.068,0.696-0.207,1.012
		c-0.137,0.315-0.324,0.59-0.559,0.826c-0.236,0.236-0.512,0.422-0.826,0.56c-0.315,0.138-0.652,0.207-1.012,0.207
		s-0.697-0.069-1.012-0.207s-0.59-0.324-0.826-0.56c-0.236-0.235-0.422-0.511-0.561-0.826
		C311.818,68.567,311.749,68.23,311.749,67.871z M312.21,67.871c0,0.294,0.057,0.572,0.168,0.833
		c0.112,0.261,0.266,0.489,0.459,0.683s0.421,0.346,0.682,0.458c0.262,0.112,0.539,0.168,0.834,0.168
		c0.294,0,0.571-0.056,0.832-0.168c0.262-0.112,0.489-0.265,0.684-0.458c0.193-0.194,0.346-0.421,0.458-0.683
		s0.168-0.539,0.168-0.833s-0.056-0.572-0.168-0.833s-0.265-0.489-0.458-0.683c-0.194-0.193-0.422-0.346-0.684-0.458
		c-0.261-0.112-0.538-0.168-0.832-0.168c-0.295,0-0.572,0.056-0.834,0.168c-0.261,0.112-0.488,0.265-0.682,0.458
		c-0.193,0.194-0.347,0.421-0.459,0.683C312.267,67.299,312.21,67.577,312.21,67.871z M313.351,66.366h1.148
		c0.359,0,0.625,0.077,0.795,0.231s0.256,0.375,0.256,0.665c0,0.261-0.067,0.458-0.201,0.588c-0.135,0.131-0.303,0.208-0.506,0.231
		l0.77,1.26h-0.574l-0.742-1.218h-0.398v1.218h-0.547V66.366z M313.898,67.661h0.398c0.084,0,0.168-0.003,0.252-0.011
		c0.084-0.007,0.16-0.024,0.229-0.052c0.066-0.028,0.122-0.07,0.164-0.126s0.062-0.133,0.062-0.231s-0.021-0.175-0.062-0.231
		c-0.042-0.056-0.098-0.098-0.164-0.126c-0.068-0.028-0.145-0.044-0.229-0.049c-0.084-0.004-0.168-0.007-0.252-0.007h-0.398V67.661z
		"/>
</g>
<path fill="#6E6858" d="M689.035,63.318c0,3.796-3.133,6.902-6.963,6.902H580.99c-3.83,0-6.963-3.106-6.963-6.902V22.49
	c0-3.797,3.133-6.902,6.963-6.902h101.082c3.83,0,6.963,3.105,6.963,6.902V63.318z"/>
<g>
	<path fill="#AEABA2" d="M676.191,50.285h-1.498v-0.591h3.627v0.591h-1.498v4.061h-0.631V50.285z"/>
	<path fill="#AEABA2" d="M678.941,49.694h0.939l1.48,3.521h0.025l1.465-3.521h0.939v4.651h-0.631v-3.824h-0.014l-1.57,3.824h-0.42
		l-1.57-3.824h-0.014v3.824h-0.631V49.694z"/>
</g>
<g>
	<g>
		<g>
			<g>
				<path fill="#E26811" d="M605.72,58.391V46.658h0.928v1.062c0.691-0.775,1.701-1.23,2.814-1.23c0.928,0,1.805,0.338,2.445,0.86
					c0.877,0.741,1.434,1.871,1.434,3.152c0,1.382-0.625,2.579-1.637,3.287c-0.758,0.54-1.568,0.726-2.293,0.726
					c-1.197,0-2.158-0.523-2.73-1.265v5.142H605.72z M606.681,51.917c0.607,1.046,1.619,1.686,2.748,1.686
					c0.658,0,1.248-0.235,1.736-0.573c0.742-0.522,1.215-1.466,1.215-2.528c0-0.994-0.406-1.888-1.08-2.444
					c-0.539-0.438-1.213-0.658-1.854-0.658c-1.416,0-2.428,0.979-2.766,1.552V51.917z"/>
				<path fill="#E26811" d="M619.201,47.417c-0.1-0.018-0.404-0.018-0.455-0.018c-1.045,0-2.006,0.709-2.41,1.703v5.243h-0.961
					v-7.688h0.961v1.012c0.354-0.54,1.23-1.181,2.428-1.181c0.135,0,0.473,0.018,0.574,0.034L619.201,47.417z"/>
				<path fill="#E26811" d="M621.748,43.134c0.473,0,0.859,0.388,0.859,0.859c0,0.473-0.387,0.843-0.859,0.843
					s-0.844-0.37-0.844-0.843C620.904,43.522,621.275,43.134,621.748,43.134 M621.275,46.658h0.961v7.688h-0.961V46.658z"/>
				<polygon fill="#E26811" points="627.476,54.345 623.902,46.658 624.947,46.658 627.779,52.794 630.613,46.658 631.658,46.658 
					628.101,54.345 				"/>
				<path fill="#E26811" d="M633.816,43.134c0.471,0,0.859,0.388,0.859,0.859c0,0.473-0.389,0.843-0.859,0.843
					c-0.473,0-0.844-0.37-0.844-0.843C632.972,43.522,633.343,43.134,633.816,43.134 M633.343,46.658h0.961v7.688h-0.961V46.658z"/>
				<rect x="636.855" y="42.375" fill="#E26811" width="0.961" height="11.97"/>
				<path fill="#E26811" d="M646.847,53.098c-0.574,0.725-1.67,1.416-3.137,1.416c-2.158,0-3.861-1.619-3.861-4.013
					c0-2.208,1.502-4.013,3.676-4.013c2.057,0,3.574,1.618,3.574,3.76c0,0.067,0,0.186-0.018,0.337h-6.271
					c0.068,1.636,1.131,3.018,2.9,3.018c1.012,0,1.854-0.404,2.461-1.146L646.847,53.098z M640.861,49.709h5.244
					c-0.203-1.35-1.248-2.311-2.58-2.311C642.16,47.399,641.148,48.377,640.861,49.709"/>
				<path fill="#E26811" d="M656.056,56.79c-0.555,1.045-1.65,1.771-3.336,1.771c-1.467,0-2.715-0.675-3.49-1.838l0.758-0.557
					c0.574,0.91,1.518,1.483,2.748,1.483c1.299,0,2.09-0.556,2.479-1.314c0.236-0.473,0.303-1.028,0.303-1.989V53.25
					c-0.572,0.741-1.533,1.264-2.73,1.264c-0.725,0-1.533-0.185-2.293-0.725c-1.012-0.708-1.635-1.905-1.635-3.287
					c0-1.281,0.557-2.411,1.434-3.152c0.641-0.522,1.516-0.86,2.443-0.86c1.113,0,2.125,0.456,2.816,1.23v-1.062h0.926v7.653
					C656.478,55.441,656.378,56.183,656.056,56.79 M655.517,48.951c-0.336-0.573-1.348-1.552-2.764-1.552
					c-0.641,0-1.316,0.22-1.855,0.658c-0.674,0.556-1.078,1.45-1.078,2.444c0,1.062,0.473,2.006,1.213,2.529
					c0.49,0.337,1.08,0.572,1.736,0.572c1.131,0,2.143-0.641,2.748-1.686V48.951z"/>
				<path fill="#E26811" d="M665.509,53.098c-0.574,0.725-1.67,1.416-3.137,1.416c-2.156,0-3.859-1.619-3.859-4.013
					c0-2.208,1.5-4.013,3.676-4.013c2.057,0,3.574,1.618,3.574,3.76c0,0.067,0,0.186-0.018,0.337h-6.271
					c0.066,1.636,1.129,3.018,2.898,3.018c1.012,0,1.855-0.404,2.463-1.146L665.509,53.098z M659.525,49.709h5.242
					c-0.201-1.35-1.246-2.311-2.578-2.311C660.822,47.399,659.81,48.377,659.525,49.709"/>
				<path fill="#E26811" d="M667.785,52.676c0.658,0.557,1.467,0.928,2.328,0.928c0.961,0,1.77-0.54,1.77-1.35
					c0-1.973-4.434-0.894-4.434-3.523c0-1.399,1.314-2.242,2.613-2.242c1.045,0,1.904,0.354,2.479,0.742l-0.506,0.792
					c-0.658-0.421-1.131-0.624-1.922-0.624c-0.811,0-1.703,0.422-1.703,1.315c0,1.703,4.434,0.792,4.434,3.489
					c0,1.434-1.213,2.31-2.664,2.31c-1.281,0-2.309-0.472-2.984-1.095L667.785,52.676z"/>
				<path fill="#FFC72C" d="M593.572,25.551v7.677h0.004c3.674,0,6.654-2.971,6.67-6.643v-1.034H593.572z"/>
				<path fill="#FFC72C" d="M600.246,41.358v-7.68h-0.006c-3.674,0-6.654,2.973-6.67,6.645v1.035H600.246z"/>
				<path fill="#E26811" d="M591.291,41.358c-3.686-0.744-6.461-4-6.461-7.904c0-3.902,2.775-7.159,6.461-7.903V41.358z"/>
				<path fill="#FFFFFF" d="M611.601,39.852c-2.201,0-3.957-0.675-5.223-2.002c-1.141-1.192-1.717-2.688-1.717-4.451
					c0-1.865,0.623-3.471,1.863-4.773c1.389-1.467,3.271-2.211,5.596-2.211c1.41,0,2.682,0.278,3.773,0.825
					c0.049,0.023,0.078,0.069,0.078,0.124v2.735c0,0.065-0.047,0.124-0.113,0.136c-0.01,0.002-0.021,0.005-0.029,0.005
					c-0.057,0-0.105-0.034-0.127-0.09c-0.662-1.643-1.959-2.438-3.977-2.438c-1.555,0-2.801,0.555-3.709,1.646
					c-0.832,0.987-1.254,2.221-1.254,3.662c0,1.467,0.436,2.733,1.295,3.757c0.951,1.13,2.254,1.701,3.875,1.701
					c1.541,0,2.934-0.645,4.131-1.916c0.023-0.026,0.062-0.042,0.104-0.042c0.016,0,0.033,0.004,0.049,0.008
					c0.053,0.022,0.088,0.073,0.088,0.13v1.226c0,0.038-0.016,0.072-0.041,0.099C615.068,39.223,613.5,39.852,611.601,39.852"/>
				<path fill="#FFFFFF" d="M637.939,27.692c-1.85,0-3.387,0.595-4.568,1.768c-1.184,1.172-1.781,2.663-1.781,4.426
					c0,1.722,0.561,3.155,1.67,4.268c1.107,1.112,2.57,1.675,4.346,1.675c1.861,0,3.406-0.607,4.588-1.809
					c1.145-1.158,1.725-2.633,1.725-4.385c0-1.722-0.555-3.156-1.65-4.269C641.169,28.254,639.714,27.692,637.939,27.692
					 M642.044,34.022c0,1.336-0.381,2.432-1.133,3.257c-0.75,0.819-1.736,1.233-2.936,1.233c-1.332,0-2.42-0.478-3.238-1.416
					c-0.824-0.947-1.24-2.191-1.24-3.697c0-1.313,0.377-2.389,1.125-3.191c0.744-0.798,1.734-1.201,2.945-1.201
					c1.344,0,2.436,0.471,3.246,1.4C641.632,31.343,642.044,32.559,642.044,34.022"/>
				<path fill="#FFFFFF" d="M648.458,29.175c0.002-0.03,0.004-0.062,0.008-0.089c0.061-0.371,0.344-0.666,0.709-0.739
					c0.008-0.003,0.016-0.005,0.021-0.007c0.092-0.025,0.152-0.109,0.145-0.201c-0.008-0.101-0.092-0.18-0.193-0.18h-3.266
					c-0.1,0-0.186,0.079-0.193,0.18c-0.006,0.092,0.055,0.176,0.158,0.203c0.004,0.002,0.004,0.003,0.008,0.005
					c0.412,0.083,0.721,0.444,0.723,0.882v0.064c0,0,0.002,0.005,0.002,0.009v8.919c0,0.004-0.002,0.007-0.002,0.013v0.081
					c-0.002,0.439-0.312,0.802-0.727,0.881c0,0.002-0.002,0.002-0.004,0.005c-0.031,0-0.059,0.016-0.084,0.04
					c-0.035,0.04-0.059,0.102-0.055,0.154c0.006,0.101,0.092,0.18,0.193,0.18h3.246h0.004c0.107,0,0.193-0.088,0.193-0.194
					c0-0.086-0.051-0.166-0.135-0.176c-0.01-0.001-0.014-0.007-0.02-0.007c-0.42-0.075-0.738-0.44-0.74-0.883v-0.097v-0.01v-8.96
					v-0.008v-0.012C648.451,29.209,648.457,29.192,648.458,29.175"/>
				<path fill="#FFFFFF" d="M661.539,36.742c-0.072-0.032-0.16-0.012-0.211,0.047c-1.059,1.121-2.283,1.689-3.641,1.689
					c-1.43,0-2.578-0.503-3.412-1.496c-0.76-0.904-1.143-2.021-1.143-3.314c0-1.273,0.373-2.361,1.105-3.23
					c0.797-0.962,1.896-1.448,3.264-1.448c1.77,0,2.912,0.7,3.49,2.137c0.035,0.087,0.119,0.139,0.219,0.119
					c0.088-0.019,0.156-0.1,0.156-0.19V28.61c0-0.073-0.043-0.139-0.107-0.172c-0.988-0.496-2.135-0.746-3.406-0.746
					c-2.098,0-3.799,0.673-5.055,1.998c-1.119,1.177-1.686,2.63-1.686,4.312c0,1.596,0.525,2.953,1.555,4.029
					c1.146,1.202,2.734,1.812,4.721,1.812c1.717,0,3.135-0.567,4.221-1.694c0.033-0.035,0.053-0.085,0.053-0.134v-1.097
					C661.662,36.84,661.615,36.769,661.539,36.742"/>
				<path fill="#FFFFFF" d="M672.552,36.617c-0.092-0.029-0.195,0.021-0.232,0.111c-0.01,0.026-0.023,0.049-0.035,0.073
					c-0.328,0.886-1.178,1.518-2.176,1.524h-0.174c-0.029,0.001-0.057,0.003-0.088,0.003h-3.488v-4.081h3.479
					c0.725,0,1.111,0.207,1.18,0.63c0.016,0.094,0.098,0.163,0.191,0.163l0.016-0.001c0.1-0.008,0.18-0.093,0.18-0.192v-2.41
					c0-0.101-0.076-0.183-0.176-0.193c-0.1-0.013-0.188,0.057-0.209,0.151c-0.09,0.431-0.482,0.639-1.201,0.639h-3.459v-3.965h3.689
					h0.01h0.221c0.797,0.005,1.455,0.573,1.6,1.325c0.004,0.009,0.006,0.015,0.01,0.023c0.027,0.087,0.098,0.152,0.188,0.152
					c0.008,0,0.02,0,0.021-0.001c0.1-0.011,0.176-0.093,0.176-0.193v-2.223c0-0.105-0.088-0.193-0.195-0.193h-8.379
					c-0.104,0-0.188,0.08-0.195,0.181c-0.006,0.101,0.066,0.191,0.162,0.205l0.018,0.004c0.002,0.001,0.008,0.001,0.008,0.002
					c0.438,0.063,0.773,0.435,0.775,0.886v9.065c-0.002,0.429-0.303,0.785-0.701,0.875l-0.004,0.001
					c-0.008,0.002-0.016,0.006-0.023,0.008c-0.004,0.001-0.008,0.002-0.016,0.002c-0.098,0.017-0.17,0.106-0.162,0.209
					c0.008,0.1,0.092,0.178,0.193,0.178h8.32c0.094,0,0.176-0.066,0.189-0.161l0.426-2.579
					C672.707,36.736,672.648,36.642,672.552,36.617"/>
				<path fill="#FFFFFF" d="M629.173,29.229c0.004-0.434,0.309-0.797,0.717-0.88c0.002-0.002,0.006-0.005,0.01-0.007
					c0.092-0.023,0.154-0.107,0.148-0.202c-0.008-0.102-0.094-0.181-0.195-0.181h-3.262c-0.102,0-0.188,0.079-0.193,0.181
					c-0.008,0.091,0.053,0.174,0.154,0.202c0.002,0.002,0.004,0.002,0.008,0.005c0.408,0.082,0.707,0.444,0.707,0.882v3.805h-6.361
					v-3.765c0,0,0,0,0-0.004v-0.036c0.004-0.443,0.322-0.808,0.742-0.885l0.008-0.007c0.09-0.023,0.148-0.106,0.139-0.197
					c-0.008-0.102-0.092-0.181-0.193-0.181h-3.281c-0.102,0-0.188,0.079-0.193,0.181c-0.008,0.091,0.053,0.174,0.141,0.199
					c0,0,0.035,0.008,0.084,0.026c0.342,0.092,0.602,0.381,0.652,0.74c0.004,0.028,0.004,0.059,0.008,0.09
					c0,0.01,0.004,0.021,0.004,0.033v0.019c0,0.01,0,0.015,0,0.023v8.971v0.001V38.3c-0.002,0.424-0.299,0.777-0.695,0.87v0.005
					l-0.074,0.029c-0.078,0.03-0.125,0.107-0.119,0.19c0.006,0.101,0.092,0.18,0.193,0.18h3.281c0.102,0,0.188-0.079,0.193-0.18
					c0.008-0.083-0.041-0.161-0.123-0.191l-0.07-0.026l-0.002-0.007c-0.396-0.096-0.689-0.446-0.693-0.87v-0.095
					c0-0.004,0-0.007,0-0.011v-3.913h6.361c0,0,0,3.849,0,3.919c0,0.233-0.02,0.361-0.043,0.407
					c-0.105,0.28-0.344,0.494-0.641,0.565l-0.074,0.031c-0.072,0.036-0.119,0.11-0.111,0.19c0.006,0.101,0.09,0.18,0.193,0.18h3.264
					h0.002c0.107,0,0.195-0.088,0.195-0.194c0-0.072-0.043-0.14-0.109-0.173l-0.076-0.037c-0.395-0.094-0.689-0.446-0.693-0.87
					V29.229z"/>
			</g>
		</g>
	</g>
	<g>
		<path fill="#AEABA2" d="M615.337,58.64h1.523c0.43,0,0.768,0.127,0.986,0.342c0.182,0.186,0.283,0.439,0.283,0.737v0.01
			c0,0.562-0.336,0.898-0.811,1.035l0.924,1.294h-0.713l-0.84-1.191h-0.752v1.191h-0.602V58.64z M616.818,60.334
			c0.43,0,0.703-0.225,0.703-0.571v-0.01c0-0.366-0.264-0.566-0.709-0.566h-0.873v1.147H616.818z"/>
		<path fill="#AEABA2" d="M619.656,58.64h2.533v0.537h-1.934v0.889h1.715v0.537h-1.715v0.918h1.959v0.537h-2.559V58.64z"/>
		<path fill="#AEABA2" d="M623.304,58.64h0.648l0.816,2.534l0.84-2.544h0.508l0.84,2.544l0.814-2.534h0.631l-1.188,3.442h-0.521
			l-0.84-2.456l-0.84,2.456h-0.518L623.304,58.64z"/>
		<path fill="#AEABA2" d="M630.113,58.616h0.557l1.504,3.442h-0.635l-0.348-0.825h-1.615l-0.352,0.825h-0.615L630.113,58.616z
			 M630.972,60.701l-0.592-1.367l-0.586,1.367H630.972z"/>
		<path fill="#AEABA2" d="M633.425,58.64h1.523c0.43,0,0.766,0.127,0.986,0.342c0.18,0.186,0.283,0.439,0.283,0.737v0.01
			c0,0.562-0.338,0.898-0.811,1.035l0.922,1.294h-0.713l-0.84-1.191h-0.752v1.191h-0.6V58.64z M634.904,60.334
			c0.43,0,0.703-0.225,0.703-0.571v-0.01c0-0.366-0.264-0.566-0.707-0.566h-0.875v1.147H634.904z"/>
		<path fill="#AEABA2" d="M637.669,58.64h1.273c1.074,0,1.816,0.737,1.816,1.699v0.01c0,0.962-0.742,1.709-1.816,1.709h-1.273V58.64
			z M638.269,59.187v2.324h0.674c0.719,0,1.188-0.483,1.188-1.152v-0.01c0-0.669-0.469-1.162-1.188-1.162H638.269z"/>
		<path fill="#AEABA2" d="M641.947,61.56l0.361-0.43c0.328,0.283,0.66,0.444,1.08,0.444c0.371,0,0.605-0.176,0.605-0.43v-0.01
			c0-0.244-0.137-0.376-0.771-0.522c-0.729-0.176-1.139-0.391-1.139-1.021v-0.01c0-0.586,0.488-0.991,1.168-0.991
			c0.498,0,0.893,0.151,1.24,0.43l-0.322,0.454c-0.309-0.229-0.615-0.352-0.928-0.352c-0.352,0-0.557,0.181-0.557,0.405v0.01
			c0,0.264,0.156,0.381,0.814,0.537c0.723,0.176,1.094,0.435,1.094,1.001v0.01c0,0.64-0.502,1.021-1.221,1.021
			C642.851,62.107,642.357,61.926,641.947,61.56z"/>
	</g>
</g>
</svg>
