<?xml version="1.0" encoding="utf-8"?>
<!-- Generator: Adobe Illustrator 16.0.0, SVG Export Plug-In . SVG Version: 6.00 Build 0)  -->
<!DOCTYPE svg PUBLIC "-//W3C//DTD SVG 1.1//EN" "http://www.w3.org/Graphics/SVG/1.1/DTD/svg11.dtd">
<svg version="1.1" id="Capa_1" xmlns="http://www.w3.org/2000/svg" xmlns:xlink="http://www.w3.org/1999/xlink" x="0px" y="0px"
	 width="160.397px" height="166.238px" viewBox="0 0 160.397 166.238" enable-background="new 0 0 160.397 166.238"
	 xml:space="preserve">
<g>
	<g>
		<g>
			
				<image overflow="visible" opacity="0.69" width="111" height="139" xlink:href="CB5F480A7361174F.png"  transform="matrix(1 0 0 1 30.8232 9.7271)">
			</image>
			<g>
				<path fill="#F49600" d="M130.244,74.076c-2.118-14.757,6.054-29.946,6.054-29.946h-4.44c0.811-8.102-4.982-16.631-10.265-16.312
					V20.87c-6.979,8.128-18.275-8.489-37.303-8.825v-0.016c-0.099,0-0.19,0.008-0.289,0.009c-0.096-0.001-0.19-0.009-0.286-0.009
					v0.016C64.686,12.38,53.391,28.998,46.414,20.87v6.947c-5.287-0.318-11.076,8.211-10.271,16.312h-4.437
					c0,0,8.171,15.189,6.054,29.946c-2.121,14.756-9.687,29.799,2.117,41.953l-4.843,8.824c10.704-0.119,14.283,0.786,23.757,8.635
					c12.591,10.43,17.225,10.566,25.149,10.867v0.004c0.023-0.002,0.042-0.002,0.06-0.002c0.02,0,0.039,0,0.06,0.002v-0.004
					c7.929-0.301,12.562-0.438,25.149-10.867c9.476-7.849,13.056-8.754,23.761-8.635l-4.845-8.824
					C139.93,103.875,132.363,88.832,130.244,74.076z"/>
			</g>
		</g>
		<g>
			
				<image overflow="visible" opacity="0.69" width="102" height="131" xlink:href="CB5F480A7361174D.png"  transform="matrix(1 0 0 1 35.3467 13.3374)">
			</image>
			<g>
				<g>
					<path fill="#EFF0F0" d="M83.924,140.603L83.931,140l-0.012,0.604c-7.569-0.271-11.933-0.489-23.817-10.356l0,0
						c-7.994-6.617-12.194-8.526-18.912-9.013l0,0l-0.813-0.06l3.242-5.912l-2.213-2.278c-3.906-3.991-5.396-8.261-5.381-13.281l0,0
						c0.002-4.195,0.979-8.878,2.263-14.587l0,0c0.754-3.354,1.53-6.804,2.031-10.29l0,0c0.278-1.949,0.4-3.896,0.4-5.818l0,0
						c0.003-7.793-2.048-15.157-3.928-20.25l0,0l-0.326-0.884l2.689-0.003l-0.425-4.27c-0.032-0.324-0.05-0.657-0.05-0.992l0,0
						c0.007-2.309,0.739-4.793,2.015-6.904l0,0c1.538-2.535,3.575-4.144,5.443-4.154l0,0l0.167,0.003l2.722,0.163v-5.112
						l0.478,0.096c0.491,0.099,0.998,0.148,1.521,0.148l0,0c0,0,0.002,0,0.006-0.005l0,0c0.006,0,0.013,0,0.013,0.005l0,0
						c3.316,0.005,7.005-1.918,11.315-4.187l0,0c5.671-2.979,12.784-6.728,21.389-6.877l0,0l0.292-0.005l0.221,0.005
						c8.604,0.149,15.714,3.898,21.383,6.877l0,0c4.31,2.269,8.001,4.191,11.319,4.187l0,0h0.002c0.524,0,1.042-0.05,1.536-0.148
						l0,0l0.478-0.096v5.112l2.729-0.163l0.169-0.003c1.86,0.011,3.893,1.619,5.434,4.154l0,0c1.274,2.111,2.008,4.596,2.011,6.902
						l0,0c0,0.337-0.014,0.667-0.046,0.992l0,0l-0.425,4.274h2.691l-0.327,0.884c-1.884,5.093-3.935,12.459-3.93,20.254l0,0
						c0,1.918,0.122,3.865,0.403,5.814l0,0c0.5,3.486,1.275,6.937,2.033,10.29l0,0c1.28,5.709,2.253,10.392,2.257,14.584l0,0
						c0.015,5.023-1.474,9.291-5.375,13.284l0,0l-2.217,2.278l3.241,5.912l-0.812,0.06c-6.719,0.486-10.916,2.396-18.909,9.013l0,0
						c-11.891,9.867-16.253,10.085-23.825,10.356l0,0l-0.088,0.004L83.924,140.603L83.924,140.603z M83.994,139.4l0.069-0.003
						c7.576-0.299,11.557-0.396,23.419-10.198l0,0c7.7-6.389,12.106-8.524,18.482-9.107l0,0l-2.781-5.07l2.926-3.02
						c3.759-3.894,5.014-7.63,5.027-12.302l0,0c0.005-3.917-0.938-8.522-2.219-14.213l0,0c-0.755-3.355-1.539-6.845-2.054-10.417
						l0,0c-0.293-2.037-0.421-4.064-0.421-6.059l0,0c0.004-7.652,1.883-14.785,3.706-19.932l0,0h-2.269l0.56-5.651
						c0.025-0.267,0.041-0.54,0.041-0.821l0,0c0.003-1.929-0.637-4.184-1.809-6.112l0,0c-1.404-2.336-3.288-3.749-4.787-3.739l0,0
						l-0.151,0.004l-3.596,0.216v-4.999c-0.385,0.053-0.776,0.079-1.174,0.079l0,0h-0.002c-3.545-0.006-7.299-2-11.609-4.26l0,0
						c-5.668-2.982-12.665-6.655-21.104-6.804l0,0l-0.21-0.005l-0.28,0.005c-8.44,0.148-15.439,3.821-21.109,6.804l0,0
						c-4.297,2.254-8.044,4.245-11.624,4.255l0,0v0.005c0,0,0,0.001-0.014,0l0,0c-0.387-0.002-0.771-0.028-1.145-0.079l0,0v4.999
						l-3.589-0.216l-0.149-0.004c-1.509-0.01-3.393,1.403-4.797,3.739l0,0c-1.172,1.927-1.812,4.184-1.808,6.114l0,0
						c0,0.279,0.01,0.553,0.038,0.819l0,0l0.564,5.651h-2.27c1.82,5.146,3.7,12.279,3.707,19.928l0,0
						c0,1.998-0.13,4.027-0.421,6.062l0,0c-0.513,3.572-1.299,7.062-2.058,10.417l0,0c-1.282,5.69-2.224,10.296-2.218,14.216l0,0
						c0.01,4.675,1.269,8.405,5.027,12.299l0,0l2.929,3.02l-2.783,5.07c6.375,0.583,10.781,2.719,18.481,9.107l0,0
						c11.862,9.803,15.846,9.899,23.419,10.198l0,0l0,0L83.994,139.4L83.994,139.4z"/>
				</g>
			</g>
		</g>
		<g>
			
				<image overflow="visible" opacity="0.69" width="100" height="129" xlink:href="CB5F480A73611753.png"  transform="matrix(1 0 0 1 36.8232 14.7271)">
			</image>
			<g>
				<path fill="#5291CE" d="M83.994,139.4l0.069-0.003c7.576-0.299,11.557-0.396,23.419-10.198l0,0
					c7.7-6.389,12.106-8.524,18.482-9.107l0,0l-2.781-5.07l2.926-3.02c3.759-3.894,5.014-7.63,5.027-12.302l0,0
					c0.005-3.917-0.938-8.522-2.219-14.213l0,0c-0.755-3.355-1.54-6.845-2.054-10.417l0,0c-0.293-2.037-0.421-4.064-0.421-6.059l0,0
					c0.002-7.652,1.88-14.785,3.706-19.932l0,0h-2.271l0.562-5.651c0.025-0.267,0.041-0.54,0.041-0.821l0,0
					c0.003-1.929-0.637-4.184-1.809-6.112l0,0c-1.404-2.336-3.288-3.749-4.787-3.739l0,0l-0.151,0.004l-3.596,0.216v-4.999
					c-0.385,0.053-0.776,0.079-1.176,0.079l0,0l0,0c-3.545-0.006-7.299-2-11.611-4.26l0,0c-5.666-2.982-12.665-6.655-21.103-6.804
					l0,0l-0.212-0.005l-0.278,0.005c-8.44,0.148-15.439,3.821-21.109,6.804l0,0c-4.297,2.254-8.044,4.245-11.624,4.255l0,0v0.005
					c0,0,0,0.001-0.014,0l0,0c-0.387-0.002-0.771-0.028-1.145-0.079l0,0v4.999l-3.589-0.216l-0.149-0.004
					c-1.509-0.01-3.393,1.403-4.797,3.739l0,0c-1.172,1.927-1.812,4.184-1.808,6.114l0,0c0,0.279,0.01,0.553,0.038,0.819l0,0
					l0.563,5.651h-2.269c1.82,5.146,3.7,12.279,3.707,19.928l0,0c0,1.998-0.13,4.027-0.421,6.062l0,0
					c-0.513,3.572-1.299,7.062-2.058,10.417l0,0c-1.282,5.69-2.224,10.296-2.218,14.216l0,0c0.01,4.675,1.269,8.405,5.026,12.299
					l0,0l2.927,3.02l-2.78,5.07c6.375,0.583,10.781,2.719,18.481,9.107l0,0c11.862,9.803,15.844,9.899,23.419,10.198l0,0l0,0
					L83.994,139.4L83.994,139.4z"/>
			</g>
		</g>
		<path fill="#5291CE" d="M73.129,86.896c-0.566,0-1.078,0.344-1.294,0.864c-0.183-0.499-0.381-0.997-0.575-1.491
			c-0.554-1.412-1.126-2.864-1.255-4.109c0.359-1.261,0.584-2.622,0.751-4.479c0.062-0.722-0.429-1.372-1.138-1.508l-1.299-0.248
			c-0.717-0.126-1.438,0.384-1.641,1.087c-0.262,0.915-0.584,2.056-0.584,3.33c0,1.047,0.044,1.811,0.145,2.522
			c-0.196,0.609-0.411,1.224-0.624,1.821c-0.147-1.094-0.446-2.105-0.997-2.906c-0.743-1.096-1.863-1.698-3.148-1.698
			c-2.229,0-4.079,1.553-4.965,4.058c-0.421,0.017-0.761,0.266-1.012,0.597c-0.011,0.002-0.045,0.021-0.045,0.021l-0.433-0.032
			c0.062-0.429,0.098-0.837,0.098-1.22c0-0.912-0.227-1.627-0.588-2.16c0.523-0.193,0.986-0.506,1.389-0.937
			c0.468-0.503,0.503-1.271,0.085-1.814l-0.709-0.931c-0.241-0.312-0.597-0.511-0.988-0.548c-0.419-0.025-0.781,0.098-1.069,0.36
			c-0.127,0.112-0.179,0.16-0.635,0.16c-0.318,0-0.668-0.068-1.04-0.133c-0.425-0.071-0.865-0.142-1.305-0.175
			c-0.031-0.004-0.316-0.004-0.35-0.004c-0.497,0-2.002,0-3.033,1.367c-0.17,0.223-0.25,0.479-0.269,0.739
			c0.532-3.126,1.179-6.474,1.959-10.093c0.143-0.646-0.18-1.295-0.779-1.572l-1.39-0.65c-0.505-0.235-1.098-0.151-1.513,0.213
			c-2.77,2.405-4.689,7.521-6.913,13.446c-0.288,0.774-0.58,1.556-0.88,2.342c-1.39-0.635-2.922-1.04-4.535-1.185
			c-1.454-3.197-4.483-5.009-8.461-5.009c-8.968,0-13.808,7.509-13.808,14.57c0,6.227,3.959,12.928,12.66,12.928
			c8.533,0,13.005-7.188,16.12-14.847c0.779,1.237,1.186,2.747,1.186,4.459l-0.031,1.981c0,9.688,3.191,14.602,9.479,14.602
			c2.27,0,5.332-0.912,7.062-5.254c0.136-0.354,0.127-0.756-0.03-1.104c-0.16-0.349-0.456-0.618-0.82-0.744l-1.609-0.562
			c-0.702-0.242-1.486,0.111-1.765,0.809c-0.929,2.324-2.087,2.647-3.211,2.647c-2.748,0-4.215-3.132-4.399-9.236h1.271
			c0.676,0,1.256-0.479,1.378-1.146l1.124-6.008c0.206-0.74,0.439-1.405,0.672-2.021c0.084,0,0.177,0.018,0.27,0.028
			c-0.578,1.941-1.168,4.059-1.168,5.697c0,2.123,1.303,3.607,3.168,3.607c1.397,0,2.507-0.92,3.429-2.263
			c0.127,0.244,0.23,0.498,0.395,0.714c0.799,1.054,1.943,1.611,3.32,1.611c1.735,0,3.431-1.215,4.737-3.228
			c0.153,0.915,0.575,1.559,0.952,1.962c0.752,0.804,1.878,1.266,3.091,1.266c4.078,0,5.953-4.635,7.08-7.406l0.336-0.822
			c0.074-0.174,0.112-0.36,0.112-0.55C75.09,87.391,73.705,86.896,73.129,86.896z M46.787,80.271
			c-0.144,0.034-0.243,0.139-0.368,0.216c0.053-0.322,0.114-0.663,0.171-0.99C46.581,79.765,46.644,80.036,46.787,80.271z
			 M53.551,90.374c0.008,0.006,0.016,0.012,0.021,0.016c-0.024,0.058-0.053,0.128-0.075,0.18
			C53.516,90.505,53.532,90.435,53.551,90.374z"/>
		<g>
			<defs>
				<path id="SVGID_1_" d="M83.994,139.362l0.069-0.002c7.578-0.299,11.557-0.396,23.419-10.198l0,0
					c7.702-6.388,12.106-8.523,18.482-9.107l0,0l-2.781-5.071l2.926-3.019c3.759-3.893,5.014-7.629,5.027-12.302l0,0
					c0.005-3.916-0.938-8.521-2.218-14.214l0,0c-0.756-3.354-1.54-6.845-2.055-10.415l0,0c-0.293-2.037-0.421-4.067-0.421-6.058l0,0
					c0.004-7.653,1.883-14.786,3.706-19.932l0,0h-2.269l0.56-5.653c0.027-0.269,0.041-0.539,0.041-0.82l0,0
					c0.003-1.932-0.637-4.185-1.809-6.115l0,0c-1.404-2.333-3.288-3.748-4.785-3.738l0,0l-0.153,0.007l-3.596,0.212v-5
					c-0.385,0.056-0.776,0.083-1.174,0.083l0,0h-0.002c-3.545-0.006-7.299-2.001-11.609-4.261l0,0
					c-5.668-2.981-12.665-6.658-21.104-6.803l0,0l-0.21-0.006l-0.28,0.006c-8.44,0.145-15.439,3.821-21.109,6.803l0,0
					c-4.297,2.255-8.044,4.243-11.624,4.256l0,0v0.005c0,0,0,0-0.014,0l0,0c-0.387-0.004-0.771-0.031-1.145-0.083l0,0v5
					l-3.589-0.212l-0.149-0.007c-1.509-0.01-3.393,1.405-4.797,3.738l0,0c-1.172,1.929-1.812,4.184-1.808,6.117l0,0
					c0,0.279,0.01,0.55,0.038,0.818l0,0l0.564,5.653h-2.27c1.82,5.146,3.7,12.278,3.707,19.927l0,0c0,1.995-0.13,4.025-0.421,6.062
					l0,0c-0.513,3.57-1.299,7.062-2.058,10.415l0,0c-1.282,5.693-2.224,10.298-2.218,14.217l0,0
					c0.01,4.672,1.269,8.406,5.027,12.299l0,0l2.926,3.019l-2.78,5.071c6.375,0.584,10.781,2.72,18.481,9.107l0,0
					c11.862,9.803,15.846,9.899,23.419,10.198l0,0l0,0L83.994,139.362L83.994,139.362z"/>
			</defs>
			<clipPath id="SVGID_2_">
				<use xlink:href="#SVGID_1_"  overflow="visible"/>
			</clipPath>
			<g clip-path="url(#SVGID_2_)">
				<ellipse fill="#6097D1" cx="43.457" cy="11.943" rx="3.881" ry="3.887"/>
				<circle fill="#6097D1" cx="57.972" cy="11.943" r="3.882"/>
				<ellipse fill="#6097D1" cx="72.484" cy="11.943" rx="3.881" ry="3.887"/>
				<circle fill="#6097D1" cx="86.997" cy="11.943" r="3.882"/>
				<ellipse fill="#6097D1" cx="101.51" cy="11.943" rx="3.88" ry="3.887"/>
				<ellipse fill="#6097D1" cx="116.023" cy="11.943" rx="3.881" ry="3.887"/>
				<ellipse fill="#6097D1" cx="130.538" cy="11.943" rx="3.881" ry="3.887"/>
				<circle fill="#6097D1" cx="36.583" cy="23.095" r="3.882"/>
				<ellipse fill="#6097D1" cx="51.094" cy="23.095" rx="3.881" ry="3.887"/>
				<circle fill="#6097D1" cx="65.607" cy="23.095" r="3.882"/>
				<ellipse fill="#6097D1" cx="80.121" cy="23.095" rx="3.881" ry="3.887"/>
				<circle fill="#6097D1" cx="94.633" cy="23.095" r="3.882"/>
				<circle fill="#6097D1" cx="109.147" cy="23.095" r="3.882"/>
				<ellipse fill="#6097D1" cx="123.661" cy="23.095" rx="3.881" ry="3.887"/>
				<ellipse fill="#6097D1" cx="43.457" cy="34.418" rx="3.881" ry="3.887"/>
				<circle fill="#6097D1" cx="57.972" cy="34.418" r="3.882"/>
				<ellipse fill="#6097D1" cx="72.484" cy="34.418" rx="3.881" ry="3.887"/>
				<circle fill="#6097D1" cx="86.997" cy="34.418" r="3.882"/>
				<ellipse fill="#6097D1" cx="101.51" cy="34.418" rx="3.88" ry="3.887"/>
				<ellipse fill="#6097D1" cx="116.023" cy="34.418" rx="3.881" ry="3.887"/>
				<ellipse fill="#6097D1" cx="130.538" cy="34.418" rx="3.881" ry="3.887"/>
				<ellipse fill="#6097D1" cx="36.583" cy="45.571" rx="3.882" ry="3.888"/>
				<ellipse fill="#6097D1" cx="51.094" cy="45.571" rx="3.881" ry="3.888"/>
				<ellipse fill="#6097D1" cx="65.607" cy="45.571" rx="3.882" ry="3.888"/>
				<ellipse fill="#6097D1" cx="80.121" cy="45.571" rx="3.881" ry="3.888"/>
				<ellipse fill="#6097D1" cx="94.633" cy="45.571" rx="3.882" ry="3.888"/>
				<ellipse fill="#6097D1" cx="109.147" cy="45.571" rx="3.882" ry="3.888"/>
				<ellipse fill="#6097D1" cx="123.661" cy="45.571" rx="3.881" ry="3.888"/>
				<ellipse fill="#6097D1" cx="43.457" cy="56.894" rx="3.881" ry="3.887"/>
				<circle fill="#6097D1" cx="57.972" cy="56.894" r="3.882"/>
				<ellipse fill="#6097D1" cx="72.484" cy="56.894" rx="3.881" ry="3.887"/>
				<circle fill="#6097D1" cx="86.997" cy="56.894" r="3.882"/>
				<ellipse fill="#6097D1" cx="101.51" cy="56.894" rx="3.88" ry="3.887"/>
				<ellipse fill="#6097D1" cx="116.023" cy="56.894" rx="3.881" ry="3.887"/>
				<ellipse fill="#6097D1" cx="130.538" cy="56.894" rx="3.881" ry="3.887"/>
				<circle fill="#6097D1" cx="36.583" cy="68.047" r="3.882"/>
				<circle fill="#6097D1" cx="51.094" cy="68.047" r="3.881"/>
				<circle fill="#6097D1" cx="65.607" cy="68.047" r="3.882"/>
				<circle fill="#6097D1" cx="80.121" cy="68.047" r="3.881"/>
				<circle fill="#6097D1" cx="94.633" cy="68.047" r="3.882"/>
				<circle fill="#6097D1" cx="109.147" cy="68.047" r="3.882"/>
				<circle fill="#6097D1" cx="123.661" cy="68.047" r="3.881"/>
				<ellipse fill="#6097D1" cx="43.457" cy="79.369" rx="3.881" ry="3.888"/>
				<ellipse fill="#6097D1" cx="57.972" cy="79.369" rx="3.882" ry="3.888"/>
				<ellipse fill="#6097D1" cx="72.484" cy="79.369" rx="3.881" ry="3.888"/>
				<ellipse fill="#6097D1" cx="86.997" cy="79.369" rx="3.882" ry="3.888"/>
				<ellipse fill="#6097D1" cx="101.51" cy="79.369" rx="3.88" ry="3.888"/>
				<ellipse fill="#6097D1" cx="116.023" cy="79.369" rx="3.881" ry="3.888"/>
				<ellipse fill="#6097D1" cx="130.538" cy="79.369" rx="3.881" ry="3.888"/>
				<circle fill="#6097D1" cx="36.583" cy="90.523" r="3.882"/>
				<ellipse fill="#6097D1" cx="51.094" cy="90.523" rx="3.881" ry="3.887"/>
				<circle fill="#6097D1" cx="65.607" cy="90.523" r="3.882"/>
				<ellipse fill="#6097D1" cx="80.121" cy="90.523" rx="3.881" ry="3.887"/>
				<circle fill="#6097D1" cx="94.633" cy="90.523" r="3.882"/>
				<circle fill="#6097D1" cx="109.147" cy="90.523" r="3.882"/>
				<ellipse fill="#6097D1" cx="123.661" cy="90.523" rx="3.881" ry="3.887"/>
				<ellipse fill="#6097D1" cx="43.457" cy="101.845" rx="3.881" ry="3.889"/>
				<ellipse fill="#6097D1" cx="57.972" cy="101.845" rx="3.882" ry="3.889"/>
				<ellipse fill="#6097D1" cx="72.484" cy="101.845" rx="3.881" ry="3.889"/>
				<ellipse fill="#6097D1" cx="86.997" cy="101.845" rx="3.882" ry="3.889"/>
				<ellipse fill="#6097D1" cx="101.51" cy="101.845" rx="3.88" ry="3.889"/>
				<ellipse fill="#6097D1" cx="116.023" cy="101.845" rx="3.881" ry="3.889"/>
				<ellipse fill="#6097D1" cx="130.538" cy="101.845" rx="3.881" ry="3.889"/>
				<path fill="#6097D1" d="M40.465,112.998c0,2.148-1.739,3.889-3.883,3.889s-3.881-1.74-3.881-3.889
					c0-2.146,1.737-3.883,3.881-3.883S40.465,110.852,40.465,112.998z"/>
				<ellipse fill="#6097D1" cx="51.094" cy="112.998" rx="3.881" ry="3.889"/>
				<ellipse fill="#6097D1" cx="65.607" cy="112.998" rx="3.882" ry="3.889"/>
				<path fill="#6097D1" d="M84.002,112.998c0,2.148-1.737,3.889-3.882,3.889c-2.142,0-3.88-1.74-3.88-3.889
					c0-2.146,1.738-3.883,3.88-3.883C82.265,109.115,84.002,110.852,84.002,112.998z"/>
				<ellipse fill="#6097D1" cx="94.633" cy="112.998" rx="3.882" ry="3.889"/>
				<ellipse fill="#6097D1" cx="109.147" cy="112.998" rx="3.882" ry="3.889"/>
				<ellipse fill="#6097D1" cx="123.661" cy="112.998" rx="3.881" ry="3.889"/>
				<ellipse fill="#6097D1" cx="43.457" cy="124.323" rx="3.881" ry="3.887"/>
				<circle fill="#6097D1" cx="57.972" cy="124.323" r="3.882"/>
				<ellipse fill="#6097D1" cx="72.484" cy="124.323" rx="3.881" ry="3.887"/>
				<circle fill="#6097D1" cx="86.997" cy="124.323" r="3.882"/>
				<ellipse fill="#6097D1" cx="101.51" cy="124.323" rx="3.88" ry="3.887"/>
				<ellipse fill="#6097D1" cx="116.023" cy="124.323" rx="3.881" ry="3.887"/>
				<ellipse fill="#6097D1" cx="130.538" cy="124.323" rx="3.881" ry="3.887"/>
				<circle fill="#6097D1" cx="36.583" cy="135.476" r="3.882"/>
				<circle fill="#6097D1" cx="51.094" cy="135.476" r="3.881"/>
				<circle fill="#6097D1" cx="65.607" cy="135.476" r="3.882"/>
				<circle fill="#6097D1" cx="80.121" cy="135.476" r="3.881"/>
				<circle fill="#6097D1" cx="94.633" cy="135.476" r="3.882"/>
				<circle fill="#6097D1" cx="109.147" cy="135.476" r="3.882"/>
				<circle fill="#6097D1" cx="123.661" cy="135.476" r="3.881"/>
			</g>
		</g>
	</g>
	<g>
		<g>
			<path fill="#7F852E" d="M24.705,136.658c7.242,1.104,14.482-1.103,21.723,0c0-6.134,0-12.272,0-18.406
				c-7.24-1.107-14.48,1.104-21.723,0c1.296,3.266,2.592,6.426,3.885,9.517C27.297,130.813,26.001,133.791,24.705,136.658z"/>
			<polygon fill="#21351A" points="34.007,132.467 46.428,136.658 46.428,127.457 			"/>
		</g>
		<g>
			<path fill="#7F852E" d="M144.32,136.658c-7.241,1.104-14.482-1.103-21.721,0c0-6.134,0-12.272,0-18.406
				c7.238-1.107,14.479,1.104,21.721,0c-1.296,3.266-2.589,6.426-3.883,9.517C141.731,130.813,143.024,133.791,144.32,136.658z"/>
			<polygon fill="#21351A" points="135.019,132.467 122.6,136.658 122.6,127.457 			"/>
		</g>
		<rect x="34.028" y="110.615" fill="#A9B240" width="100.859" height="21.853"/>
	</g>
	<g>
		<path fill="#FFFFFF" d="M80.724,115.626c0.824,0,1.097,0.67,1.097,1.181v2.271c0,0.711-0.414,1.083-0.934,1.083h-0.93v-4.534
			H80.724 M77.604,113.631v16.099h3.745c1.312,0,2.819-0.741,2.819-2.996v-3.312c0-1.694-1.093-2.084-1.661-2.26v-0.04
			c0.765-0.212,1.584-0.526,1.584-2.331v-1.611c0-2.613-1.193-3.548-3.347-3.548H77.604 M80.821,122.124
			c0.647,0,0.999,0.586,0.999,1.174v3.259c0,0.665-0.272,1.174-0.999,1.174h-0.864v-5.606H80.821z"/>
		<path fill="#FFFFFF" d="M100.673,123.184c-0.088-1.457-1.207-1.81-2.253-1.946v-0.037c1-0.102,2.067-0.467,2.067-2.688v-1.455
			c0-2.033-0.958-3.427-3.072-3.427h-3.453v16.099h2.351v-7.527h0.633c1.094-0.044,1.449,0.334,1.449,1.295
			c0,1.856-0.109,4.411,0.293,6.25h2.37C100.673,127.547,100.81,125.313,100.673,123.184 M98.141,119.337
			c0,0.786-0.889,0.84-1.828,0.865v-4.576h0.765c0.487,0,1.063,0.223,1.063,0.867V119.337z"/>
		<path fill="#FFFFFF" d="M88.983,127.601c-0.76,0-1.17-0.857-1.17-6.52c0-4.383,0.41-5.31,1.17-5.31
			c0.787,0,1.195,0.927,1.195,5.31C90.179,126.744,89.771,127.601,88.983,127.601 M88.983,113.493c-1.884,0-3.475,1.679-3.475,7.483
			c0,7.278,1.591,8.9,3.475,8.9c1.911,0,3.502-1.622,3.502-8.9C92.485,115.171,90.895,113.493,88.983,113.493z"/>
		<path fill="#FFFFFF" d="M108.745,122.907c0.03-0.596,0.043-1.238,0.043-1.931c0-5.805-1.591-7.483-3.501-7.483
			c-1.884,0-3.474,1.679-3.474,7.483c0,7.278,1.59,8.9,3.474,8.9c1.397,0,2.616-0.867,3.177-4.166h-2.162
			c-0.189,1.562-0.532,1.891-1.015,1.891c-0.669,0-1.063-0.669-1.149-4.694H108.745 M104.123,120.952
			c0.006-4.263,0.414-5.18,1.164-5.18c0.783,0,1.186,0.917,1.196,5.18H104.123z"/>
		<path fill="#FFFFFF" d="M116.901,122.907c0.028-0.596,0.039-1.238,0.039-1.931c0-5.805-1.587-7.483-3.501-7.483
			c-1.881,0-3.473,1.679-3.473,7.483c0,7.278,1.592,8.9,3.473,8.9c1.395,0,2.62-0.867,3.181-4.166h-2.167
			c-0.189,1.562-0.53,1.891-1.014,1.891c-0.666,0-1.065-0.669-1.148-4.694H116.901 M112.274,120.952
			c0.008-4.263,0.413-5.18,1.165-5.18c0.779,0,1.188,0.917,1.196,5.18H112.274z"/>
		<path fill="#FFFFFF" d="M54.932,127.578c-0.758-0.119-1.559-0.973-1.559-6.637c0-4.378,0.603-5.31,1.361-5.31
			c0.636,0,1.219,0.604,1.346,3.117h2.17c-0.345-4.123-1.855-5.395-3.516-5.395c-1.882,0-3.666,1.684-3.666,7.486
			c0,7.28,1.784,8.89,3.666,8.89h3.614v-8.089h-3.172v2.032h1.097v3.904H54.932z"/>
		<polygon fill="#FFFFFF" points="63.597,129.73 61.244,129.73 61.244,123.728 58.209,113.631 60.526,113.631 62.439,120.935 
			62.48,120.935 64.312,113.631 66.632,113.631 63.597,123.728 		"/>
		<polygon fill="#FFFFFF" points="69.077,113.631 71.269,120.935 71.309,120.935 73.633,113.631 75.26,113.631 75.966,129.73 
			73.633,129.73 73.493,119.972 73.455,119.972 71.6,125.878 71.07,125.878 69.233,120.106 69.196,120.106 69.077,129.73 
			66.746,129.73 67.487,113.631 		"/>
		<path fill="#FFFFFF" d="M116.823,128.764h0.224c0.176,0,0.239,0.049,0.239,0.163c0,0.148-0.08,0.173-0.279,0.173h-0.184V128.764
			 M116.823,129.241h0.171l0.291,0.479h0.198l-0.296-0.483c0.139-0.021,0.266-0.104,0.266-0.303c0-0.204-0.127-0.312-0.379-0.312
			h-0.418v1.098h0.167V129.241 M117.017,130.108c0.514,0,0.941-0.407,0.941-0.94c0-0.532-0.428-0.935-0.941-0.935
			c-0.515,0-0.95,0.402-0.95,0.935C116.066,129.701,116.502,130.108,117.017,130.108 M117.017,129.956
			c-0.435,0-0.765-0.339-0.765-0.788c0-0.445,0.33-0.786,0.765-0.786c0.429,0,0.763,0.341,0.763,0.786
			C117.779,129.617,117.445,129.956,117.017,129.956z"/>
	</g>
	<g>
		
			<image overflow="visible" opacity="0.75" width="70" height="48" xlink:href="CB5F480A73611755.png"  transform="matrix(1 0 0 1 8.8672 65.77)">
		</image>
		<g>
			<g>
				<path fill="#FFFFFF" d="M37.819,85.11c2.723-6.97,4.914-14.062,7.979-16.724l1.39,0.651
					c-2.194,10.159-3.709,19.757-3.709,26.818c0,7.31,1.639,11.958,5.843,11.958c2.32,0,3.651-1.367,4.515-3.535l1.611,0.561
					c-1.146,2.878-3.095,4.363-5.753,4.363c-5.972,0-8.07-5.201-8.07-13.194c0-0.615,0.028-1.296,0.028-1.978
					c0-3.223-1.236-5.576-3.062-7.126c-3.123,8.331-7.298,16.103-15.649,16.103c-7.636,0-11.259-5.636-11.259-11.519
					c0-6.442,4.304-13.162,12.406-13.162c4.141,0,6.554,2.201,7.484,4.954C33.832,83.344,36.026,83.963,37.819,85.11z
					 M29.932,83.344c-0.802-2.323-2.782-4.147-5.968-4.147c-6.805,0-10.546,6.377-10.546,12.387c0,5.387,3.031,10.495,9.649,10.495
					c7.05,0,11.103-7.77,14.353-15.979c-1.61-1.053-3.56-1.547-5.568-1.609c0.093,0.496,0.158,0.989,0.158,1.485
					c0,3.502-2.044,7.156-5.726,8.334c-0.184-0.497-0.434-0.995-0.619-1.49c3.062-0.988,4.638-4.024,4.638-6.933
					c0-0.437-0.03-0.87-0.123-1.272c-4.207,0.372-8.228,2.788-9.154,6.875c-0.525-0.153-1.051-0.34-1.61-0.494
					C20.5,86.378,25.111,83.685,29.932,83.344z M44.469,71.607c-2.009,3.716-3.558,9.014-5.504,14.279
					c1.39,1.111,2.412,2.599,2.936,4.52c0.524-5.916,1.794-12.854,3.341-20.065C44.931,70.708,44.718,71.175,44.469,71.607z"/>
				<path fill="#FFFFFF" d="M44.525,95.76c0.06-0.431,0.374-2.629,1.055-4.734c0.585-3.347,1.236-7.094,1.514-9.383h1.67
					l-0.743,4.305c1.115-2.324,2.257-4.433,4.115-4.433c0.986,0,1.574,0.715,1.574,1.987c0,2.597-2.163,7.399-2.163,9.938
					c0,0.835,0.308,1.145,0.743,1.145c1.017,0,2.286-2.726,3.647-6.285c0.187,0,0.557,0.25,0.557,0.311l-0.34,0.896
					c-1.21,3.217-2.657,6.41-4.517,6.41c-1.021,0-1.764-0.775-1.764-2.198c0-2.88,2.196-7.899,2.196-9.882
					c0-0.742-0.216-1.145-0.71-1.145c-1.021,0-2.877,2.881-4.019,6.94l-1.147,6.127H44.525z M47.989,79.538
					c0.494-0.654,1.177-0.809,1.914-0.809h0.25c0.866,0.063,1.734,0.311,2.444,0.311c0.899,0,1.236-0.216,1.576-0.526l0.713,0.932
					c-0.403,0.431-0.929,0.706-1.671,0.706c-1.08,0-2.228-0.613-3.249-0.613c-0.523,0-0.989,0.153-1.392,0.613L47.989,79.538z"/>
				<path fill="#FFFFFF" d="M66.357,88.611c-0.771,2.043-1.887,3.342-3.402,3.777c-0.988,2.012-2.568,3.592-4.174,3.592
					c-3.558,0-3.743-5.141-2.229-10.436l0.96,0.246c0.433-2.288,1.792-4.304,3.957-4.304c3.277,0,3.496,5.729,1.825,10.002
					c1.023-0.494,1.794-1.362,2.507-3.188C65.951,88.3,66.42,88.422,66.357,88.611z M61.225,92.572
					c-2.662-0.214-3.742-2.539-3.806-5.015c-0.465,2.602-1.082,7.521,1.362,7.521C59.771,95.078,60.667,94.031,61.225,92.572z
					 M61.564,91.705c1.607-4.055,1.854-9.414-0.156-9.414C57.976,82.291,56.678,91.705,61.564,91.705z"/>
				<path fill="#FFFFFF" d="M66.292,93.131c0,0.865,0.53,1.581,1.425,1.581c1.145,0,1.949-1.303,1.949-2.787
					c0-2.232-1.177-4.587-1.764-7.743c-0.495,1.608-1.08,3.22-1.548,4.429c0,0-0.553-0.096-0.553-0.311
					c0.49-1.396,1.266-3.407,1.881-5.327c-0.121-0.683-0.183-1.423-0.183-2.635c0-1.114,0.308-2.165,0.557-3.034l1.3,0.247
					c-0.157,1.766-0.372,3.128-0.774,4.46c0.185,3.127,2.723,6.752,2.723,9.758c0,0.248-0.033,0.493-0.095,0.71
					c0.651-1.083,1.269-2.477,1.919-4.179c0.155,0,0.554,0.215,0.554,0.311c-1.051,2.478-2.631,7.369-6.121,7.369
					c-1.36,0-2.815-0.838-2.688-2.786L66.292,93.131z"/>
			</g>
		</g>
	</g>
	<g>
		
			<image overflow="visible" opacity="0.69" width="26" height="9" xlink:href="CB5F480A73611757.png"  transform="matrix(1 0 0 1 73.0654 19.9683)">
		</image>
		<g>
			<g>
				<polygon fill="#FFFFFF" points="88.204,23.375 88.728,22.334 89.232,23.382 90.385,23.557 89.546,24.366 89.736,25.516 
					88.709,24.965 87.676,25.501 87.878,24.354 87.053,23.537 				"/>
				<polygon fill="#FFFFFF" points="92.565,23.375 93.088,22.334 93.594,23.382 94.744,23.557 93.906,24.366 94.096,25.516 
					93.07,24.965 92.034,25.501 92.24,24.354 91.414,23.537 				"/>
				<polygon fill="#FFFFFF" points="75.123,23.375 75.644,22.334 76.152,23.382 77.303,23.557 76.464,24.366 76.654,25.516 
					75.627,24.965 74.594,25.501 74.798,24.354 73.971,23.537 				"/>
				<polygon fill="#FFFFFF" points="79.483,23.375 80.006,22.334 80.514,23.382 81.663,23.557 80.825,24.366 81.016,25.516 
					79.987,24.965 78.955,25.501 79.16,24.354 78.331,23.537 				"/>
				<polygon fill="#FFFFFF" points="83.748,22.8 84.367,21.568 84.971,22.808 86.332,23.016 85.339,23.975 85.562,25.333 
					84.349,24.683 83.122,25.32 83.364,23.959 82.384,22.991 				"/>
			</g>
		</g>
	</g>
	<g>
		
			<image overflow="visible" opacity="0.75" width="81" height="80" xlink:href="CB5F480A73611754.png"  transform="matrix(1 0 0 1 49.8672 26.77)">
		</image>
		<g>
			<g>
				<path fill="#FFFFFF" d="M66.717,29.387c3.902,0,7.441,1.331,10.609,3.987c-0.087,0-0.131,0.043-0.131,0.133h0.131
					c0-0.09,0.045-0.133,0.135-0.133c3.36,2.95,5.039,6.538,5.039,10.76c0,4.132-1.767,7.631-5.305,10.494
					c-2.36,1.684-5.806,3.675-10.348,5.979c-2.271,1.372-4.26,2.922-5.971,4.648l0.797,0.134l0.663-0.134
					c0.087,0,0.224,0.045,0.398,0.134l0.662-0.134l0.53,0.134l0.665-0.134c0.09,0,0.221,0.045,0.396,0.134l0.664-0.134l0.53,0.134
					l0.664-0.134c0.089,0,0.22,0.045,0.4,0.134l0.661-0.134l0.531,0.134l0.53-0.134l0.529,0.134l0.663-0.134l0.531,0.134
					l0.532-0.134l0.53,0.134l0.664-0.134c0.088,0,0.219,0.045,0.396,0.134l0.664-0.134c0.087,0,0.219,0.045,0.397,0.134
					c2.814,0,4.582-1.019,5.307-3.056c0.531-1.786,0.927-3.602,1.193-5.445h0.929c0,0.131,0.132,0.31,0.399,0.53
					c-1.328,9.182-2.169,14.716-2.521,16.604H53.051c-0.219-0.265-0.396-0.397-0.53-0.397v-0.267l0.134-0.264h-0.134
					c0.237-2.317,1.783-5.241,4.643-8.768c7.931-7.589,11.909-11.485,11.938-11.691c2.302-3.024,3.45-6.524,3.45-10.494
					c0-4.503-0.93-7.381-2.786-8.635c-1.075-0.62-2.183-0.931-3.317-0.931h-1.06c-3.391,0-6.309,1.859-8.757,5.579
					c-0.884,1.801-1.324,3.529-1.324,5.181v0.531h0.133c0.706-3.01,2.209-4.515,4.51-4.515c0.795,0,1.899,0.442,3.316,1.328
					l-0.132,0.265c1.061,1.167,1.591,2.584,1.591,4.253c0,3.024-1.459,5.062-4.379,6.108c-0.633,0.09-0.988,0.135-1.061,0.135
					c-2.919,0-4.996-1.816-6.235-5.446c-0.354-0.887-0.53-2.038-0.53-3.456v-0.132c0-6.154,2.92-10.272,8.755-12.355
					C63.001,29.611,64.813,29.387,66.717,29.387z M82.104,57.55c0.619,0.415,0.928,0.858,0.928,1.328
					c-1.504,10.334-2.343,15.825-2.521,16.473H54.776c-0.708,0-1.238-0.309-1.592-0.928l0.663,0.132h25.869
					c0.263-1.492,1.104-7.026,2.521-16.604C82.146,57.773,82.104,57.64,82.104,57.55z M53.449,72.564h0.132l6.369-6.511h-0.267
					C55.528,70.01,53.449,72.179,53.449,72.564z M53.848,42.408c0.09,1.431,0.265,2.449,0.53,3.056h0.265l-0.265-2.392
					c0-5.048,2.521-8.679,7.562-10.893c1.119-0.268,1.96-0.398,2.52-0.398h1.592c1.415,0,2.831,0.619,4.245,1.859v-0.133
					c-1.53-1.507-3.124-2.259-4.776-2.259h-1.193c-4.495,0-7.811,2.567-9.948,7.707C54.112,40.208,53.938,41.36,53.848,42.408z
					 M53.848,71.101h0.133l4.907-5.048h-0.396C55.396,68.93,53.848,70.615,53.848,71.101z M53.98,72.83h0.397
					c0.25-0.148,2.505-2.408,6.767-6.776h-0.399C60.495,66.202,58.239,68.46,53.98,72.83z M54.112,46.792l0.266,0.132
					c0-0.044,0.177-0.265,0.531-0.664h-0.267C54.51,46.259,54.333,46.436,54.112,46.792z M54.51,47.456
					c0.031,0.177,0.118,0.265,0.267,0.265l6.897-7.039l-0.266-0.134C61.159,40.695,58.859,42.998,54.51,47.456z M54.909,68.842
					h0.132l2.653-2.789H57.43C55.748,67.574,54.909,68.504,54.909,68.842z M55.041,48.121v0.131h0.131
					c0.148-0.043,2.493-2.392,7.033-7.04v-0.133h-0.132C61.924,41.124,59.581,43.47,55.041,48.121z M55.172,72.83h0.269
					c0.247-0.148,2.506-2.408,6.765-6.776h-0.266C61.688,66.202,59.433,68.46,55.172,72.83z M62.47,41.611l-7.029,7.172l0.263,0.134
					c0.148-0.044,2.493-2.392,7.032-7.039C62.735,41.7,62.648,41.611,62.47,41.611z M55.971,44.932v0.267
					c0.116,0,1.752-1.64,4.906-4.916h-0.263C60.479,40.313,58.933,41.862,55.971,44.932z M63.665,41.211h0.131
					c1.505,1.388,2.255,3.158,2.255,5.313c-0.499,4.163-2.355,6.244-5.571,6.244c-1.755,0-3.258-0.709-4.509-2.124h0.132
					c1.238,0.885,2.478,1.327,3.713,1.327c1.329,0,2.564-0.575,3.716-1.728c1.062-1.24,1.591-2.612,1.591-4.118v-0.928
					C65.122,43.78,64.637,42.451,63.665,41.211z M62.867,42.408l-6.765,6.908l0.265,0.132l6.768-6.908L62.867,42.408z
					 M56.234,43.868c0.104,0,1.343-1.238,3.716-3.718h-0.398C57.341,42.127,56.234,43.369,56.234,43.868z M56.234,72.83h0.397
					c0.251-0.148,2.507-2.408,6.766-6.776h-0.396C62.751,66.202,60.495,68.46,56.234,72.83z M63.135,43.206l-6.37,6.508l0.267,0.134
					c0.19-0.075,2.314-2.2,6.366-6.377C63.397,43.292,63.31,43.206,63.135,43.206z M57.031,41.877h0.132l1.194-1.33
					C58.062,40.547,57.62,40.99,57.031,41.877z M57.43,72.83h0.265c0.252-0.148,2.506-2.408,6.765-6.776h-0.264
					C63.942,66.202,61.688,68.46,57.43,72.83z M57.694,49.98v0.133h0.133c0.177-0.061,2.077-1.965,5.704-5.714v-0.265
					C63.412,44.134,61.469,46.083,57.694,49.98z M77.595,33.772v0.134c2.385,2.435,3.581,5.403,3.581,8.899
					c0,6.008-3.805,10.703-11.41,14.083c0,0.088-1.856,1.149-5.57,3.187c-1.903,1.227-3.849,2.91-5.838,5.049l-0.134,0.266
					c0.827,0,1.578-0.487,2.256-1.461c3.006-2.613,6.812-5.05,11.411-7.306c6.541-3.293,9.816-7.72,9.816-13.286
					C81.707,39.544,80.335,36.355,77.595,33.772z M58.492,50.245h0.396c3.097-2.893,4.644-4.529,4.644-4.915v-0.131
					C63.412,45.199,61.733,46.879,58.492,50.245z M58.492,72.83h0.396c0.251-0.148,2.505-2.408,6.766-6.776h-0.396
					C65.006,66.202,62.751,68.46,58.492,72.83z M59.684,72.83h0.267c0.25-0.148,2.506-2.408,6.767-6.776h-0.269
					C66.201,66.202,63.942,68.46,59.684,72.83z M63.135,46.659l-3.319,3.454h0.135c2.211-1.861,3.316-3.012,3.316-3.454H63.135z
					 M60.745,72.83h0.265c0.251-0.148,2.507-2.408,6.768-6.776h-0.267C67.261,66.202,65.006,68.46,60.745,72.83z M61.939,72.83
					h0.266c0.251-0.148,2.507-2.408,6.766-6.776h-0.266C68.454,66.202,66.201,68.46,61.939,72.83z M63.001,72.83h0.266
					c0.25-0.148,2.506-2.408,6.765-6.776h-0.266C69.516,66.202,67.261,68.46,63.001,72.83z M64.195,72.83h0.264
					c0.253-0.148,2.505-2.408,6.768-6.776H70.96C70.71,66.202,68.454,68.46,64.195,72.83z M65.257,72.83h0.263
					c0.253-0.148,2.507-2.408,6.767-6.776h-0.264C71.771,66.202,69.516,68.46,65.257,72.83z M79.849,43.47L65.787,57.684
					c0.382-0.015,3.61-3.158,9.683-9.433c3.009-2.803,4.51-4.398,4.51-4.781H79.849z M66.317,72.83h0.399
					c0.247-0.148,2.504-2.408,6.765-6.776h-0.398C72.832,66.202,70.576,68.46,66.317,72.83z M67.111,30.451h0.268
					c0.175,0,0.265-0.088,0.265-0.266h-0.265C67.201,30.216,67.111,30.304,67.111,30.451z M67.511,72.83h0.267
					c0.249-0.148,2.505-2.408,6.766-6.776h-0.269C74.027,66.202,71.771,68.46,67.511,72.83z M67.909,30.718l0.266,0.132l0.396-0.531
					h-0.264C68.175,30.319,68.041,30.451,67.909,30.718z M68.175,56.357c0.501,0,3.154-2.524,7.959-7.574
					c2.388-2.154,3.583-3.482,3.583-3.983C75.974,48.429,72.124,52.282,68.175,56.357z M68.571,31.116
					c0.09,0,0.223,0.044,0.399,0.133l0.661-0.798h-0.396C69.116,30.451,68.896,30.671,68.571,31.116z M68.571,72.83h0.399
					c0.25-0.148,2.551-2.451,6.898-6.909c-0.487,0-1.857,1.239-4.112,3.721C71.637,69.641,70.576,70.702,68.571,72.83z
					 M70.163,30.584c-0.531,0.575-0.794,0.886-0.794,0.931l0.263,0.133c0-0.045,0.268-0.354,0.799-0.93L70.163,30.584z
					 M69.766,72.83h0.266c1.238-1.139,3.669-3.572,7.295-7.309C76.959,65.521,74.438,67.958,69.766,72.83z M69.899,32.046
					l0.264,0.133c0.119,0,0.516-0.398,1.196-1.195V30.85h-0.267C70.976,30.85,70.576,31.249,69.899,32.046z M70.031,52.636h0.132
					l9.816-9.962v-0.401C73.348,48.695,70.031,52.149,70.031,52.636z M70.562,32.577v0.132h0.132c0.12,0,0.604-0.486,1.459-1.46
					v-0.133h-0.131C71.905,31.116,71.418,31.603,70.562,32.577z M79.186,46.392l-8.357,8.502c0.382,0,3.169-2.699,8.357-8.103
					c0-0.089,0.043-0.221,0.132-0.399H79.186z M70.828,72.83h0.398c1.442-1.345,4.186-4.089,8.222-8.236v-0.399
					C76.266,67.278,73.393,70.158,70.828,72.83z M72.684,31.381l-1.724,1.859l0.267,0.134c0.133,0,0.751-0.62,1.856-1.859
					C72.995,31.515,72.861,31.47,72.684,31.381z M73.481,31.781l-1.99,2.125v0.133h0.131c0.12,0,0.827-0.707,2.124-2.127
					L73.481,31.781z M71.757,49.713h0.134l8.089-8.236v-0.131h-0.131C74.454,46.541,71.757,49.33,71.757,49.713z M71.891,34.57
					c0.027,0.177,0.116,0.265,0.263,0.265l2.39-2.522l-0.269-0.133C74.158,32.179,73.363,32.975,71.891,34.57z M79.186,65.521
					l-7.163,7.309h0.264c4.687-4.504,7.031-6.938,7.031-7.309H79.186z M72.286,35.369v0.263c0.12,0,1.047-0.928,2.788-2.787v-0.136
					h-0.136C74.821,32.708,73.939,33.596,72.286,35.369z M75.47,33.109l-2.918,3.056v0.266h0.132c0.118,0,1.181-1.062,3.186-3.189
					C75.78,33.241,75.648,33.197,75.47,33.109z M72.552,47.855c1.239-1.136,3.67-3.572,7.297-7.308v-0.265h-0.132
					c-4.688,4.529-7.033,6.922-7.033,7.173C72.597,47.632,72.552,47.767,72.552,47.855z M76.134,33.64l-3.316,3.453v0.266
					c0.104,0,1.298-1.194,3.583-3.587L76.134,33.64z M76.665,34.171c0,0.104-1.238,1.342-3.715,3.719
					c0.09,0.178,0.133,0.31,0.133,0.4c0.102,0,1.386-1.285,3.848-3.854C76.931,34.259,76.84,34.171,76.665,34.171z M72.95,45.996
					v0.264c0.118,0,2.328-2.213,6.635-6.642v-0.265C79.464,39.353,77.254,41.566,72.95,45.996z M73.083,72.83h0.398
					c0.175-0.061,2.034-1.92,5.571-5.58V66.85C78.933,66.85,76.945,68.842,73.083,72.83z M77.195,34.834l-3.98,4.121v0.262
					c0.118,0,1.532-1.415,4.246-4.249L77.195,34.834z M73.215,40.018v0.265h0.133l4.643-4.518c-0.088-0.177-0.133-0.31-0.133-0.396
					C77.726,35.398,76.178,36.947,73.215,40.018z M73.215,44.533v0.399l6.233-6.111c-0.087-0.177-0.131-0.311-0.131-0.399
					C79.201,38.421,77.167,40.458,73.215,44.533z M78.124,36.165l-4.776,4.914v0.268c0.119,0,1.799-1.684,5.041-5.05L78.124,36.165z
					 M78.521,36.828l-5.174,5.314v0.397c0.178-0.059,1.99-1.873,5.439-5.446C78.787,36.918,78.699,36.828,78.521,36.828z
					 M73.348,43.336v0.266c0.178-0.059,2.079-1.961,5.705-5.712v-0.265C78.874,37.684,76.973,39.588,73.348,43.336z M78.256,48.385
					l-4.908,5.047h0.134c3.271-2.744,4.907-4.428,4.907-5.047H78.256z M78.787,68.177l-4.513,4.652h0.269
					c2.918-2.717,4.376-4.268,4.376-4.652H78.787z M75.338,72.83h0.398c0.117,0,1.089-0.976,2.918-2.925v-0.397
					C78.537,69.507,77.43,70.615,75.338,72.83z M78.389,70.835l-1.855,1.994h0.264c1.15-0.976,1.725-1.641,1.725-1.994H78.389z
					 M77.595,72.83h0.396c0.178,0,0.266-0.091,0.266-0.266v-0.398C78.139,72.166,77.915,72.386,77.595,72.83z"/>
				<path fill="#FFFFFF" d="M88.892,36.706c4.21,1.727,9.386,2.59,15.525,2.59c7.062,0,12.668-0.803,16.815-2.405
					c0.494,0.698,0.74,1.192,0.74,1.479c-4.436,8.638-12.198,12.955-23.285,12.955c-2.916,0-6.058-0.309-9.425-0.926
					c-1.108,8.945-1.726,14.374-1.849,16.285c0.718,0,1.15-1.85,1.294-5.552c0.759-6.208,1.253-9.541,1.478-9.994
					c3.082,0.617,6.285,0.925,9.61,0.925c9.118,0,16.201-3.33,21.252-9.992l1.663-2.96c-0.244-0.618-0.37-1.048-0.37-1.295
					c0.986,0.657,1.479,1.459,1.479,2.405c-1.58,3.701-4.537,6.909-8.869,9.622c-4.559,2.22-9.055,3.333-13.489,3.333h-1.665
					c-1.827,0-4.723-0.248-8.687-0.741v0.186C90.495,57.33,90,61.524,89.632,65.205c3.572-2.591,7.763-3.888,12.567-3.888
					c6.096,0,11.272,1.913,15.522,5.739c3.819,4.029,5.728,8.716,5.728,14.062c0,7.363-3.633,12.977-10.903,16.842
					c-3.183,1.479-6.753,2.222-10.717,2.222h-2.033c-5.379,0-9.938-1.605-13.676-4.812c0,0.122-0.061,0.185-0.183,0.185
					c-2.22-3.104-3.329-5.758-3.329-7.957v-1.111c0-3.31,1.603-5.592,4.806-6.848h1.662c2.239,0,4.025,1.606,5.36,4.814
					c0.246,0.861,0.368,1.602,0.368,2.22v0.555c0,2.468-1.477,4.751-4.434,6.847v1.11c0,0.186,0.244,0.433,0.738,0.741
					c0-1.213,0.678-2.138,2.035-2.776c1.6-1.522,2.4-3.372,2.4-5.552c0-1.871-0.554-3.536-1.662-4.996v-0.185
					c1.848,1.521,2.771,3.558,2.771,6.104v0.557c0,2.57-1.417,4.791-4.25,6.662l-0.185,0.925c2.198,0.864,4.662,1.296,7.393,1.296
					h0.554l0.369-0.186v0.186c3.121-0.576,5.278-1.438,6.47-2.591c2.957-2.798,4.434-7.793,4.434-14.991v-3.146l-0.184-0.37h0.184
					c0-2.447-0.861-5.345-2.587-8.697c-1.785-1.729-3.881-2.592-6.284-2.592h-0.554c-4.044,0-8.48,2.098-13.305,6.295h-0.742
					c-0.676,0-1.291-0.434-1.846-1.299l0.926,0.186c0.491,0,2.091-1.11,4.803-3.33c3.225-1.974,5.996-2.961,8.316-2.961h1.848
					c1.768,0,3.677,0.74,5.729,2.22V66.5c-2.177-1.85-4.394-2.776-6.652-2.776H99.98c-3.964,0-8.337,2.098-13.123,6.29h-0.92
					c-0.188,0-0.433-0.245-0.74-0.738C87.414,49.125,88.646,38.269,88.892,36.706z M83.718,86.672v0.369
					c0.163,0,2.196-2.035,6.099-6.105h-0.369C89.263,80.957,87.353,82.867,83.718,86.672z M83.718,88.152v0.369h0.185
					c0.164,0,2.506-2.343,7.022-7.031l-0.369-0.184C90.391,81.306,88.112,83.589,83.718,88.152z M83.902,85.376
					c0.164,0,1.705-1.543,4.621-4.628h-0.558C85.258,83.115,83.902,84.657,83.902,85.376z M84.089,89.447v0.37
					c0.244-0.081,2.769-2.61,7.575-7.587v-0.184h-0.185C91.274,82.085,88.811,84.553,84.089,89.447z M84.458,90.557v0.558
					l7.945-7.774c-0.122-0.247-0.185-0.432-0.185-0.555C91.973,82.867,89.385,85.459,84.458,90.557z M84.829,91.854l0.368,0.186
					l7.577-7.773v-0.37C92.526,83.978,89.877,86.631,84.829,91.854z M85.749,81.675l-0.552,0.741h0.183l0.558-0.741H85.749z
					 M85.38,92.78l0.369,0.185c0.205-0.042,2.671-2.51,7.396-7.402v-0.556C92.896,85.089,90.31,87.679,85.38,92.78z M86.12,93.704
					l0.368,0.187l6.656-6.849v-0.369C92.979,86.672,90.637,89.017,86.12,93.704z M119.386,68.535
					c3.941,3.928,5.912,8.616,5.912,14.066v0.369c0,8.473-4.558,14.456-13.675,17.954c-1.93,0.614-4.887,1.048-8.87,1.295
					c-6.776,0-12.138-1.976-16.078-5.924V96.11c3.758,3.209,8.562,4.814,14.415,4.814h1.293c10.227,0,17.188-4.382,20.884-13.142
					c0.615-2.284,0.923-4.382,0.923-6.293c0-4.543-1.601-8.801-4.804-12.77V68.535z M92.774,88.336l-5.917,6.108l0.371,0.184
					c3.799-3.558,5.709-5.655,5.729-6.292H92.774z M87.783,95.184l0.371,0.186l0.554-0.741v-0.369
					C88.542,94.259,88.234,94.567,87.783,95.184z M88.708,47.438c0.246-0.081,2.771-2.611,7.576-7.587h-0.37
					C91.109,44.374,88.708,46.904,88.708,47.438z M88.708,48.733v0.186c0.327,0,3.346-2.96,9.056-8.883h-0.369
					C97.229,40.036,94.334,42.936,88.708,48.733z M88.708,95.74v0.186h0.555c-0.126-0.248-0.187-0.434-0.187-0.556
					C88.83,95.412,88.708,95.535,88.708,95.74z M94.622,39.479c-3.819,3.806-5.73,5.904-5.73,6.294c0.165,0,2.197-2.036,6.1-6.108
					L94.622,39.479z M89.076,44.108c0.267-0.103,1.868-1.707,4.807-4.812h-0.555C90.495,41.784,89.076,43.389,89.076,44.108z
					 M92.033,38.926c-1.848,1.849-2.771,2.96-2.771,3.33h0.185l2.956-3.146L92.033,38.926z M90.74,38.554
					c-0.779,0.783-1.212,1.462-1.293,2.035h0.185l1.663-1.849C91.172,38.741,90.985,38.679,90.74,38.554z M90,48.918h0.371
					c0.164,0,3.059-2.899,8.686-8.697v-0.186h-0.185C98.604,40.138,95.646,43.101,90,48.918z M91.479,49.105v0.184h0.185
					c0.165,0,3.184-3.022,9.057-9.067h-0.372C100.084,40.326,97.125,43.285,91.479,49.105z M92.774,49.289l0.37,0.186l8.868-9.068
					h-0.368C101.377,40.508,98.42,43.47,92.774,49.289z M94.066,49.474h0.556c0.163,0,3.184-3.022,9.057-9.068h-0.558
					C102.957,40.406,99.938,43.428,94.066,49.474z M95.545,49.659h0.369c0.165,0,3.245-3.084,9.241-9.253h-0.368
					C104.622,40.406,101.541,43.49,95.545,49.659z M97.022,49.659h0.557c0.163,0,3.242-3.084,9.237-9.253h-0.553
					C106.1,40.406,103.019,43.49,97.022,49.659z M98.688,49.659h0.369c0.165,0,3.245-3.084,9.238-9.253h-0.367
					C107.763,40.406,104.683,43.49,98.688,49.659z M100.165,49.659h0.556c0.348-0.204,3.492-3.351,9.425-9.438h-0.555
					C109.241,40.427,106.1,43.574,100.165,49.659z M102.013,49.474h0.37c0.35-0.206,3.49-3.352,9.425-9.438h-0.185
					C111.273,40.036,108.072,43.183,102.013,49.474z M103.679,49.289h0.183c0.513,0,3.779-3.145,9.795-9.438h-0.37
					C112.938,39.851,109.733,42.995,103.679,49.289z M104.417,62.614v0.371h0.183c0.248,0,0.37-0.125,0.37-0.371H104.417z
					 M106.634,96.85c-1.108,0.823-1.664,1.316-1.664,1.48h0.186c0.308,0,0.862-0.494,1.661-1.48H106.634z M105.34,63.354
					c0.123,0,0.308,0.061,0.556,0.187l0.554-0.741h-0.554C105.708,62.799,105.525,62.985,105.34,63.354z M105.896,48.733h0.183
					c0.329,0,3.411-3.022,9.242-9.068h-0.37C114.786,39.665,111.768,42.688,105.896,48.733z M106.449,63.91v0.186h0.185
					c0.165,0,0.472-0.311,0.924-0.926v-0.185h-0.184C107.208,62.985,106.901,63.292,106.449,63.91z M106.816,97.96h0.188
					c0.534,0,2.936-2.283,7.208-6.846c4.929-4.648,7.391-7.238,7.391-7.774v-0.185C116.367,88.234,111.438,93.168,106.816,97.96z
					 M107.374,64.464c0.04,0.246,0.164,0.37,0.368,0.37l1.295-1.48h-0.555C108.316,63.354,107.948,63.724,107.374,64.464z
					 M107.928,48.179c0.677,0,2.895-2.035,6.652-6.108c0.166,0,1.15-0.985,2.957-2.96c-0.656,0-2.074,1.233-4.251,3.702
					C113.144,42.813,111.357,44.601,107.928,48.179z M108.112,65.389l0.37,0.185l1.663-1.85h-0.371
					C109.61,63.724,109.057,64.279,108.112,65.389z M108.851,66.129c0.041,0.247,0.165,0.371,0.37,0.371l2.033-2.222v-0.184h-0.371
					C110.722,64.095,110.043,64.773,108.851,66.129z M121.048,85.191l-12.011,12.215c0.533,0,3.55-2.899,9.054-8.7
					c2.095-1.85,3.142-3.021,3.142-3.515H121.048z M109.221,94.445h0.185l12.384-12.586V81.49
					C113.532,89.489,109.344,93.807,109.221,94.445z M109.591,67.056v0.184h0.184c0.187,0,1.048-0.863,2.588-2.589h-0.369
					C111.808,64.651,111.008,65.452,109.591,67.056z M112.916,65.02l-2.771,2.961v0.369h0.184c0.166,0,1.213-1.048,3.143-3.146
					C113.349,65.205,113.164,65.142,112.916,65.02z M110.699,47.069c0.533,0,3.428-2.775,8.687-8.328h-0.37
					C118.852,38.741,116.079,41.515,110.699,47.069z M110.699,69.09v0.369c0.164,0,1.397-1.232,3.695-3.699h-0.37
					C113.862,65.76,112.751,66.871,110.699,69.09z M110.883,91.298h0.187l10.72-10.92v-0.555
					c-7.271,7.032-10.906,10.795-10.906,11.291V91.298z M111.069,70.201c0.04,0.247,0.163,0.369,0.368,0.369l3.883-4.069
					l-0.37-0.186C114.786,66.315,113.49,67.61,111.069,70.201z M115.69,67.056l-4.253,4.439l0.37,0.186l4.252-4.441L115.69,67.056z
					 M120.31,87.411l-8.872,9.068c0.659,0,3.369-2.528,8.133-7.587c0.185,0,0.491-0.494,0.924-1.481H120.31z M111.623,88.892h0.185
					l9.981-10.179v-0.185h-0.187C114.95,84.924,111.623,88.379,111.623,88.892z M111.808,72.607v0.371h0.186
					c0.145,0,1.808-1.667,4.988-4.997l-0.368-0.187C116.345,67.9,114.746,69.502,111.808,72.607z M121.232,77.048
					c-6.038,6.045-9.055,9.19-9.055,9.438c0,0.126-0.062,0.309-0.185,0.556h0.185l9.425-9.623
					C121.603,77.17,121.48,77.048,121.232,77.048z M112.178,73.902v0.372c0.143,0,1.932-1.79,5.359-5.368V68.72h-0.188
					C117.208,68.72,115.485,70.448,112.178,73.902z M112.362,75.199v0.554c0.167,0,2.134-1.975,5.915-5.922v-0.371h-0.187
					C117.907,69.48,115.997,71.393,112.362,75.199z M118.646,70.386l-6.284,6.477l0.371,0.186l6.282-6.479L118.646,70.386z
					 M112.362,84.636v0.37c0.267-0.103,3.225-3.065,8.87-8.884v-0.37C120.967,75.856,118.01,78.818,112.362,84.636z M119.199,71.311
					l-6.653,6.847v0.371c0.166,0,2.507-2.343,7.024-7.033L119.199,71.311z M119.755,72.422l-7.209,7.401v0.369
					c0.248-0.08,2.774-2.608,7.578-7.586L119.755,72.422z M112.546,81.306v0.369c0.248-0.081,2.896-2.734,7.948-7.958v-0.37
					C120.249,73.427,117.6,76.081,112.546,81.306z M112.546,82.97v0.37c0.166,0,2.939-2.774,8.317-8.328v-0.369
					C120.698,74.643,117.927,77.418,112.546,82.97z M118.091,40.96l-3.511,3.702h0.185c2.156-2.037,3.326-3.27,3.513-3.702H118.091z
					"/>
			</g>
		</g>
	</g>
</g>
</svg>
