<?xml version="1.0" encoding="utf-8"?>
<!-- Generator: Adobe Illustrator 16.0.0, SVG Export Plug-In . SVG Version: 6.00 Build 0)  -->
<!DOCTYPE svg PUBLIC "-//W3C//DTD SVG 1.1//EN" "http://www.w3.org/Graphics/SVG/1.1/DTD/svg11.dtd">
<svg version="1.1" id="Capa_1" xmlns="http://www.w3.org/2000/svg" xmlns:xlink="http://www.w3.org/1999/xlink" x="0px" y="0px"
	 width="211.111px" height="209.095px" viewBox="0 0 211.111 209.095" enable-background="new 0 0 211.111 209.095"
	 xml:space="preserve">
<g>
	<path fill="#5BAD48" d="M88.605,136.968c4.22,23.528,8.386,44.971,10.787,48.998c8.505,14.271,7.938,12.404,15.438,14.597
		c7.778,2.271,24.655-3.254,30.008-7.836c4.84-4.136,2.927-17.657,2.086-22.562c-0.839-4.886-2.831-8.688-2.159-9.547
		l-39.741-68.286c-6.685,3.679-7.19,3.632-11.797,5.369c-3.998,1.507-9.744,1.873-9.744,1.873L88.605,136.968z"/>
	<path fill="#0072B4" d="M131.945,139.355l-26.921-47.023c7.42-4.271,13.445-9.725,16-14.871c0.046,0.087,0.656,1.219,5.22,5.274
		c4.767,4.237,22.658,14.942,22.658,14.942c0.352,0.068,1.513,0.964,2.967,1.942c0.334,0.221,0.711,0.258,1.066,0.507
		c7.893,5.545,24.632,19.113,31.534,26.52c8.789,9.427,14.358,20.435,12.812,25.599c-2.45,8.192-11.534,17.139-22.118,22.851
		c-8.256,4.461-20.965-6.332-22.605-7.548c-3.3-2.45-7.186-6.355-7.792-6.93L131.945,139.355z"/>
	<path fill="#FFD65A" d="M82.696,93.743c-0.96-0.245-3.469,2.595-4.836,2.024c0,0-3.722,2.721-6.709,3.684
		c-2.08,0.668-6.491,1.615-6.491,1.615s-6.516,0.728-7.624,1.991c0,0-5.244,9.321-3.859,21.6c0,0,10.503,5,29.467,6.827
		c0,0,1.773,0.229,3.042,0.618c2.372,0.734,2.894,5.172,2.894,5.172l64.356-37.147c0,0-2.146-1.077-2.659-3.201
		c-0.404-1.673,0.558-5.311,0.558-5.311c5.585-15.132,8.287-28.521,8.287-28.521c-8.523-8.626-20.938-7.024-20.938-7.024
		s-1.844,0.339-7.148,6.998c-1.358,1.705-3.915,4.2-5.883,5.463c-4.583,2.938-7.393,3.844-7.393,3.844L82.696,93.743z"/>
	<path fill="#FFE69C" d="M69.876,117.533c-1.494,1.695-4.08,1.865-5.777,0.372c-1.699-1.492-1.868-4.081-0.374-5.777
		c1.493-1.701,4.078-1.867,5.778-0.372C71.2,113.245,71.368,115.832,69.876,117.533z"/>
	<path fill="#FFE69C" d="M81.216,121.168c1.127,1.959,0.453,4.462-1.504,5.593c-1.96,1.125-4.462,0.452-5.594-1.509
		c-1.126-1.959-0.451-4.463,1.508-5.592C77.584,118.533,80.089,119.209,81.216,121.168z"/>
	<path fill="#FFE69C" d="M78.661,101.781c1.129,1.958,0.454,4.462-1.508,5.588c-1.959,1.126-4.459,0.454-5.588-1.507
		c-1.127-1.96-0.454-4.462,1.504-5.59C75.031,99.146,77.532,99.817,78.661,101.781z"/>
	<path fill="#FFE69C" d="M64.438,128.355l-3.822-1.008c0.239-0.87,0.82-1.826,1.611-2.393c1.838-1.317,4.396-0.9,5.713,0.938
		c0.801,1.117,0.832,2.184,0.42,3.394L64.438,128.355z"/>
	<path fill="#FFE69C" d="M92.181,124.763c0,0,3.016,6.513,2.786,7.04c-0.154,0.358-0.58,0.53-0.933,0.736
		c-1.958,1.127-4.463,0.453-5.59-1.506c-1.131-1.959-0.455-4.463,1.504-5.59C90.61,125.059,91.466,124.752,92.181,124.763z"/>
	<path fill="#FFE69C" d="M89.462,117.927c-1.742,0.453-3.641-0.288-4.58-1.921c-1.127-1.961,0.033-4.661,1.988-5.792
		C87.028,110.13,89.808,117.836,89.462,117.927z"/>
	<path fill="#FFE69C" d="M55.681,105.746c0.228,0.624,0.609,1.204,1.146,1.675c1.698,1.49,4.286,1.325,5.776-0.375
		c1.343-1.523,1.188-4.242-0.055-5.766c0,0-2.847,0.665-3.41,0.887c-0.559,0.218-2.148,0.811-2.148,0.811L55.681,105.746z"/>
	<path fill="#FFE69C" d="M55.313,125.51c-0.123,0.197-1.826-0.516-1.978-0.937c0,0-0.259,0.151-0.083-2.1
		c0.122-1.564-0.437-3.303-0.143-2.985c0.361,0.392,0.985,0.438,1.408,0.812C56.04,121.631,56.333,123.843,55.313,125.51z"/>
	<circle fill="#FFE69C" cx="120.273" cy="111.036" r="4.095"/>
	<path fill="#FFE69C" d="M108.731,111.36c1.127,1.96,0.455,4.462-1.506,5.594c-0.635,0.361-0.855,0.506-1.539,0.511l-4.201-5.821
		c0.346-0.725,0.908-1.355,1.656-1.789C105.101,108.729,107.604,109.401,108.731,111.36z"/>
	<path fill="#FFE69C" d="M120.897,97.321c0.2-0.041,1.13-0.646,1.13-0.646c0.103,1.508-0.626,2.812-2.026,3.619
		c-1.958,1.128-4.461,0.455-5.59-1.507c-0.246-0.43-0.407-0.889-0.488-1.35c1.627,0.154,1.591,0.166,3.752,0.309
		C119.32,97.852,118.681,97.777,120.897,97.321z"/>
	<path fill="#FFE69C" d="M131.585,72.348c1.129,1.961,0.455,4.465-1.505,5.595c-1.959,1.124-4.461,0.45-5.591-1.508
		c-1.127-1.96-0.453-4.464,1.506-5.594C127.958,69.714,130.459,70.391,131.585,72.348z"/>
	<path fill="#FFE69C" d="M139.831,70.59c2.213-0.469,4.386,0.943,4.855,3.158c0.467,2.212-0.943,4.384-3.158,4.851
		c-2.21,0.472-4.385-0.943-4.854-3.156C136.207,73.231,137.618,71.061,139.831,70.59z"/>
	<path fill="#FFE69C" d="M153.704,77.062c0.764-0.258,1.936-0.052,1.936-0.052c-0.438,1.69-0.823,2.859-1.205,4.082
		c-0.703,2.258-1.225,3.887-1.304,3.851c-1.12-0.534-2.003-1.264-2.464-2.954C150.187,80.238,151.567,77.792,153.704,77.062z"/>
	<circle fill="#FFE69C" cx="141.772" cy="88.078" r="4.095"/>
	<path fill="#FFE69C" d="M138.675,55.798c0,0,6.238,0.625,7.32,0.673c0.207,0.013,0.133,0.401,0.177,0.608
		c0.472,2.212-0.942,4.389-3.155,4.854c-2.211,0.47-4.383-0.942-4.852-3.154C137.938,57.713,138.147,56.657,138.675,55.798z"/>
	<path fill="#FFE69C" d="M152.18,64.241c2.212-0.469,4.386,0.942,4.853,3.153c0.473,2.216-0.948,4.386-3.156,4.855
		c-2.211,0.47-4.384-0.943-4.854-3.156C148.556,66.883,149.967,64.712,152.18,64.241z"/>
	<path fill="#5A3286" d="M121.602,75.568c1.815,0.683,31.934,34.496,30.997,36.68c-3.139,7.317-12.323,10.767-16.67,9.594
		l-17.995-39.875L121.602,75.568z"/>
	<path fill="#5A3286" d="M84.179,96.83c-0.348,1.912,13.198,45.123,15.553,45.438c7.89,1.065,15.564-5.045,16.791-9.377
		l-24.972-35.92L84.179,96.83z"/>
	<path fill="#0072B4" d="M78.351,86.713c0,0,10.543,3.613,22.498-2.42c8.193-4.134,12.988-17.549,12.988-17.549
		s8.305-1.817,8.667,5.354c0.321,6.414-7.287,14.365-17.333,20.147c-10.045,5.782-21.238,9.317-26.234,5.942
		C73.038,94.199,78.351,86.713,78.351,86.713z"/>
	<path fill="#C80752" d="M117.493,79.055c-2.775-3.06-5.787-1.469-7.67,1.067c-1.799,2.423-4.121,7.689-4.328,8.156
		c-1.559-0.899-2.775-0.29-2.775-0.29c-1.06,0.79-1.823,1.522-1.68,2.973c-0.004-0.051-0.013-0.109-0.016-0.158
		c0,0-1.128-0.899-5.565-1.54c-4.438-0.646-6.57,2.472-6.57,2.472s-1.752,4.786,2.458,12.104c4.209,7.313,8.986,6.019,8.986,6.019
		s3.121-1.65,4.345-5.842c1.22-4.19,1.423-5.625,1.423-5.625c-0.021-0.007-0.043-0.017-0.064-0.022
		c0.91,0.312,1.635,0.071,2.075-0.256c0.454-0.332,1.067-0.827,1.288-1.795c0.387,0.124,3.842,1.219,5.227,1.242
		c1.471,0.028,8.055,1.618,9.086-3.915C124.742,88.105,120.267,82.104,117.493,79.055z M102.159,94.054
		c0.12,0.229,0.252,0.467,0.396,0.715C102.411,94.521,102.279,94.282,102.159,94.054z M101.057,91.095
		c0.013,0.113,0.033,0.235,0.063,0.363C101.09,91.33,101.069,91.208,101.057,91.095z M101.136,91.538
		c0.035,0.157,0.08,0.319,0.137,0.491C101.216,91.857,101.171,91.695,101.136,91.538z M101.312,92.146
		c0.046,0.135,0.096,0.274,0.15,0.416C101.407,92.421,101.357,92.281,101.312,92.146z M101.546,92.763
		c0.053,0.131,0.107,0.258,0.17,0.394C101.653,93.021,101.599,92.894,101.546,92.763z M101.822,93.385
		c0.069,0.145,0.143,0.293,0.222,0.444C101.965,93.678,101.892,93.529,101.822,93.385z M105.654,98.202
		c0.05,0.028,0.101,0.051,0.15,0.072C105.754,98.253,105.704,98.23,105.654,98.202z M103.036,95.556
		c0.053,0.083,0.107,0.153,0.162,0.236C103.144,95.709,103.089,95.639,103.036,95.556z M103.507,96.232
		c0.061,0.083,0.123,0.155,0.185,0.233C103.63,96.388,103.567,96.315,103.507,96.232z M103.964,96.806
		c0.063,0.074,0.127,0.138,0.19,0.207C104.091,96.943,104.027,96.88,103.964,96.806z M104.407,97.28
		c0.062,0.062,0.127,0.116,0.188,0.173C104.534,97.396,104.47,97.342,104.407,97.28z M104.838,97.667
		c0.061,0.054,0.12,0.094,0.182,0.14C104.958,97.761,104.898,97.721,104.838,97.667z M105.255,97.973
		c0.057,0.037,0.111,0.071,0.167,0.103C105.366,98.045,105.312,98.01,105.255,97.973z"/>
	<path fill="#EE8134" d="M146.008,111.062c1.144,1.987,0.46,4.528-1.528,5.675c-1.988,1.145-4.529,0.459-5.673-1.532
		s-0.462-4.527,1.528-5.671C142.324,108.386,144.862,109.072,146.008,111.062z"/>
	<path fill="#5A3286" d="M102.669,33.374c-2.219-1.557-5.083-0.345-7.725-0.19c-8.088,0.468-17.93,4.89-20.635,6.513
		c-5.896,3.547-15.615,12.343-19.656,19.507c0,0-0.936-18.004,4.645-32.106l4.006-0.903l4.289-3.224l1.57-2.519
		c0,0,17.086,2.144,31.869,11.816C101.584,32.626,102.128,32.995,102.669,33.374z"/>
	<path fill="#F7DAE5" d="M61.641,71.642c0.907,2.645,6.847,5.467,8.79,6.855c0.34,0.247,1.145,5.956,8.215,8.729
		c2.572,1.007,17.746,1.892,23.188-1.82c6.105-4.158,9.996-10.662,12.079-17.337c1.677-5.363,2.169-10.932-2.71-13.038
		c0,0,0.721-6.095-1.646-9.218c-5.025-6.631-17.407-4.644-21.756-4.139C83.449,42.177,56.513,56.665,61.641,71.642z"/>
	<path fill="#C80752" d="M58.38,73l-2.479,11.354c0,0,3.385,4.63,5.025,3.811c1.644-0.818,1.294-0.125,1.294-0.125l0.05,1.864
		c0,0,2.889,2.645,4.93,2.089l0.604-0.734c0,0,2.156,1.65,3.676,1.271c0,0-0.159,1.396,0.369,1.805
		c0.404,0.317,3.602,1.246,4.641,0.484c0,0,0.225-5.797,2.156-7.593c0,0-6.942-2.16-7.799-9.194c0,0-1.349-1.598-2.088-2.676
		c-0.52-0.766-1.482-4.294-0.881-7.522c0.744-3.978-0.958-6.754-0.613-7.143c0.436-0.49,1.854,3.192,1.865,5.66
		c0.002,0.471,1.447-1.003,1.816-1.276c0.377-0.287,1.027-0.676,1.262-1.477c0.426-1.469-0.225-6.021-0.641-7.938
		c-0.078-0.352,2.604,2.243,2.09,6.459c-0.121,0.998,4.386-2.829,5.902-3.861c4.572-3.116,5.951-4.588,5.951-4.588
		s1.673-2.566,2.037-4.322c0.416-2.02,0.557-6.076,0.557-6.076s0.414-0.886,1.051-0.395c1.021,0.785,3.343,3.407,3.956,3.907
		c1.214,0.99,2.329,1.629,3.526,2.051c1.197,0.418,3.144,0.712,4.687,0.846c0.476,0.041-5.38-4.104-4.983-5.027
		c0.178-0.412,1.901,1.335,6.303,4.498c0.541,0.389,1.904,0.731,2.621,0.678c3.922-0.293,5.418,4.775,5.627,5.065
		c0.344,0.472,5.719,2.423,3.41,11.846c0,0,2.781-0.295,4.314,0.149c1.113,0.322,2.544,1.545,2.544,1.545s1.899-1.154,2.278-4.253
		c0.086-0.705-1.456-1.355-1.309-1.709c0.891-2.159,0.061-3.567,0.745-3.554c0.832,0.016,1.008-0.253,1.008-0.253
		c0.841-1.959,1.684-3.973,1.114-4.911l-1.662-1.179c0,0,2.006-0.564,2.044-1.013c0.153-1.733,0.409-4.754-0.632-5.557
		c-0.871-0.674-11.639-5.256-13.274-5.057l-1.095-1.234c0,0-18.266-1.529-32.667,7.753c-14.404,9.283-19.979,23.545-19.979,23.545
		L58.38,73z"/>
	<path fill="#0072B4" d="M58.593,72.896c0,0-8.034-1.274-5.461-10.23c2.159-7.494,14.285-18.821,21.178-22.969
		c4.163-2.502,17.716-8.702,30.438-7.058c7.803,1.007,7.351,7.522,6.726,8.312c0,0-8.103-1.648-19.438,1.316
		c-11.339,2.97-21.951,12.814-24.266,15.102C65.174,59.926,58.592,69.338,58.593,72.896z"/>
	<polygon fill="#C80752" points="52.044,15.119 50.964,13.306 53.018,13.158 52.401,11.448 54.265,11.988 53.753,10.079 
		55.663,10.639 55.519,8.914 57.19,9.835 57.638,7.73 59.235,9.286 60.722,7.578 61.384,9.187 62.817,7.929 63.437,9.668 
		64.972,9.002 65.134,10.758 66.8,10.13 66.498,12.039 68.534,11.86 68.141,13.674 69.945,14.184 68.767,15.339 70.415,16.088 
		69.161,17.352 70.825,17.956 69.561,19.088 71.116,20 69.495,20.639 70.782,21.596 68.669,22.029 69.599,23.196 67.827,23.375 
		68.551,24.577 66.672,24.365 67.558,26.18 65.318,25.626 65.382,27.912 63.604,26.427 63.387,28.544 62.101,27.403 61.433,28.932 
		60.524,27.363 59.653,29.364 59.184,27.717 58.08,29.127 57.812,26.809 56.114,27.896 55.962,25.773 54.188,26.535 54.43,24.518 
		52.812,25.04 53.578,22.976 51.538,23.152 52.602,21.217 51.024,20.97 52.236,19.517 50.208,18.72 51.827,17.049 49.943,15.958 	
		"/>
	<path fill="#C80752" d="M161.966,55.563c-3.381,3.932-8.861,3.261-8.861,3.261s-5.482-0.664-10.658-9.23
		c0,0-3.057-3.393-1.392-8.213c1.664-4.829,4.839-3.531,5.509-3.438c0.672,0.093,1.347-0.332,2.023-1.797
		c0.678-1.467,3.285-5.613,8.846-4.65c5.559,0.966,10.827,6.024,10.107,12.562C166.812,50.596,161.966,55.563,161.966,55.563z"/>
	<path fill="#0072B4" d="M136.595,50.906c0,0-2.313,4.988,6.734,9.435c8.262,4.06,14.291,4.814,14.291,4.814
		s5.332,0.064,5.888-4.407c0,0,0.185-2.106-1.397-3.711c-0.341-0.282-0.803-0.545-0.982-0.568
		c-11.984-1.358-19.604-8.177-19.604-8.177S138.003,47.7,136.595,50.906z"/>
	<path fill="#C80752" d="M88.818,63.753c2.797-1.61,5.482-1.044,6.662,1.008c1.179,2.05-1.106,4.98-2.879,6.002
		c-1.771,1.02-5.296,0.937-6.316-0.834C85.265,68.155,86.298,65.204,88.818,63.753z"/>
	<path fill="#0072B4" d="M94.743,60.242c0.799-0.543,2.455-1.468,4.93-1.889c0.293-0.851,0.254-1.82-0.188-2.686
		c-0.861-1.695-2.936-2.371-4.631-1.508c-1.693,0.865-2.367,2.937-1.504,4.633C93.674,59.425,94.167,59.918,94.743,60.242z"/>
	<path fill="#5A3286" d="M95.995,59.518c0.539-0.363,1.62-0.674,2.353-0.968c0.612-0.816,0.421-2.124-0.2-2.834
		c-0.818-0.936-2.252-1.029-3.188-0.21c-0.937,0.823-1.032,2.252-0.21,3.188C95.257,59.272,95.588,59.393,95.995,59.518z"/>
	<path fill="#0072B4" d="M82.392,67.695c0.029-0.631-0.115-1.28-0.453-1.866c-0.951-1.649-3.055-2.219-4.705-1.268
		c-1.647,0.948-2.213,3.053-1.266,4.7c0.461,0.799,1.189,1.342,2.007,1.583C78.915,69.7,80.373,68.366,82.392,67.695z"/>
	<path fill="#5A3286" d="M78.948,69.799c0.594-0.56,1.307-1.107,2.15-1.552c0.191-0.588,0.146-1.252-0.189-1.83
		c-0.62-1.08-2.003-1.454-3.084-0.829c-1.08,0.617-1.451,2.004-0.829,3.083C77.412,69.394,78.165,69.798,78.948,69.799z"/>
	<path fill="#FFFFFF" d="M78.72,65.427c-0.285-0.116-0.652,0.121-0.822,0.531c-0.171,0.415-0.078,0.843,0.208,0.959
		c0.282,0.12,0.653-0.12,0.821-0.53C79.097,65.976,79.007,65.545,78.72,65.427z"/>
	<path fill="#FFFFFF" d="M96.485,54.993c-0.279-0.13-0.656,0.091-0.851,0.489c-0.188,0.403-0.119,0.84,0.16,0.968
		c0.279,0.134,0.658-0.086,0.851-0.489C96.835,55.558,96.763,55.126,96.485,54.993z"/>
	<path fill="#F1C1D4" d="M110.326,59.635c0.821,2.31-1.155,5.115-4.407,6.266c-3.247,1.15-6.547,0.216-7.367-2.095
		c-0.814-2.307,1.158-5.111,4.412-6.263C106.212,56.392,109.513,57.33,110.326,59.635z"/>
	
		<ellipse transform="matrix(0.796 -0.6053 0.6053 0.796 -29.4353 63.8896)" fill="#F1C1D4" cx="80.061" cy="75.611" rx="6.247" ry="4.432"/>
	<path fill="#C80752" d="M86.114,76.589c0.746,1.3-0.911,2.728-0.926,2.743c-0.102,0.085-0.115,0.238-0.025,0.339
		c0.084,0.104,0.236,0.116,0.338,0.032c0.082-0.071,1.982-1.706,1.033-3.355c-0.068-0.115-0.215-0.154-0.33-0.087
		C86.089,76.325,86.047,76.473,86.114,76.589z"/>
	<path fill="#C80752" d="M100.839,68.091c-0.06,0.116-0.01,0.262,0.111,0.325c0.104,0.048,2.611,1.268,3.939-0.172
		c0.092-0.1,0.083-0.252-0.012-0.342c-0.098-0.091-0.252-0.087-0.344,0.012c-1.084,1.176-3.348,0.075-3.371,0.065
		C101.042,67.921,100.897,67.97,100.839,68.091z"/>
	<path fill="#C80752" d="M102.919,68.867c0,0-1.664,9.441-4.562,11.479c-3.266,2.292-4.986,0.504-7.188-0.561
		c-1.336-0.885-3.305-1.379-4.424-1.585c0,0-0.999-0.153,0.201-0.75c7.158-3.565,7.509-1.796,10.591-3.813
		c4.502-2.944,4.573-4.984,4.573-4.984L102.919,68.867z"/>
	<path fill="#EE8134" d="M87.13,158.409c5.322-2.454,16.297-9.993,16.297-9.993l18.638,33.446
		c-6.692,7.527-19.587,10.66-19.587,10.66C98.657,192.272,87.13,158.409,87.13,158.409z"/>
	
		<rect x="95.722" y="173.375" transform="matrix(0.28 -0.96 0.96 0.28 -98.1332 221.071)" fill="#C80752" width="5.17" height="5.158"/>
	
		<rect x="101.985" y="170.044" transform="matrix(0.2801 -0.96 0.96 0.2801 -90.4319 224.6607)" fill="#C80752" width="5.171" height="5.159"/>
	<polyline fill="#C80752" points="94.856,178.842 94.104,177.35 95.2,177.669 94.856,178.842 	"/>
	<polygon fill="#C80752" points="114.034,167.535 112.585,172.496 107.634,171.056 109.083,166.092 	"/>
	<polygon fill="#C80752" points="97.98,167.791 96.535,172.757 91.846,171.049 93.031,166.35 	"/>
	
		<rect x="98.462" y="163.645" transform="matrix(0.28 -0.96 0.96 0.28 -86.8213 216.6809)" fill="#C80752" width="5.172" height="5.157"/>
	
		<rect x="104.723" y="160.314" transform="matrix(0.2805 -0.9599 0.9599 0.2805 -79.1446 220.2062)" fill="#C80752" width="5.17" height="5.16"/>
	<polygon fill="#C80752" points="94.459,161.392 93.011,166.351 89.614,165.366 89.193,164.175 88.688,162.749 89.505,159.945 	"/>
	
		<rect x="94.936" y="157.24" transform="matrix(0.2796 -0.9601 0.9601 0.2796 -83.1893 208.7729)" fill="#C80752" width="5.17" height="5.159"/>
	<polygon fill="#C80752" points="106.983,154.73 105.537,159.693 100.585,158.252 102.03,153.283 	"/>
	<polygon fill="#C80752" points="87.13,158.409 90.431,156.701 89.485,159.952 87.376,159.337 87.13,158.409 	"/>
	<polygon fill="#C80752" points="93.694,154.634 96.882,152.739 95.749,156.622 92.238,155.601 	"/>
	<polygon fill="#C80752" points="103.459,148.33 102.011,153.292 97.874,152.084 100.313,150.532 	"/>
	<polygon fill="#C80752" points="104.983,180.505 103.536,185.466 98.583,184.023 100.028,179.056 	"/>
	
		<rect x="105.462" y="176.354" transform="matrix(0.2804 -0.9599 0.9599 0.2804 -94.0052 232.4677)" fill="#C80752" width="5.171" height="5.158"/>
	<polygon fill="#C80752" points="96.694,183.398 98.673,183.978 98.048,186.138 	"/>
	
		<rect x="111.724" y="173.025" transform="matrix(0.28 -0.96 0.96 0.28 -86.2758 236.1809)" fill="#C80752" width="5.17" height="5.159"/>
	<polyline fill="#C80752" points="105.757,191.409 102.056,190.332 103.505,185.367 108.456,186.809 107.284,190.83 	"/>
	
		<rect x="108.933" y="182.658" transform="matrix(0.2792 -0.9602 0.9602 0.2792 -97.4886 240.6102)" fill="#C80752" width="5.173" height="5.164"/>
	<polygon fill="#C80752" points="99.978,189.651 102.149,190.285 101.654,191.977 101.202,191.583 	"/>
	<polyline fill="#C80752" points="118.642,184.855 114.583,183.672 116.031,178.705 120.986,180.149 119.884,183.93 	"/>
	<circle fill="#9C84B6" cx="58.724" cy="41.195" r="1.686"/>
	<circle fill="#9C84B6" cx="59.732" cy="35.112" r="1.689"/>
	<circle fill="#9C84B6" cx="61.5" cy="30.167" r="1.687"/>
	<path fill="#9C84B6" d="M59.028,45.941c0.467,0.808,0.189,1.836-0.62,2.3c-0.808,0.466-1.84,0.188-2.304-0.618
		c-0.465-0.808-0.188-1.841,0.621-2.307C57.53,44.853,58.562,45.13,59.028,45.941z"/>
	<path fill="#9C84B6" d="M58.292,51.486c0.465,0.808,0.189,1.84-0.619,2.306c-0.809,0.467-1.842,0.188-2.307-0.623
		c-0.464-0.805-0.185-1.836,0.623-2.305C56.799,50.401,57.827,50.679,58.292,51.486z"/>
	<path fill="#9C84B6" d="M63.729,47.221c0.116,0.201,0.305,0.536,0.209,0.732c-0.029,0.061-0.481,0.465-0.864,0.873
		c-0.229,0.245-0.874,0.904-0.956,0.899c-0.555-0.036-1.016-0.307-1.312-0.82c-0.463-0.809-0.188-1.84,0.62-2.306
		C62.235,46.133,63.265,46.414,63.729,47.221z"/>
	<path fill="#9C84B6" d="M66.343,41.731c0.467,0.806,0.188,1.837-0.619,2.301c-0.809,0.466-1.842,0.186-2.305-0.62
		c-0.465-0.805-0.188-1.839,0.618-2.303C64.849,40.642,65.878,40.922,66.343,41.731z"/>
	<path fill="#9C84B6" d="M66.805,35.998c0.465,0.809,0.187,1.839-0.622,2.301c-0.809,0.467-1.84,0.189-2.304-0.618
		c-0.467-0.807-0.189-1.839,0.618-2.305C65.305,34.911,66.339,35.191,66.805,35.998z"/>
	<path fill="#9C84B6" d="M68.071,30.486c0.465,0.807,0.186,1.836-0.623,2.305c-0.807,0.461-1.838,0.185-2.299-0.623
		c-0.469-0.807-0.189-1.838,0.617-2.305C66.573,29.398,67.606,29.678,68.071,30.486z"/>
	<circle fill="#9C84B6" cx="70.101" cy="26.413" r="1.688"/>
	<circle fill="#9C84B6" cx="72.286" cy="31.99" r="1.686"/>
	<path fill="#9C84B6" d="M73.601,36.527c0.465,0.809,0.186,1.842-0.62,2.303c-0.812,0.464-1.839,0.188-2.306-0.62
		c-0.467-0.808-0.189-1.84,0.619-2.302C72.103,35.441,73.134,35.719,73.601,36.527z"/>
	<path fill="#9C84B6" d="M71.798,41.366c0,0-1.098,0.788-1.371,1.006c-0.497,0.392-1.398,1.1-1.398,1.1
		c-0.316-0.55-0.522-1.761,0.494-2.482C70.414,40.357,71.47,40.962,71.798,41.366z"/>
	<circle fill="#9C84B6" cx="77.857" cy="34.249" r="1.688"/>
	<path fill="#9C84B6" d="M77.298,27.227c0.467,0.804,0.188,1.837-0.621,2.303c-0.808,0.466-1.837,0.187-2.306-0.62
		c-0.463-0.81-0.184-1.844,0.622-2.308C75.802,26.137,76.835,26.417,77.298,27.227z"/>
	<path fill="#9C84B6" d="M72.545,21.188c0.803,0.174,1.649,0.261,1.655,0.38c0.021,0.414-0.152,1.101-0.759,1.451
		c-0.805,0.463-1.837,0.187-2.303-0.622c-0.313-0.547-0.243-1.113-0.038-1.496C71.162,20.782,71.837,21.037,72.545,21.188z"/>
	<path fill="#9C84B6" d="M79.515,22.932c0.019,0.681-0.197,1.316-0.869,1.705c-0.808,0.466-1.838,0.187-2.305-0.62
		c-0.35-0.606-0.283-1.338,0.119-1.86C76.593,21.981,79.509,22.782,79.515,22.932z"/>
	<path fill="#9C84B6" d="M82.901,27.758c0.465,0.81,0.188,1.838-0.621,2.302c-0.809,0.467-1.839,0.188-2.305-0.618
		c-0.465-0.809-0.188-1.84,0.622-2.304C81.405,26.673,82.436,26.95,82.901,27.758z"/>
	<path fill="#9C84B6" d="M88.354,26.842c0.463,0.81,0.186,1.839-0.623,2.302c-0.809,0.467-1.838,0.189-2.302-0.619
		c-0.467-0.808-0.19-1.84,0.618-2.305C86.856,25.756,87.89,26.034,88.354,26.842z"/>
	<path fill="#9C84B6" d="M86.253,31.806c0.467,0.807,0.19,1.84-0.618,2.304c-0.808,0.467-1.841,0.188-2.304-0.622
		c-0.463-0.805-0.188-1.836,0.621-2.302C84.761,30.721,85.792,30.997,86.253,31.806z"/>
	<path fill="#9C84B6" d="M93.432,29.729c0.464,0.805,0.185,1.836-0.623,2.301c-0.808,0.466-1.839,0.188-2.302-0.618
		c-0.466-0.81-0.191-1.839,0.619-2.307C91.935,28.64,92.966,28.919,93.432,29.729z"/>
	<path fill="none" d="M94.526,64.931c1.275,2.214,0.51,5.047-1.706,6.32c-2.216,1.277-5.046,0.516-6.323-1.699
		c-1.273-2.221-0.512-5.052,1.703-6.326C90.417,61.949,93.251,62.711,94.526,64.931z"/>
	<circle fill="#EE8134" cx="105.751" cy="134.227" r="4.155"/>
	<path fill="#C80752" d="M43.082,97.363c-4.29-1.578-5.403,1.428-5.767,1.967c-0.387,0.56-1.15,0.777-2.689,0.298
		c-1.54-0.479-6.371-1.32-9.379,3.452c-3.007,4.771-2.786,12.072,2.551,15.92c0.455,0.323,0.923,0.609,1.396,0.88
		c0.761,0.652,1.621,1.22,2.615,1.656c6.015,2.662,12.749,0.966,12.749,0.966c5.097-0.951,7.274-6.022,7.274-6.022
		s2.176-5.076-2.633-13.858C49.2,102.621,47.853,98.453,43.082,97.363z"/>
	<path fill="#0072B4" d="M53.278,98.222c0,0,5.473,0.505,4.773,10.564c-0.64,9.182-3.019,14.775-3.019,14.775
		s-2.348,4.633-6.766,2.877c0,0-2.544-0.703-2.78-3.536c5.133-11.236,3.053-21.73,3.053-21.73S49.794,97.83,53.278,98.222z"/>
</g>
</svg>
